<mxfile host="app.diagrams.net" modified="2022-02-08T12:41:47.561Z" agent="5.0 (X11; Linux mips64) AppleWebKit/537.36 (KHTML, like Gecko) Chrome/90.0.4430.217 Safari/537.36 Lbrowser/3.1.5634.3" etag="jMS2UQAfCKcqMr-eD-JL" version="16.4.8" type="github" pages="2">
  <diagram id="Fdk4tDik98o-y0DdTQnE" name="第 1 页">
    <mxGraphModel dx="2031" dy="2273" grid="1" gridSize="10" guides="1" tooltips="1" connect="1" arrows="1" fold="1" page="1" pageScale="1" pageWidth="827" pageHeight="1169" math="0" shadow="0">
      <root>
        <mxCell id="0" />
        <mxCell id="1" parent="0" />
        <mxCell id="UjKAss_wm5w3mMdC5Eye-2" style="edgeStyle=orthogonalEdgeStyle;rounded=1;orthogonalLoop=1;jettySize=auto;html=1;entryX=0.5;entryY=0;entryDx=0;entryDy=0;" edge="1" parent="1" source="UMqaF7nRJnWzPU_xDixw-1" target="UjKAss_wm5w3mMdC5Eye-1">
          <mxGeometry relative="1" as="geometry">
            <Array as="points">
              <mxPoint x="608" y="-1000" />
              <mxPoint x="474" y="-1000" />
            </Array>
          </mxGeometry>
        </mxCell>
        <mxCell id="UjKAss_wm5w3mMdC5Eye-10" value="" style="edgeStyle=orthogonalEdgeStyle;rounded=1;orthogonalLoop=1;jettySize=auto;html=1;" edge="1" parent="1" source="UMqaF7nRJnWzPU_xDixw-1" target="UjKAss_wm5w3mMdC5Eye-8">
          <mxGeometry relative="1" as="geometry" />
        </mxCell>
        <mxCell id="UjKAss_wm5w3mMdC5Eye-11" style="edgeStyle=orthogonalEdgeStyle;rounded=1;orthogonalLoop=1;jettySize=auto;html=1;" edge="1" parent="1" target="UjKAss_wm5w3mMdC5Eye-9">
          <mxGeometry relative="1" as="geometry">
            <mxPoint x="608" y="-1030" as="sourcePoint" />
            <Array as="points">
              <mxPoint x="608" y="-1000" />
              <mxPoint x="742" y="-1000" />
            </Array>
          </mxGeometry>
        </mxCell>
        <mxCell id="UMqaF7nRJnWzPU_xDixw-1" value="开始" style="strokeWidth=2;html=1;shape=mxgraph.flowchart.start_1;whiteSpace=wrap;fillColor=#6d8764;strokeColor=#3A5431;rounded=1;fontColor=#ffffff;" parent="1" vertex="1">
          <mxGeometry x="558" y="-1090" width="100" height="60" as="geometry" />
        </mxCell>
        <mxCell id="UjKAss_wm5w3mMdC5Eye-104" style="edgeStyle=orthogonalEdgeStyle;rounded=1;orthogonalLoop=1;jettySize=auto;html=1;entryX=0.5;entryY=0;entryDx=0;entryDy=0;exitX=0.5;exitY=1;exitDx=0;exitDy=0;" edge="1" parent="1" source="UMqaF7nRJnWzPU_xDixw-2" target="Unuxi51Q6prLjTuZSmVG-23">
          <mxGeometry relative="1" as="geometry" />
        </mxCell>
        <mxCell id="UMqaF7nRJnWzPU_xDixw-2" value="双击桌面图标调用desktop文件的Exec行命令" style="whiteSpace=wrap;html=1;strokeWidth=2;fillColor=#FFFFFF;strokeColor=#36393d;rounded=1;" parent="1" vertex="1">
          <mxGeometry x="414" y="-910" width="120" height="60" as="geometry" />
        </mxCell>
        <mxCell id="UjKAss_wm5w3mMdC5Eye-22" value="" style="edgeStyle=orthogonalEdgeStyle;rounded=1;orthogonalLoop=1;jettySize=auto;html=1;" edge="1" parent="1" source="Unuxi51Q6prLjTuZSmVG-23" target="UjKAss_wm5w3mMdC5Eye-21">
          <mxGeometry relative="1" as="geometry" />
        </mxCell>
        <mxCell id="Unuxi51Q6prLjTuZSmVG-23" value="调用运行器" style="whiteSpace=wrap;html=1;strokeWidth=2;fillColor=#cce5ff;strokeColor=#36393d;rounded=1;" parent="1" vertex="1">
          <mxGeometry x="548" y="-770" width="120" height="40" as="geometry" />
        </mxCell>
        <mxCell id="UjKAss_wm5w3mMdC5Eye-7" value="" style="edgeStyle=orthogonalEdgeStyle;rounded=1;orthogonalLoop=1;jettySize=auto;html=1;" edge="1" parent="1" source="UjKAss_wm5w3mMdC5Eye-1" target="UMqaF7nRJnWzPU_xDixw-2">
          <mxGeometry relative="1" as="geometry" />
        </mxCell>
        <mxCell id="UjKAss_wm5w3mMdC5Eye-1" value="桌面类应用" style="rounded=1;whiteSpace=wrap;html=1;" vertex="1" parent="1">
          <mxGeometry x="414" y="-980" width="120" height="40" as="geometry" />
        </mxCell>
        <mxCell id="UjKAss_wm5w3mMdC5Eye-14" value="" style="edgeStyle=orthogonalEdgeStyle;rounded=1;orthogonalLoop=1;jettySize=auto;html=1;" edge="1" parent="1" source="UjKAss_wm5w3mMdC5Eye-8" target="UjKAss_wm5w3mMdC5Eye-12">
          <mxGeometry relative="1" as="geometry" />
        </mxCell>
        <mxCell id="UjKAss_wm5w3mMdC5Eye-8" value="命令类应用" style="rounded=1;whiteSpace=wrap;html=1;" vertex="1" parent="1">
          <mxGeometry x="548" y="-980" width="120" height="40" as="geometry" />
        </mxCell>
        <mxCell id="UjKAss_wm5w3mMdC5Eye-15" value="" style="edgeStyle=orthogonalEdgeStyle;rounded=1;orthogonalLoop=1;jettySize=auto;html=1;" edge="1" parent="1" source="UjKAss_wm5w3mMdC5Eye-9" target="UjKAss_wm5w3mMdC5Eye-13">
          <mxGeometry relative="1" as="geometry" />
        </mxCell>
        <mxCell id="UjKAss_wm5w3mMdC5Eye-9" value="服务类应用" style="rounded=1;whiteSpace=wrap;html=1;" vertex="1" parent="1">
          <mxGeometry x="682" y="-980" width="120" height="40" as="geometry" />
        </mxCell>
        <mxCell id="UjKAss_wm5w3mMdC5Eye-19" value="" style="edgeStyle=orthogonalEdgeStyle;rounded=1;orthogonalLoop=1;jettySize=auto;html=1;" edge="1" parent="1" source="UjKAss_wm5w3mMdC5Eye-12" target="Unuxi51Q6prLjTuZSmVG-23">
          <mxGeometry relative="1" as="geometry" />
        </mxCell>
        <mxCell id="UjKAss_wm5w3mMdC5Eye-12" value="命令行输入启动命令" style="whiteSpace=wrap;html=1;strokeWidth=2;fillColor=#FFFFFF;strokeColor=#36393d;rounded=1;" vertex="1" parent="1">
          <mxGeometry x="548" y="-910" width="120" height="60" as="geometry" />
        </mxCell>
        <mxCell id="UjKAss_wm5w3mMdC5Eye-105" style="edgeStyle=orthogonalEdgeStyle;rounded=1;orthogonalLoop=1;jettySize=auto;html=1;entryX=0.5;entryY=0;entryDx=0;entryDy=0;" edge="1" parent="1" source="UjKAss_wm5w3mMdC5Eye-13" target="Unuxi51Q6prLjTuZSmVG-23">
          <mxGeometry relative="1" as="geometry">
            <Array as="points">
              <mxPoint x="742" y="-810" />
              <mxPoint x="608" y="-810" />
            </Array>
          </mxGeometry>
        </mxCell>
        <mxCell id="UjKAss_wm5w3mMdC5Eye-13" value="命令行通过systemd启动命令" style="whiteSpace=wrap;html=1;strokeWidth=2;fillColor=#FFFFFF;strokeColor=#36393d;rounded=1;" vertex="1" parent="1">
          <mxGeometry x="682" y="-910" width="120" height="60" as="geometry" />
        </mxCell>
        <mxCell id="UjKAss_wm5w3mMdC5Eye-24" value="" style="edgeStyle=orthogonalEdgeStyle;rounded=1;orthogonalLoop=1;jettySize=auto;html=1;" edge="1" parent="1" source="UjKAss_wm5w3mMdC5Eye-21" target="UjKAss_wm5w3mMdC5Eye-23">
          <mxGeometry relative="1" as="geometry" />
        </mxCell>
        <mxCell id="UjKAss_wm5w3mMdC5Eye-21" value="获取传入的包名称和命令" style="rounded=1;whiteSpace=wrap;html=1;fillColor=#FFFFFF;" vertex="1" parent="1">
          <mxGeometry x="548" y="-692" width="120" height="40" as="geometry" />
        </mxCell>
        <mxCell id="UjKAss_wm5w3mMdC5Eye-26" value="" style="edgeStyle=orthogonalEdgeStyle;rounded=1;orthogonalLoop=1;jettySize=auto;html=1;" edge="1" parent="1" source="UjKAss_wm5w3mMdC5Eye-23" target="UjKAss_wm5w3mMdC5Eye-25">
          <mxGeometry relative="1" as="geometry" />
        </mxCell>
        <mxCell id="UjKAss_wm5w3mMdC5Eye-23" value="根据包名定位到yaml文件位置" style="rounded=1;whiteSpace=wrap;html=1;fillColor=#FFFFFF;" vertex="1" parent="1">
          <mxGeometry x="548" y="-614" width="120" height="40" as="geometry" />
        </mxCell>
        <mxCell id="UjKAss_wm5w3mMdC5Eye-28" value="" style="edgeStyle=orthogonalEdgeStyle;rounded=1;orthogonalLoop=1;jettySize=auto;html=1;" edge="1" parent="1" source="UjKAss_wm5w3mMdC5Eye-25" target="UjKAss_wm5w3mMdC5Eye-27">
          <mxGeometry relative="1" as="geometry" />
        </mxCell>
        <mxCell id="UjKAss_wm5w3mMdC5Eye-25" value="读取yaml文件，获取应用名称，应用版本，权限，多开字段" style="rounded=1;whiteSpace=wrap;html=1;fillColor=#FFFFFF;" vertex="1" parent="1">
          <mxGeometry x="548" y="-560" width="122" height="60" as="geometry" />
        </mxCell>
        <mxCell id="UjKAss_wm5w3mMdC5Eye-31" value="" style="edgeStyle=orthogonalEdgeStyle;rounded=1;orthogonalLoop=1;jettySize=auto;html=1;" edge="1" parent="1" source="UjKAss_wm5w3mMdC5Eye-27" target="UjKAss_wm5w3mMdC5Eye-30">
          <mxGeometry relative="1" as="geometry" />
        </mxCell>
        <mxCell id="UjKAss_wm5w3mMdC5Eye-27" value="通过应用名称和应用版本，组装出应用所属的容器名称" style="whiteSpace=wrap;html=1;fillColor=#FFFFFF;rounded=1;" vertex="1" parent="1">
          <mxGeometry x="548" y="-468" width="122" height="60" as="geometry" />
        </mxCell>
        <mxCell id="UjKAss_wm5w3mMdC5Eye-33" value="" style="edgeStyle=orthogonalEdgeStyle;rounded=1;orthogonalLoop=1;jettySize=auto;html=1;" edge="1" parent="1" source="UjKAss_wm5w3mMdC5Eye-30" target="UjKAss_wm5w3mMdC5Eye-32">
          <mxGeometry relative="1" as="geometry" />
        </mxCell>
        <mxCell id="UjKAss_wm5w3mMdC5Eye-30" value="获取容器的状态" style="whiteSpace=wrap;html=1;fillColor=#FFFFFF;rounded=1;" vertex="1" parent="1">
          <mxGeometry x="545.5" y="-370" width="127" height="20" as="geometry" />
        </mxCell>
        <mxCell id="UjKAss_wm5w3mMdC5Eye-36" value="" style="edgeStyle=orthogonalEdgeStyle;rounded=1;orthogonalLoop=1;jettySize=auto;html=1;" edge="1" parent="1" source="UjKAss_wm5w3mMdC5Eye-32" target="UjKAss_wm5w3mMdC5Eye-35">
          <mxGeometry relative="1" as="geometry" />
        </mxCell>
        <mxCell id="UjKAss_wm5w3mMdC5Eye-40" value="否" style="edgeLabel;html=1;align=center;verticalAlign=middle;resizable=0;points=[];" vertex="1" connectable="0" parent="UjKAss_wm5w3mMdC5Eye-36">
          <mxGeometry x="-0.2636" y="-4" relative="1" as="geometry">
            <mxPoint y="-5" as="offset" />
          </mxGeometry>
        </mxCell>
        <mxCell id="UjKAss_wm5w3mMdC5Eye-42" value="是" style="edgeStyle=orthogonalEdgeStyle;rounded=1;orthogonalLoop=1;jettySize=auto;html=1;" edge="1" parent="1" source="UjKAss_wm5w3mMdC5Eye-32" target="UjKAss_wm5w3mMdC5Eye-41">
          <mxGeometry relative="1" as="geometry" />
        </mxCell>
        <mxCell id="UjKAss_wm5w3mMdC5Eye-32" value="running" style="rhombus;whiteSpace=wrap;html=1;rounded=1;fillColor=#647687;fontColor=#ffffff;strokeColor=#314354;" vertex="1" parent="1">
          <mxGeometry x="569" y="-320" width="80" height="50" as="geometry" />
        </mxCell>
        <mxCell id="UjKAss_wm5w3mMdC5Eye-58" value="" style="edgeStyle=orthogonalEdgeStyle;rounded=1;orthogonalLoop=1;jettySize=auto;html=1;" edge="1" parent="1" source="UjKAss_wm5w3mMdC5Eye-35" target="UjKAss_wm5w3mMdC5Eye-57">
          <mxGeometry relative="1" as="geometry" />
        </mxCell>
        <mxCell id="UjKAss_wm5w3mMdC5Eye-59" value="否" style="edgeLabel;html=1;align=center;verticalAlign=middle;resizable=0;points=[];" vertex="1" connectable="0" parent="UjKAss_wm5w3mMdC5Eye-58">
          <mxGeometry x="-0.26" y="2" relative="1" as="geometry">
            <mxPoint x="-4" y="-5" as="offset" />
          </mxGeometry>
        </mxCell>
        <mxCell id="UjKAss_wm5w3mMdC5Eye-69" value="" style="edgeStyle=orthogonalEdgeStyle;rounded=1;orthogonalLoop=1;jettySize=auto;html=1;entryX=0.5;entryY=0;entryDx=0;entryDy=0;" edge="1" parent="1" source="UjKAss_wm5w3mMdC5Eye-35" target="UjKAss_wm5w3mMdC5Eye-68">
          <mxGeometry relative="1" as="geometry" />
        </mxCell>
        <mxCell id="UjKAss_wm5w3mMdC5Eye-70" value="是" style="edgeLabel;html=1;align=center;verticalAlign=middle;resizable=0;points=[];" vertex="1" connectable="0" parent="UjKAss_wm5w3mMdC5Eye-69">
          <mxGeometry x="-0.4788" relative="1" as="geometry">
            <mxPoint x="28" as="offset" />
          </mxGeometry>
        </mxCell>
        <mxCell id="UjKAss_wm5w3mMdC5Eye-35" value="exited" style="rhombus;whiteSpace=wrap;html=1;rounded=1;fillColor=#647687;fontColor=#ffffff;strokeColor=#314354;" vertex="1" parent="1">
          <mxGeometry x="709" y="-240" width="80" height="50" as="geometry" />
        </mxCell>
        <mxCell id="UjKAss_wm5w3mMdC5Eye-49" value="" style="edgeStyle=orthogonalEdgeStyle;rounded=1;orthogonalLoop=1;jettySize=auto;html=1;" edge="1" parent="1" target="UjKAss_wm5w3mMdC5Eye-46">
          <mxGeometry relative="1" as="geometry">
            <mxPoint x="610" y="-180" as="sourcePoint" />
          </mxGeometry>
        </mxCell>
        <mxCell id="UjKAss_wm5w3mMdC5Eye-41" value="判断多开字段是否为1" style="rounded=1;whiteSpace=wrap;html=1;fillColor=#FFFFFF;" vertex="1" parent="1">
          <mxGeometry x="549" y="-240" width="120" height="60" as="geometry" />
        </mxCell>
        <mxCell id="UjKAss_wm5w3mMdC5Eye-51" value="是" style="edgeStyle=orthogonalEdgeStyle;rounded=1;orthogonalLoop=1;jettySize=auto;html=1;" edge="1" parent="1" source="UjKAss_wm5w3mMdC5Eye-46" target="UjKAss_wm5w3mMdC5Eye-50">
          <mxGeometry relative="1" as="geometry" />
        </mxCell>
        <mxCell id="UjKAss_wm5w3mMdC5Eye-61" value="" style="edgeStyle=orthogonalEdgeStyle;rounded=1;orthogonalLoop=1;jettySize=auto;html=1;" edge="1" parent="1" source="UjKAss_wm5w3mMdC5Eye-46" target="UjKAss_wm5w3mMdC5Eye-60">
          <mxGeometry relative="1" as="geometry" />
        </mxCell>
        <mxCell id="UjKAss_wm5w3mMdC5Eye-63" value="否" style="edgeLabel;html=1;align=center;verticalAlign=middle;resizable=0;points=[];" vertex="1" connectable="0" parent="UjKAss_wm5w3mMdC5Eye-61">
          <mxGeometry x="-0.6209" y="3" relative="1" as="geometry">
            <mxPoint x="-18" y="-3" as="offset" />
          </mxGeometry>
        </mxCell>
        <mxCell id="UjKAss_wm5w3mMdC5Eye-46" value="为1" style="rhombus;whiteSpace=wrap;html=1;rounded=1;fillColor=#647687;fontColor=#ffffff;strokeColor=#314354;" vertex="1" parent="1">
          <mxGeometry x="570" y="-150" width="80" height="50" as="geometry" />
        </mxCell>
        <mxCell id="UjKAss_wm5w3mMdC5Eye-54" value="" style="edgeStyle=orthogonalEdgeStyle;rounded=1;orthogonalLoop=1;jettySize=auto;html=1;" edge="1" parent="1" source="UjKAss_wm5w3mMdC5Eye-50">
          <mxGeometry relative="1" as="geometry">
            <mxPoint x="610" y="300" as="targetPoint" />
          </mxGeometry>
        </mxCell>
        <mxCell id="UjKAss_wm5w3mMdC5Eye-50" value="通过已有容器，调用热启动方式，启动应用" style="rounded=1;whiteSpace=wrap;html=1;fillColor=#FFFFFF;" vertex="1" parent="1">
          <mxGeometry x="550" y="-60" width="120" height="60" as="geometry" />
        </mxCell>
        <mxCell id="UjKAss_wm5w3mMdC5Eye-53" value="结束" style="strokeWidth=2;html=1;shape=mxgraph.flowchart.start_1;whiteSpace=wrap;fillColor=#76608a;fontColor=#ffffff;strokeColor=#432D57;rounded=1;" vertex="1" parent="1">
          <mxGeometry x="560" y="300" width="100" height="60" as="geometry" />
        </mxCell>
        <mxCell id="UjKAss_wm5w3mMdC5Eye-65" value="" style="edgeStyle=orthogonalEdgeStyle;rounded=1;orthogonalLoop=1;jettySize=auto;html=1;" edge="1" parent="1" source="UjKAss_wm5w3mMdC5Eye-57" target="UjKAss_wm5w3mMdC5Eye-64">
          <mxGeometry relative="1" as="geometry" />
        </mxCell>
        <mxCell id="UjKAss_wm5w3mMdC5Eye-57" value="通过权限字段，准备环境变量，需要挂载的设备，需要共享的目录" style="whiteSpace=wrap;html=1;fillColor=#FFFFFF;rounded=1;" vertex="1" parent="1">
          <mxGeometry x="689" y="-150" width="120" height="60" as="geometry" />
        </mxCell>
        <mxCell id="UjKAss_wm5w3mMdC5Eye-62" style="edgeStyle=orthogonalEdgeStyle;rounded=1;orthogonalLoop=1;jettySize=auto;html=1;entryX=0.5;entryY=0;entryDx=0;entryDy=0;entryPerimeter=0;exitX=0.5;exitY=1;exitDx=0;exitDy=0;" edge="1" parent="1" source="UjKAss_wm5w3mMdC5Eye-60">
          <mxGeometry relative="1" as="geometry">
            <mxPoint x="610" y="300" as="targetPoint" />
            <Array as="points">
              <mxPoint x="471" y="260" />
              <mxPoint x="610" y="260" />
            </Array>
          </mxGeometry>
        </mxCell>
        <mxCell id="UjKAss_wm5w3mMdC5Eye-60" value="通过窗口/命令行提示用户，应用已经启动" style="whiteSpace=wrap;html=1;fillColor=#FFFFFF;rounded=1;" vertex="1" parent="1">
          <mxGeometry x="411" y="-60" width="120" height="60" as="geometry" />
        </mxCell>
        <mxCell id="UjKAss_wm5w3mMdC5Eye-106" style="edgeStyle=orthogonalEdgeStyle;rounded=1;orthogonalLoop=1;jettySize=auto;html=1;" edge="1" parent="1" source="UjKAss_wm5w3mMdC5Eye-64" target="UjKAss_wm5w3mMdC5Eye-53">
          <mxGeometry relative="1" as="geometry">
            <mxPoint x="611" y="270" as="targetPoint" />
            <Array as="points">
              <mxPoint x="749" y="260" />
              <mxPoint x="611" y="260" />
            </Array>
          </mxGeometry>
        </mxCell>
        <mxCell id="UjKAss_wm5w3mMdC5Eye-64" value="通过应用名称和应用版本，组装出应用所属的镜像，启动镜像，启动应用" style="whiteSpace=wrap;html=1;fillColor=#FFFFFF;rounded=1;" vertex="1" parent="1">
          <mxGeometry x="689" y="-60" width="120" height="60" as="geometry" />
        </mxCell>
        <mxCell id="UjKAss_wm5w3mMdC5Eye-99" value="是" style="edgeStyle=orthogonalEdgeStyle;rounded=1;orthogonalLoop=1;jettySize=auto;html=1;" edge="1" parent="1" source="UjKAss_wm5w3mMdC5Eye-71" target="UjKAss_wm5w3mMdC5Eye-80">
          <mxGeometry relative="1" as="geometry" />
        </mxCell>
        <mxCell id="UjKAss_wm5w3mMdC5Eye-100" value="否" style="edgeStyle=orthogonalEdgeStyle;rounded=1;orthogonalLoop=1;jettySize=auto;html=1;" edge="1" parent="1" source="UjKAss_wm5w3mMdC5Eye-71" target="UjKAss_wm5w3mMdC5Eye-87">
          <mxGeometry x="-0.2727" relative="1" as="geometry">
            <mxPoint as="offset" />
          </mxGeometry>
        </mxCell>
        <mxCell id="UjKAss_wm5w3mMdC5Eye-71" value="为0，137，255" style="rhombus;whiteSpace=wrap;html=1;rounded=1;fillColor=#647687;fontColor=#ffffff;strokeColor=#314354;" vertex="1" parent="1">
          <mxGeometry x="1140" y="-140" width="80" height="50" as="geometry" />
        </mxCell>
        <mxCell id="UjKAss_wm5w3mMdC5Eye-85" style="edgeStyle=orthogonalEdgeStyle;rounded=1;orthogonalLoop=1;jettySize=auto;html=1;exitX=0.5;exitY=1;exitDx=0;exitDy=0;" edge="1" parent="1" source="UjKAss_wm5w3mMdC5Eye-80">
          <mxGeometry relative="1" as="geometry">
            <mxPoint x="610" y="300" as="targetPoint" />
            <Array as="points">
              <mxPoint x="1180" y="260" />
              <mxPoint x="610" y="260" />
            </Array>
          </mxGeometry>
        </mxCell>
        <mxCell id="UjKAss_wm5w3mMdC5Eye-80" value="提示用户，容器出错，删除容器" style="whiteSpace=wrap;html=1;fillColor=#FFFFFF;rounded=1;" vertex="1" parent="1">
          <mxGeometry x="1120" y="-60" width="120" height="60" as="geometry" />
        </mxCell>
        <mxCell id="UjKAss_wm5w3mMdC5Eye-86" value="" style="edgeStyle=orthogonalEdgeStyle;rounded=1;orthogonalLoop=1;jettySize=auto;html=1;" edge="1" parent="1" source="UjKAss_wm5w3mMdC5Eye-87" target="UjKAss_wm5w3mMdC5Eye-88">
          <mxGeometry relative="1" as="geometry" />
        </mxCell>
        <mxCell id="UjKAss_wm5w3mMdC5Eye-87" value="获取退出容器的command，和传入的command是否一样" style="rounded=1;whiteSpace=wrap;html=1;fillColor=#FFFFFF;" vertex="1" parent="1">
          <mxGeometry x="970" y="-60" width="120" height="60" as="geometry" />
        </mxCell>
        <mxCell id="UjKAss_wm5w3mMdC5Eye-90" value="" style="edgeStyle=orthogonalEdgeStyle;rounded=1;orthogonalLoop=1;jettySize=auto;html=1;exitX=0.5;exitY=1;exitDx=0;exitDy=0;" edge="1" parent="1" source="UjKAss_wm5w3mMdC5Eye-88" target="UjKAss_wm5w3mMdC5Eye-89">
          <mxGeometry relative="1" as="geometry">
            <Array as="points">
              <mxPoint x="1030" y="164" />
              <mxPoint x="1030" y="164" />
            </Array>
          </mxGeometry>
        </mxCell>
        <mxCell id="UjKAss_wm5w3mMdC5Eye-95" value="是" style="edgeLabel;html=1;align=center;verticalAlign=middle;resizable=0;points=[];" vertex="1" connectable="0" parent="UjKAss_wm5w3mMdC5Eye-90">
          <mxGeometry x="-0.5791" relative="1" as="geometry">
            <mxPoint as="offset" />
          </mxGeometry>
        </mxCell>
        <mxCell id="UjKAss_wm5w3mMdC5Eye-97" value="否" style="edgeStyle=orthogonalEdgeStyle;rounded=1;orthogonalLoop=1;jettySize=auto;html=1;" edge="1" parent="1" source="UjKAss_wm5w3mMdC5Eye-88" target="UjKAss_wm5w3mMdC5Eye-96">
          <mxGeometry relative="1" as="geometry" />
        </mxCell>
        <mxCell id="UjKAss_wm5w3mMdC5Eye-88" value="一样" style="rhombus;whiteSpace=wrap;html=1;rounded=1;fillColor=#647687;fontColor=#ffffff;strokeColor=#314354;" vertex="1" parent="1">
          <mxGeometry x="990" y="30" width="80" height="50" as="geometry" />
        </mxCell>
        <mxCell id="UjKAss_wm5w3mMdC5Eye-91" style="edgeStyle=orthogonalEdgeStyle;rounded=1;orthogonalLoop=1;jettySize=auto;html=1;exitX=0.5;exitY=1;exitDx=0;exitDy=0;" edge="1" parent="1" source="UjKAss_wm5w3mMdC5Eye-89">
          <mxGeometry relative="1" as="geometry">
            <mxPoint x="610" y="300" as="targetPoint" />
            <Array as="points">
              <mxPoint x="1030" y="260" />
              <mxPoint x="610" y="260" />
            </Array>
          </mxGeometry>
        </mxCell>
        <mxCell id="UjKAss_wm5w3mMdC5Eye-89" value="重新启动已有的容器" style="rounded=1;whiteSpace=wrap;html=1;fillColor=#FFFFFF;" vertex="1" parent="1">
          <mxGeometry x="970" y="120" width="120" height="60" as="geometry" />
        </mxCell>
        <mxCell id="UjKAss_wm5w3mMdC5Eye-101" style="edgeStyle=orthogonalEdgeStyle;rounded=1;orthogonalLoop=1;jettySize=auto;html=1;entryX=0.5;entryY=0;entryDx=0;entryDy=0;exitX=0.5;exitY=1;exitDx=0;exitDy=0;" edge="1" parent="1" source="UjKAss_wm5w3mMdC5Eye-96" target="UjKAss_wm5w3mMdC5Eye-57">
          <mxGeometry relative="1" as="geometry" />
        </mxCell>
        <mxCell id="UjKAss_wm5w3mMdC5Eye-96" value="删除已经的容器" style="whiteSpace=wrap;html=1;fillColor=#FFFFFF;rounded=1;" vertex="1" parent="1">
          <mxGeometry x="861" y="120" width="90" height="60" as="geometry" />
        </mxCell>
        <mxCell id="UjKAss_wm5w3mMdC5Eye-109" style="edgeStyle=orthogonalEdgeStyle;rounded=1;orthogonalLoop=1;jettySize=auto;html=1;entryX=0.5;entryY=0;entryDx=0;entryDy=0;" edge="1" parent="1" source="UjKAss_wm5w3mMdC5Eye-68" target="UjKAss_wm5w3mMdC5Eye-71">
          <mxGeometry relative="1" as="geometry" />
        </mxCell>
        <mxCell id="UjKAss_wm5w3mMdC5Eye-68" value="获取退出码" style="whiteSpace=wrap;html=1;fillColor=#FFFFFF;rounded=1;" vertex="1" parent="1">
          <mxGeometry x="1119" y="-190" width="120" height="35" as="geometry" />
        </mxCell>
      </root>
    </mxGraphModel>
  </diagram>
  <diagram id="O8MG7H-3_vgISIsoGhD1" name="第 2 页">
    <mxGraphModel dx="1422" dy="773" grid="1" gridSize="10" guides="1" tooltips="1" connect="1" arrows="1" fold="1" page="1" pageScale="1" pageWidth="827" pageHeight="1169" math="0" shadow="0">
      <root>
        <mxCell id="bjSVrxCcCOhVVrhVAQgg-0" />
        <mxCell id="bjSVrxCcCOhVVrhVAQgg-1" parent="bjSVrxCcCOhVVrhVAQgg-0" />
        <mxCell id="bjSVrxCcCOhVVrhVAQgg-2" value="" style="rounded=1;whiteSpace=wrap;html=1;shadow=1;fillColor=#b1ddf0;strokeColor=#10739e;" parent="bjSVrxCcCOhVVrhVAQgg-1" vertex="1">
          <mxGeometry x="120" y="520" width="570" height="169" as="geometry" />
        </mxCell>
        <mxCell id="bjSVrxCcCOhVVrhVAQgg-3" value="&lt;font style=&quot;font-size: 18px&quot;&gt;宿主机系统&lt;/font&gt;" style="text;html=1;resizable=0;autosize=1;align=center;verticalAlign=middle;points=[];fillColor=none;strokeColor=none;rounded=0;shadow=1;" parent="bjSVrxCcCOhVVrhVAQgg-1" vertex="1">
          <mxGeometry x="349" y="660" width="110" height="20" as="geometry" />
        </mxCell>
        <mxCell id="bjSVrxCcCOhVVrhVAQgg-4" value="" style="rounded=1;whiteSpace=wrap;html=1;shadow=1;fillColor=#6d8764;strokeColor=#3A5431;fontColor=#ffffff;" parent="bjSVrxCcCOhVVrhVAQgg-1" vertex="1">
          <mxGeometry x="120" y="100" width="570" height="310" as="geometry" />
        </mxCell>
        <mxCell id="bjSVrxCcCOhVVrhVAQgg-7" value="&lt;div&gt;应用&lt;/div&gt;&lt;div&gt;程序启动&lt;/div&gt;" style="text;html=1;resizable=0;autosize=1;align=center;verticalAlign=middle;points=[];fillColor=none;strokeColor=none;rounded=0;shadow=1;fontSize=18;" parent="bjSVrxCcCOhVVrhVAQgg-1" vertex="1">
          <mxGeometry x="145" y="109" width="90" height="50" as="geometry" />
        </mxCell>
        <mxCell id="bjSVrxCcCOhVVrhVAQgg-18" value="&lt;h1&gt;&lt;font&gt;&lt;font style=&quot;font-size: 14px&quot;&gt;映射&lt;/font&gt;&lt;/font&gt;&lt;/h1&gt;&lt;font style=&quot;font-size: 12px&quot;&gt;将宿主机的设备、环境变量、卷等映射到容器中&lt;/font&gt;" style="text;html=1;strokeColor=#432D57;fillColor=#76608a;spacing=5;spacingTop=-20;whiteSpace=wrap;overflow=hidden;rounded=1;fontColor=#ffffff;glass=0;sketch=0;shadow=1;" parent="bjSVrxCcCOhVVrhVAQgg-1" vertex="1">
          <mxGeometry x="571.2" y="420" width="110" height="90" as="geometry" />
        </mxCell>
        <mxCell id="bjSVrxCcCOhVVrhVAQgg-40" value="&lt;h1&gt;&lt;br&gt;&lt;/h1&gt;" style="text;html=1;strokeColor=#3700CC;fillColor=#6a00ff;spacing=5;spacingTop=-20;whiteSpace=wrap;overflow=hidden;rounded=1;shadow=0;glass=1;sketch=0;fontSize=18;fontColor=#ffffff;" parent="bjSVrxCcCOhVVrhVAQgg-1" vertex="1">
          <mxGeometry x="140" y="165" width="189" height="160" as="geometry" />
        </mxCell>
        <mxCell id="_VUfvd7zScw78irFREDJ-0" value="" style="shape=flexArrow;endArrow=classic;startArrow=classic;html=1;rounded=1;fontSize=18;fontColor=#1A1A1A;fillColor=#a0522d;strokeColor=#6D1F00;entryX=0.125;entryY=1.01;entryDx=0;entryDy=0;entryPerimeter=0;" parent="bjSVrxCcCOhVVrhVAQgg-1" target="bjSVrxCcCOhVVrhVAQgg-4" edge="1">
          <mxGeometry width="100" height="100" relative="1" as="geometry">
            <mxPoint x="192" y="520" as="sourcePoint" />
            <mxPoint x="192.05" y="440" as="targetPoint" />
          </mxGeometry>
        </mxCell>
        <mxCell id="_VUfvd7zScw78irFREDJ-17" value="" style="group" parent="bjSVrxCcCOhVVrhVAQgg-1" vertex="1" connectable="0">
          <mxGeometry x="386" y="270" width="290" height="92" as="geometry" />
        </mxCell>
        <mxCell id="_VUfvd7zScw78irFREDJ-15" value="" style="rounded=1;whiteSpace=wrap;html=1;fillColor=#a0522d;fontColor=#ffffff;strokeColor=#6D1F00;" parent="_VUfvd7zScw78irFREDJ-17" vertex="1">
          <mxGeometry width="290" height="92" as="geometry" />
        </mxCell>
        <mxCell id="_VUfvd7zScw78irFREDJ-2" value="" style="shape=table;html=1;whiteSpace=wrap;startSize=0;container=1;collapsible=0;childLayout=tableLayout;columnLines=0;rowLines=0;rounded=1;fillColor=#ffcd28;strokeColor=#d79b00;gradientColor=#ffa500;" parent="_VUfvd7zScw78irFREDJ-17" vertex="1">
          <mxGeometry x="7.631578947368421" y="4" width="274.7368421052632" height="58" as="geometry" />
        </mxCell>
        <mxCell id="_VUfvd7zScw78irFREDJ-3" value="" style="shape=partialRectangle;html=1;whiteSpace=wrap;collapsible=0;dropTarget=0;pointerEvents=0;fillColor=none;top=0;left=0;bottom=0;right=0;points=[[0,0.5],[1,0.5]];portConstraint=eastwest;" parent="_VUfvd7zScw78irFREDJ-2" vertex="1">
          <mxGeometry width="274.7368421052632" height="28" as="geometry" />
        </mxCell>
        <mxCell id="_VUfvd7zScw78irFREDJ-4" value="VLC" style="shape=partialRectangle;html=1;whiteSpace=wrap;connectable=0;fillColor=none;top=0;left=0;bottom=0;right=0;overflow=hidden;pointerEvents=1;" parent="_VUfvd7zScw78irFREDJ-3" vertex="1">
          <mxGeometry width="92" height="28" as="geometry">
            <mxRectangle width="92" height="28" as="alternateBounds" />
          </mxGeometry>
        </mxCell>
        <mxCell id="_VUfvd7zScw78irFREDJ-5" value="WPS" style="shape=partialRectangle;html=1;whiteSpace=wrap;connectable=0;fillColor=none;top=0;left=0;bottom=0;right=0;overflow=hidden;pointerEvents=1;" parent="_VUfvd7zScw78irFREDJ-3" vertex="1">
          <mxGeometry x="92" width="91" height="28" as="geometry">
            <mxRectangle width="91" height="28" as="alternateBounds" />
          </mxGeometry>
        </mxCell>
        <mxCell id="_VUfvd7zScw78irFREDJ-6" value="wechat" style="shape=partialRectangle;html=1;whiteSpace=wrap;connectable=0;fillColor=none;top=0;left=0;bottom=0;right=0;overflow=hidden;pointerEvents=1;" parent="_VUfvd7zScw78irFREDJ-3" vertex="1">
          <mxGeometry x="183" width="92" height="28" as="geometry">
            <mxRectangle width="92" height="28" as="alternateBounds" />
          </mxGeometry>
        </mxCell>
        <mxCell id="_VUfvd7zScw78irFREDJ-7" value="" style="shape=partialRectangle;html=1;whiteSpace=wrap;collapsible=0;dropTarget=0;pointerEvents=0;fillColor=none;top=0;left=0;bottom=0;right=0;points=[[0,0.5],[1,0.5]];portConstraint=eastwest;" parent="_VUfvd7zScw78irFREDJ-2" vertex="1">
          <mxGeometry y="28" width="274.7368421052632" height="30" as="geometry" />
        </mxCell>
        <mxCell id="_VUfvd7zScw78irFREDJ-8" value="CS" style="shape=partialRectangle;html=1;whiteSpace=wrap;connectable=0;fillColor=none;top=0;left=0;bottom=0;right=0;overflow=hidden;pointerEvents=1;" parent="_VUfvd7zScw78irFREDJ-7" vertex="1">
          <mxGeometry width="92" height="30" as="geometry">
            <mxRectangle width="92" height="30" as="alternateBounds" />
          </mxGeometry>
        </mxCell>
        <mxCell id="_VUfvd7zScw78irFREDJ-9" value="360browser" style="shape=partialRectangle;html=1;whiteSpace=wrap;connectable=0;fillColor=none;top=0;left=0;bottom=0;right=0;overflow=hidden;pointerEvents=1;" parent="_VUfvd7zScw78irFREDJ-7" vertex="1">
          <mxGeometry x="92" width="91" height="30" as="geometry">
            <mxRectangle width="91" height="30" as="alternateBounds" />
          </mxGeometry>
        </mxCell>
        <mxCell id="_VUfvd7zScw78irFREDJ-10" value="SMPlayer" style="shape=partialRectangle;html=1;whiteSpace=wrap;connectable=0;fillColor=none;top=0;left=0;bottom=0;right=0;overflow=hidden;pointerEvents=1;" parent="_VUfvd7zScw78irFREDJ-7" vertex="1">
          <mxGeometry x="183" width="92" height="30" as="geometry">
            <mxRectangle width="92" height="30" as="alternateBounds" />
          </mxGeometry>
        </mxCell>
        <mxCell id="_VUfvd7zScw78irFREDJ-16" value="Image" style="text;html=1;resizable=0;autosize=1;align=center;verticalAlign=middle;points=[];fillColor=none;strokeColor=none;rounded=0;" parent="_VUfvd7zScw78irFREDJ-17" vertex="1">
          <mxGeometry x="120.0021052631579" y="72" width="50" height="20" as="geometry" />
        </mxCell>
        <mxCell id="bjSVrxCcCOhVVrhVAQgg-21" value="" style="shape=image;verticalLabelPosition=bottom;labelBackgroundColor=#ffffff;verticalAlign=top;aspect=fixed;imageAspect=0;image=data:image/png,iVBORw0KGgoAAAANSUhEUgAABLIAAAE1CAYAAADzkck+AAAAGXRFWHRTb2Z0d2FyZQBBZG9iZSBJbWFnZVJlYWR5ccllPAAAA/lpVFh0WE1MOmNvbS5hZG9iZS54bXAAAAAAADw/eHBhY2tldCBiZWdpbj0i77u/IiBpZD0iVzVNME1wQ2VoaUh6cmVTek5UY3prYzlkIj8+IDx4OnhtcG1ldGEgeG1sbnM6eD0iYWRvYmU6bnM6bWV0YS8iIHg6eG1wdGs9IkFkb2JlIFhNUCBDb3JlIDUuNi1jMTQ1IDc5LjE2MzQ5OSwgMjAxOC8wOC8xMy0xNjo0MDoyMiAgICAgICAgIj4gPHJkZjpSREYgeG1sbnM6cmRmPSJodHRwOi8vd3d3LnczLm9yZy8xOTk5LzAyLzIyLXJkZi1zeW50YXgtbnMjIj4gPHJkZjpEZXNjcmlwdGlvbiByZGY6YWJvdXQ9IiIgeG1sbnM6eG1wTU09Imh0dHA6Ly9ucy5hZG9iZS5jb20veGFwLzEuMC9tbS8iIHhtbG5zOnN0UmVmPSJodHRwOi8vbnMuYWRvYmUuY29tL3hhcC8xLjAvc1R5cGUvUmVzb3VyY2VSZWYjIiB4bWxuczp4bXA9Imh0dHA6Ly9ucy5hZG9iZS5jb20veGFwLzEuMC8iIHhtbG5zOmRjPSJodHRwOi8vcHVybC5vcmcvZGMvZWxlbWVudHMvMS4xLyIgeG1wTU06T3JpZ2luYWxEb2N1bWVudElEPSJ1dWlkOjVEMjA4OTI0OTNCRkRCMTE5MTRBODU5MEQzMTUwOEM4IiB4bXBNTTpEb2N1bWVudElEPSJ4bXAuZGlkOkYxMDM5NTY2QTUwRDExRTk5RTBCOTFCODRDOUI5NjRDIiB4bXBNTTpJbnN0YW5jZUlEPSJ4bXAuaWlkOkYxMDM5NTY1QTUwRDExRTk5RTBCOTFCODRDOUI5NjRDIiB4bXA6Q3JlYXRvclRvb2w9IkFkb2JlIElsbHVzdHJhdG9yIENDIDIyLjEgKE1hY2ludG9zaCkiPiA8eG1wTU06RGVyaXZlZEZyb20gc3RSZWY6aW5zdGFuY2VJRD0idXVpZDplODU0NTY5ZC0wNWE0LWEyNGMtYTNlNy1jOTFiNjFkMGU4ZmQiIHN0UmVmOmRvY3VtZW50SUQ9InhtcC5kaWQ6YTEzZWM3OTEtMDMzOC00MWMxLWI2ZDAtNTJjODgyY2Y4Y2I2Ii8+IDxkYzp0aXRsZT4gPHJkZjpBbHQ+IDxyZGY6bGkgeG1sOmxhbmc9IngtZGVmYXVsdCI+aG9yaXpvbnRhbDwvcmRmOmxpPiA8L3JkZjpBbHQ+IDwvZGM6dGl0bGU+IDwvcmRmOkRlc2NyaXB0aW9uPiA8L3JkZjpSREY+IDwveDp4bXBtZXRhPiA8P3hwYWNrZXQgZW5kPSJyIj8+ugiBnwAAXP1JREFUeNrs3QeYFFW6xvEzAyqIeVTMorZZ15xzzgFzWrOuO8ZV1+vqmrOuWdu4iGHVdTEr5pxzDugoKGZsFTMoet/POsgIA9M93VV1qur/e57vFneF7qqvTlWfOnVCkwPwu1K5sok2pyjmDXg3hynOVpzU1tryC2cNAAAAAFAU3UkBECmVK6tpc4OiOfBdnU5xvKKb4ljOHAAAAACgKJpJAfC7fTN2TRzAKQMAAAAAFAkNWcAYc2Rsf6culStTctoAAAAAAEVBQxYwRhP7DAAAAABAuGjIAgAAAAAAQCbQkAUAAAAAAIBMoCELAAAAAAAAmUBDFgAAAAAAADKBhiwAAAAAAABkAg1ZAAAAAAAAyAQasgAAAAAAAJAJNGQBAAAAAAAgE2jIAgAAAAAAQCbQkAUAAAAAAIBMoCELAAAAAAAAmUBDFgAAAAAAADKBhiwAAAAAAABkAg1ZAAAAAAAAyAQasgAAAAAAAJAJNGQBAAAAAAAgE2jIAgAAAAAAQCbQkAUAAAAAAIBMoCELAAAAAAAAmUBDFgAAAAAAADKBhiwAAAAAAABkAg1ZAAAAAAAAyAQasgAAAAAAAJAJNGQBAAAAAAAgE2jIAgAAAAAAQCbQkAUAAAAAAIBMoCELAAAAAAAAmUBDFgAAAAAAADKBhiwAAAAAAABkAg1ZAAAAAAAAyAQasgAAAAAAAJAJNGQBAAAAAAAgE2jIAsb4PoP7/AOnDQAAAABQFDRkAWPcl7H9fbSttWUEpw0AAAAAUBQ0ZAFjnKp4NiP7OkyxN6cMAAAAAFAkTaQAGKNUrkyszVaKhRWTBLiLoxTvKa5ua235nDMGAAAAAAAAAAAAAAAAAAAAAAAAAAAAAAAAAAAAAAAAAAAAAAAAAAAAAAAAAAAAAAAAAAAAAACQiCZSkJxSuTK3NvMrmgPdxcFtrS0v1XhMU2qzrKJnoMf0teIJHdcPNRzTnNosqOgW6DG9r3hBx/QrVxUAAAAAoEhoyEpAqVyxBpF/K3bKwO7er9isrbVleBXHtY02lyp6BX5Mnyo21zE91snxWAPj+Yq9MnCe7Fg20TFVuMIAAAAAAEXRTAoScaDLRiOWWV1xRmd/qVSuzKXNFS78RizTW3Gj9rmzfd3LZaMRy6ygKHNpAQAAAACKhIasZGyesf3dooq/s7Fiogwd03SKlXJ2nvr63n4AAAAAABQCDVnJmCFj+ztFFX9nyhyeh5aMHY81JE7O5QUAAAAAKAoasgAAAAAAAJAJNGQBAAAAAAAgE2jIAgAAAAAAQCbQkAUAAAAAAIBMoCELAAAAAAAAmUBDFgAAAAAAADKhOykAgK4plSt2D/2Lol9ba8sPZAQAAAAA4kWPLADousMV5ykGlcqVbRVNpAQAAAAA4kNDFgB0QalcWVqbI/z/O6viasWj+t+XJDsAAAAAEA8asgCgRqVyZVJtrlR0G+s/La94Wv/9MsUMZAoAAAAAGouGLACo3emKecbz32x44c6Kt0rlyj6KbqQLAAAAABqDhiwAqEGpXFlPm72q+KuTK85VPKh/UyJzAAAAAFA/GrIAoEqlcmUqbfrV+M9WVLyof7sjGQQAAACA+tCQBQDV+5eiK3Nf9VJcXipX+it6kkYAAAAA6BoasgCgCqVyZSVtdqvzY3ZSPKbP6kNGAQAAAKB2NGQBQCf8hO3nNujjFlM8pc9cjswCAAAAQG1oyAKAzu2uWKSBnze94v5SubIlqQUAAACA6tGQBQATUCpXJtXm6Bg+uofiWn3+X8kyAAAAAFSHhiwAmLD9XdcmeK/2HlwulSuHkWYAAAAAqO4hCgDQgVK5MpU2/5fAV52g7zqOjAMAAADAhNGQBQDjt69iyoS+65+lcuVQUg4AAAAA40dDFgB0oFSuTOaiYYVJOknf+3eyDwAAAAAdoyELADpmKxW2pPC9p5bKle1IPwAAAACMi4YsABhLqVzprs1BKe5Cf+3DypwJAAAAAPgjGrIAYFwbK2ZJ8fsnUtxcKlfm51QAAAAAwBg0ZAHAuFoD2AdbMfGmUrkyOacDAAAAACI0ZAFAO6VyZV5t1ghkd+ZR9NM+NXFmAAAAAICGLAAY218D258tFAdwWgAAAACAhiwA+F2pXOmmTYgrBtpKhktzhgAAAAAUHQ1ZADDGmorpAtwvW0XxqlK50otTBAAAAKDIaMgCgDG2CXjf5lacyCkCAAAAUGQ0ZAGA+21Y4STabBb4bu6r/VyBswUAAACgqGjISsavpIDzgOCtq5gi8H201QsvKpUr3TldAAAAAIqIhqxkfJyx/f2yir/zRQ7Pw+cZO54Riq+5vBpmk4zs54KK/ThdAAAAAIqIhqxkXJ2x/b2mir9zk+LHDB3TR4qHO/k7/8nYefpvW2vLL1xe9SuVK9bTaf0M7fJR2udpOXMAAAAAioaGrGScrzjbZWNo2w2KQzr7S22tLe9rs4WikoFjGqzYSPvcWcNbf8UpilEZOKY7HL1yGmlRRe8M7a8NgTyK0wYAAACgaJpIQXJK5coM2szjwm1AHNLW2jKkxmPq4RsBegR6TN8oXtRxjarhmKbTZv6Az9NQHc87XFENvTYP1ua0jO32T7brvlEZ4DouVybVZmJdE1+RDQAB36umtN9w3au+JxsA0DU0ZAGgUlmu3KbNBhnc9X6qCO/GGURBr9vltNlasZJiPsWk/j/Ziwtr4H1KcbPiBl0nI8kYgBTuU/ZS1KYu2Fxhqw7PoRi9YMu3itcUDygu133qTTIGANWhIQtA0SuZdh+0BQ6mzODu2wP7nPTKQsGu2SW0OUuxYpX/5BMXDcW9RNcKq9cCSOpetbE2ZyjmqvKfXK84kN90AOgcc2QBKLp5XTYbsUw3xQGcQhTowXB/bZ501TdiGRvWf5HiTv37qcgigJjvUxMrLnZRj9C5avin1mvrJf3bDckiAEwYDVkAim6ZjO//nqr0TsFpRAEeDo91UU+s7l38iLUVj/h5EAEgjvvUxC7qWbVHFz/CGttv1udsTzYBYPxoyAJQdEtkfP97KXbkNCLnD4d/1uaIBnzUQv4hcSKyCiAGFyrq7VFlz2eX6T61CukEgPHfKAGgyBbKwTHsxWlEXulhbkZtzm/gR9ok8f8gswAafK/aUptdGvRx1th+NT2uAaBjNGQBKLoFcnAMC6qyuxSnEjl1uGLyBn/mobpmpiW1ABrBDyk8vcEfO5Pi/8guAIyre6g7ph+ElbXZRNES6C4OV9zV1toysMrjsUr4rv6heZIAj+dnxbuKy3RMH1d5TLba2wYumnck1DdGwxQ36Zgeq/KYbJjWzoo/BXqebJW6IYr+OqahVR6TXef2ltCWqJ80wGOyVcQ+VFyrY3o14fvM1Nr0zsn9fAfFM/ysIWcPhz39PbnR7HN3V5xMlgE0wGaKWWP43FabH1D1oxGkGADGaAq04nqYNidkJIfn6sdlv06OZ3ptHlXMnYHj+VKxqo7p5SrO0yX+QSALDtYxnd7J8UyjzSMuGz10vlaspWN6upNjskas2xTrZOCYrDF1Ox3T/xK81yyuzXM5uZ9/qphJ+fuFnzbkha7R9bQZGNPHP6nrZTmyDKAB96obtOkb08dvUO2LcwAoiuCGFuqHYE5tjs1QDvfVPndWET7KZaMRy1gPlbOrOE82AeXuGTpPJ2ufZ+7k71j37awMM7MecOdW8fds1Zt1MnJM1uh2oc5Tkj3hZsvR/dx6lvFQjrxZOsbPXsI39gNAvZaP8bNXJL0A8EchzpG1rKJbxvLY2Q9M1lYdWaFBfyck3at4yM/aeVpaD2E9clb5sV5x8yb4fXlqyDKb8rOGnInzGrXJlGcgxQDq4aeliHOaghJZBoA/CrEha+IM5rFXJ/99sowdz0Q5PU+dnYceGTymHg04l0W+L02fs3v6Og7Il2li/vwWUgygTtNl/D4IADwwAkCG5O0hduFSudKb04ocacr45wNAvRgCDQBjoSELQJHl8S3napxWAAAAAHlFQxaAIpskh8fEhO8AAAAAcouGLABF1iuHx7QspxUAAABAXtGQBaDIJsrhMS1aKleYTwMAAABALvGwAwD5YiuK2lLdb47vL5TKFVvBcxYXzRE2lWJqH5O7McMt7c/dFL8ovvb/28+KL9vFF4oPFR+3tbaMIvUAAAAA4kZDFoAiG5nT41rM98qa20WNWvMoZlfMqphJMUWDv2+Uvu9jbQcrBile9/F8W2vLMIoZAAAAgEahIQtAkX2f0+O6OuHvs55bs/hYqf1/KJUr72vzlOJhxYOK19paW36l6AEAAADoChqyABTZD6QgdrP52NL//5+VypXbtb1FcVdbawvnAAAAAEDVaMgCUGQVUpC46RW7+PiuVK7cqO2VinvbWlt+IT0AAAAAJoRVCwEUGQ1Z6eql2EFxl6KtVK4cqpiatAAAAAAYHxqyABTZx6QgGHMoTlIMLZUrpyqmJSUAAAAAxkZDFoAiG0IKgmO9tP7uoh5aRyomJSUAAAAARqMhC0CRDSEFwZpScYzitVK5si7pAAAAAGBoyAJQZO8qRpGGoPVR3FEqV85TTEw6AAAAgGKjIQtAYbW1tozUZhCZyIS9FQ+VypUZSAUAAABQXDRkASi6l0lBZiyreK5UrixDKgAAAIBioiELQNE9TwoyZSbFw6VyZTdSAQAAABQPDVkAiu4RUpA5NlfWYaQBAAAAKB4asgAUnfXI+pE0ZM51pAAAAAAoHhqyABSan/D9MTKROVeTAgAAAKB4aMgCAOduIwWZMqitteUV0gAAAAAUDw1ZAODcHaQgU+iNBQAAABQUDVkACq+ttWWQNq+TicygIQsAAAAoKBqyACByLSnIhPvbWlvaSAMAAABQTDRkAUCEXj7ZUCYFAAAAQHHRkAUA7rfhhe9o8xCZCJoNAb2RNAAAAADFRUMWAIxxESkI2oltrS2/kAYAAACguGjIAoAxrlcMIw1BekVxFWkAAAAAio2GLADw2lpbRmpzFpkI0qH0xgIAAABAQxYA/JFNJv4taQjKrW2tLQNJAwAAAAAasgCgnbbWlq+0OZ9MBOMHxb6kAQAAAIAJsSHr1wzm8edO/vtPFLUgdHYesjhsiaFW8ThZMZw0BOHIttaW90gDAAAAABNiQ9a7GczjO53897czdjyDc3qe2ur876EZpgf8rxtwLkNiDdkfp15Qol5ZJ/MTkbqHFWeQBgAAAACjhdiQ9aji8QzlcJDipk7+zmkuWz1nTq3i7wxw2WrMul/xdCd/50zXee+6rJ2nSxVfZuiYLmtrbfk0kH05WzGEn4nUWI+4HZngHQAAAEB7wTVk6aHFemRsoOinGBb4Q9a1itW1zz90ckwPaLOh4lnFyECPxxpw3lLsqf29sIrz9L02qyqud2EPwbIyZMfT15etCR3TE9qsq3hGMSLQ4xnloh6ANmfQ6VWcpw+1WUVxt+K7QI/JzssHihMVfw3oXmTX9f78TKTmrwwpBAAAADC2JlIAAB0rlSvdtXlRsSDZSNT5ba0t+5AG6Bq0Hs+bxPgVi6msvUimAdRxn+rj4p3K4SHdp1Yl0wAwRndSAADjVErt3ril4mjFPGQkUTYv1oGkAQAAAEBHaMgCAK9UrkynzS4K6w00KxlJnC24sFlba8tIUgEAAACgIzRkASi0UrnSU5v1Fdu7aC67ichKKmw+u/XaWlsqpAIAAADA+NCQBaBwSuWK9bZay0WT+1sjVi+ykqqv7Vy0tba0kQoAAAAAE0JDFoDcK5UrvbVZRrGaYh3F/GQlGNaItXZba8vzpAIAAABAZ2jIApArpXJlBm0WUCyuWNrH7GQmSKMbsZ4iFbFcC7YysV0Psyls/repfUzTrg4wmWK44lfFCP9ni88VHyo+ZrhnYcpLszYzumh+wOnalZWp/F+xYdc9/XVrbC67LxRf+rDy8r7KyzdksxDlpae/t8zsy8k0vsz09H/Fejr/ovjB//9WLr7y8YniIwuVlxFkE3WUwx7aLKFYxN+3Rt+jrIf34ypfH5Cl33PVTZve7a5V207sxh2V8K2vD3zp7/EWnyqXv5LFmutgtur5kv531epb3/vfSlst+QXldFTA+z+9rxPMpGjxdYGpfN3RytKk/r7+sy8zPym+c9FUIRYfKz6L8x7fRDEDkLEfhkm0md7/KMzRLuZ1UQPW1GQpEz5VrKUfuFdIRUOui7ld1Gi7sL8OFvAPmY2Y8230Q8EgxUs+ntW5+zyB47pJm01i/IrFdBwvFrByPW+78jK/Ly+zusa84LSG0LcVr/mw/D6lPH/NlZrJ8mIPuYv7xoIFfVmx1XynbdBXDPXl5Q1/b3lO8YrKy08ZylEfbQbH+BUPKR+rUhr/kHOr9x2q2EYxxQT+6jOKcxTXhNxo0ODcTOuv1/n9NWv3+9l9g0RX7/H24sIaBd/z1+rr/v7+HC8vxsm/lcd9FXv6etj4WENPP8UZyuEXKe7vdL68LOaiBmErLyUXNbw1wle+7LT5eMXf59+s95psqvIA7YDW8gc5u79h0JsLQJLsLcDUnVRYkA1vumhi9yGkossVj4X87/IaiuXcmF5WSbKGrUcV9yruiaPnFg1ZDclhk6+cji4vyyqmTHg3fvXX/YO+vNyvvH/FlRxkebGGq1V9eVnFRY2d3RLeDXuD/6TiIcV9iscC77nQx9GQlVSurQfWUYqDXG0vauzB+c/K4xs5zMns/nq16TNsGo25Er63W6PWE4oHfF1gWIHL50baXOyi3vDVsrrTPsrbtQntoz1Lra1YU7GSixqu0vBduzrkXV15sd3UScVnC8XBLnprBwBAve5RbK0frC9JRU0VD3uQXF6xlaKvi4bzhMQqszZEdIDiBp3fwQ06bhqyupa37r4RYkvFpi4aThISG3L2iOJ6C52Dj7jKUy0v1st5Y1/vX92Ft3qvNXre4cvLbaENR6QhK7E820P3pS7qEdjVB+e+yuU9Gc+DPaMv469Xu27nDmwX7Tf1Bn9vf71A5fNwbY6v4yNOUhwexxBO7Zv1xtvc1wlWUDQHmMI2f4//t3LwdjX/oGk8B2stuZf7AwUAoBFOVRxWlO79Dap8WIV9F8VOLpqrICseU/RX/LeeYQc0ZNWcLxtGsqvizy6aLyYLrNJub/L7+QefH7nyEykr1li1kb+/rOeS73XVVV/7h+RLVFYeDySXfRwNWXHmdwr/kN/agI+zOdvWDKXs1JgHa7Da2d/fZ83Ibr/p7+1XKuef5LiM/p82Jzfgo05Qnv7ZoH2yqVjsxeduLuqNnaUppe62Zwbl4r4J/aWmDg7alqP/n2vcuEgAQLFZt+md9IN0O6moqvJhb8rWVxzooqECWWYTgPZXnKfzP6gLuaAhq/McdfOV1QNc9l9AWs8b63Fxjs7LUO4GsZSX6X2DgMV0GT+cV100/9GVaTaA0pAVa27tt/BC19iGG5tse5EsLGTi6wPWq3Y/F/WyzSqbEPw2xZnK+8M5K6O2Grr1GG1UQ9EWytH1dezPLP7+/heXzrQTjWTDDg9SPl7u6D82dXCzsErjRA4AgPrdpdiVoUNVVT5sONgOin+4rg+dCNWvvn5hbxufqyEnNGSNPze22pT1vrI3wX1yVl6s1+Z1iuOLNDQl5vJikw4f5qIeHZPk7PA+swdkFzWYf5tCbu36oyGrsTm1VdLO8r+JcbAefXtm4P5+iIsWNMoTqwP8y+7xOge/ZLyc2iqZ1utstgbfz+ZRbobXuC/zuWgBhO1dvuYyt4UGjlWcopz83P4/NLU7eOuO/rSLllIEAKAe9gN8gH50+pOKTisfzb6yfqRLdpLWtNzqoiGmr1aRGxqyxs1Jd/+AY8MPZs15WbEGUJsA9widp3e4W3SpvNh8ekf4MpP3F9XWw8aGsJ+r8vJDgjnu42jIamQ+t9bmPNe4lTE7Yo3l84Z2X2nXgHVYAe7v9pLC5pW6OY55oRI6X7Y64TkxfLTVkU6qch9shUFr6LEVPJtyXF5suOFW7Rv4mttViq50NGIBAOp3pa8g9icVnVZAVnTRSySbl3Kughy2zcvzso69n6I3paCm8mIrU72guKgADznOV8q3VbyhYz9NMRWloOqy0lNhjeNvuWiISRFGW1gvnlN8edmaUpC5Mjuz4mYXNV5PG/PXdfPXRUjHv6GLhsteUJD7+wKKGxWP6diXzegx7BrT5+5eRXmZRmENvq/738mmnJcXW2nxUR3zdO0rCJYIu5Av5BYKAKiDrVpnY9kfIxWdVkDsh9iGTWxX8FTYxM22lPq5HS0CQI+sMQ94liMXzYVVZJ/7e8wV3EUmWF6ssfj8gjwMT8iDir+ovLwVc777OHpk1ZO/Jv/gfppiygS/+m3ldZ4Ajr/kr9e1C369XqU4UOdkWEbK7QzafBzjV8ytXLR18L3WEcmGxZ6omLqA5eQZxUq2em2zv3kcys8+AKCL3lBspliORqyqKj87+pxtRzacrUZlc9s8qbwsRDrGfcDzLxvtjWtfMvJbL43LlZN7FHOQjnHKy/QK681yi6MRy6zqot6fh/nRJwivzFpP5PsVF7tkG7F+ayjwKyKmdezdFTYHlk1kvTal4bcpFt70daQsWDjmz1+kgzJj9SRbcdN67U1d0HKylIuGpP42tHAll79JQgEA8XtWsYViobbWlhuzOsdBgpXWFoV1o7dhhC1k5A+WVLyg/BzqV+GjvJQrM2pzp4t6zE9BRv5gTcUrytEupOL38mK9sF5TMKTuj2xi+xMUD/tGE4RRXrspDrLr2EUNjmmZNaXjt15Y1iBhQ2F7UiJ+Z6vs2cuK2/0KqyGbOebPn2Ws68Uab2yi/GUoJu4g5WNaa8haj1wAAKpkK4YMUKzR1tqylC0RnPVVZxKqtK7uoreum5KN8bIeEza56f1++egil5cNHG/pO9NLYfOsDVBMXeCy0kNRdlEvrGkpFuO1nOIl5Wp7UpF6mbVeJU+4aOW6tBtxJkrh+K0B3oa0L0VpGK/1Fa/638JQTRbz54+eAqqPNg8pjldMTNH4jc3rvq1VGpckFwCATtjywjZ/Qb+21paPSUfVFVariNjQAZvLoJmMVGVlF/XO2raA5cXKyDEuWpEQ1dlcsbhy11f3ppcKVl5md9GLBery1bHGz6uUt+W1/ZvKy0hSkmh5td5xh/kIZajn9wkefw9trNGZnqTVsblEb1PeTrbfxI7m0UxZ9wTKjM0R2l/BQifjWs8qTMwxAADoiE2Qa0uZ24TY8ytOoBGrpgqIPTT9T2GVMBqxamM9S+5SrFig8mIV1dsdjVhdYXXZJ5TDHQpUXlZz0fBuGrFq16p4IANDl/JUXm1VOhsWdaQLpxHLfJjQ8Vuj8yOORqyusLm877LpGQp23HsobMEbGrE6tojdSJh3AQBghitssva7Fbe1tba8Q0q6XGm1+Y1uUyxONrrMGv9aClJe7CHnDsX8nPYusyFKVyqX89rDcp7n7NMx7uyiybEn4rR3mfXKesqGLqmsvE46YiurNgTIeiTv68J7ofOOzv13CeRgCRe9pOhNieiyNRRPK5fr65wNKsgxL8Bpn6CZ7IbCWEsAKJ4Riudd1GV5HxetjjKNKghWqT+bRqy6Kq1W+XjS0YiF6h9ynnI0YjWK9Wiz4WMT57S8HK3NZY5GrEbo46JJ4JcmFbGUVVuUwRYg2N+F2Sv5ngRysKGVMUcjViPM6aKet6uQChjrkfUTaQCA3PlK8bniC8UnisGKIYp3FW2Kt9paW34mTQ2vtNrkrQMdky6juvJi84Hd6ugd32jbKaZTfjfVfe77nJQVm2/vfMVfOb0NZb0+b7XGLJWV90hHQ8qqDYU6XbFr4Lt6Wcx5sIUFrnBMLdBItrDHPcrtlrpebyYdhfaTNWR9R4UbADLDVnAZPQyih4+v/P//o49vaaRKpfK+gosasWiUQDXlZS1trCLO0uvxsPze7YeODc94WemmzaWKnTmtsbC5sqwX3yqswlt3WbWVeS9QzBD4rg7UuX46xjxYg3OZEhEL6416g3K8o87hf0hHYbV1JwcAkBnP60d7IGkIsvJuS7vbMAUaJVBNebEhN7c7hofFzRqXrTFr7aw2ZvmVLK1Xx3aczljZwhJbK64hFV0qp9Zwda5iiwzsbkWxV4y5oBErfnZftMbnSXVvv4R0FNLjdHUEgOy4gBQEWYFfRps7HY1YqK68rKrNLY5GrKTY/Ee3+kmns1ZWRg8npBErGQeTgi6V051cNBdWFhqxvlZYL82hMeVid0cjVpIu9EM4UTwDaMgCgGywyhdvisOrwNvE7rY6IcMJUU15sYndGU6YvJUs7xmcAN7mGdqL05eYxVVG5iYNVd/PZlfc5aJFY6bJwC6/olimrbXlqZjysY02F1EyEvVbj1WbM4tUFMobirvt5H9DLgAgeFcksUw0aqq0zqjNHY55JlFdeenjouGENHqmw4ZzXuJ7OWWhvOynzd84bYlbmRR0WjabFfu6qBfW2hnYZVvY7BjFUqpHvRlTTlZ1TOyeFsv5lToHK5GKwjjU5jO0Ez+KXABA8BhWGFZFfjIXNUrMRjZQRXmxlZas0ZMl2NO1o3+gDb289NXmTE5XKuYlBRMsm/Np84jiHEWvDOyyTei+uB56j1aMiCkn1jP7Jsdw8TRN4qJet/ORitz7j65lm57B2WTvP5APAAjaQ7ppv04agqnIW4+O/orFMrC7tnrlIIW9hR6i+EDxueJbH/bfbeVLG+pmQ0Osd9nsirkUCypm5ozXXV5sxblrFVmoYFvPhTd8mRldXmxiZOsNaj34R/my0r689LHD9OVlhgwc4xE6Jy/rnjog0PKykDZXumz07PhS8bLiHcV7ik8VX/hni2/9w6WVlan8fWYOxZw+rMEoxIaQqblrdVgurZHmELt+/HkNnZXBwxXn6FofFWNe7D5o0wtMmZFTadNUDPb396H+/j56xWvnxqyGPZ1iVl8fsOt1sgwcm127t+mcWM+7L7lq62bXTZuLVkofXR8Y5usC3/n6wlT+Ht/D57+3LzPz+DpPo6dRsIbpPUf/P9aQNYLzBABBu5AUBOXvis0D3Tf7TX/IRSsoPuailS67/DuvCqE1VCyvWEWxrmIBTn/NjnPhDr+xh737FfcqHle8oPLyUx3lxSqxK7QrL/MEetz9ta9v6lhfDayxwB4ErGdHqD1d7MHXehY+aOVF+XuvjmO1Z5BF/P3FhvOtF8hx/8Ita5xzZXP7/dufryy4T7GHyufgmPNiLyls7tI5As6FDf+82zcAPGcNE8rLrzUeZ7O/l1s5WM7f2+cK9Hhtv67WPm8YZwNmTtlv/6O+/mjbZ5XDH+q8PqwxyxZcWcNHPS+7rCfoRtqn70f/D/Yj8jXnDQCCZW8/biANwVToV9PmpMB2yx68Bir+o7hNP/LfNuqD9VnWe+sWHwfp+K2SuK3izwE3UoRUXjbR5h+B7Zb1wrMeBFdZuamnotpBefnU369u8Mc/X7vyEtLDnjWY3KD9W7yR10udZcV6el4Z4APixy6a++d/ytVzDSwrP/sHa4tzdfz25n59hU3avJlLb5hWhTvX72XSelnYUNyDFN0ysMvDFQcqLqu1saaLjnZhvqR4zNcHblce3m/AtWp1jDd9/MeXDVsUYWN/bw+tgXNdf26O4CrulF0ntmDD1VbP07ke3sB7vDUkvubjMv8bZ41atrrpDq76Rq0ffb37RP+78bsmfai1JG/DeQSAINmN+3DSEESlvsVFw2hmCmSXrOv8+YqL41pKvJOH7lX8Q8OGVp/I6GldTLl7MaYc2bDMlxQtgRyrNYqfq7hEx/xJwuXF3uiv5ctLSA9+/ZWLXQK5v+zjz08oHnbRPF23jf3wkEAubCENy4et2Jj0ani76Hj717i/fVw0XCsuNr3AqgmfA+sld6kiK6s43qhoTere5l9q3RfQb581wF7soka8txMuK4tqs4diZ8WkgeTDGt9WVy4eivG4D3DZnctwuC8v59fTs7aO3FnD+Hq+zFjDY0e9ca0cX+f38eOOPscasi7RdnceUQAgOPbwMIdu4B+QiiAeNK2ivGkgFdbT/I/7twHkxYYbHqXYKoOnNZaGLN9wY93zVw/gGO3B7hTFRY3sfVVHbmxuuaNd9DY/BFsrL9elnJM/uWjoTwhzD9nbeZsY+8kAyoo9FNvqjYe65OYgmlvH3lbjfvZxOWnI0rHYqqonK/6akXu49QLdW/m5PsFyaY2r9lIrhDkkh/r6QL+0V7b2UxHYapZ7uzBe4Hyo+JPy8kVMx5vFhqwv2tUfvwmkbm29b22OTZuTzRq4rJHtzfE1XrVnQwu/dQCAEA2gESsM+qG1btBpN2L95CtNJ6hcBDMtgF+IYGvl6FRtz3bRHElFZw+BaTdiWXd8OyenhTJ8zpeXF7TZROVlBV9elkh5l8ralwe0X8NSurdYXfwyl34jlvUePEB5eDCgsmJzoZysHFnPoKP8dRXnELeXam3Eytnv3AYuWiF51ozscn/FgSlM7H2eS78R6yvF8YpzdfwjA7lebSqCo1SOrJ5iIwmsEXriFHdpZv8b82eqJL/VH8/29cevQtoxPy/niz5q0uwvBABAeFh+PYzKva3ec1bKu2HDfBbSD/7/hdSINVZlxOa6WclFXcW/KHB5mc2lP4+aTe47v87JUSE1Yo1VXmweF5svw97ep/lmuMVX8NNiwy0XT/H7rXzsb/sQUiPW2A/ICuvpsZSLGtz4zW3sPWtahc2ZZ3PnZaERa4hibRsWnHQjlm/s2zbl47fGxrl07KeH0og11vX6lcIWxZnfRYtDpGkHnbP1Cl6NtUnSrWfa30NrxKpXc5ErmwAQMFsR6mnSEIQzXXrd5G3FQXuruarKw1uhJ8om2FVc7qJu4gMLWl5s3rLJU/puG1piq3WtoxiSgfLyi6KsPy7kotU207KtHnbWSaEBwZa1PybF4x7dQH6On9A59PJivfmW8jlr9Lxdz7hosv1CURm0Rpk3FNtnYHetjJ7ty+w9KeRqMhc1IqXF7uk271NrXMPlGny9vquwBRx2dem+rLhI566XKx6rP9rwx1V0Ht7M4wHSkAUAYTqLFARRyV8+xQq+DXFZShWQcxNagamRFVibl8kmgbfeJqMKVF7W88edBlsZyHrVXJq1vPmVtWxpbhs+llZZP9vP1ZGk0xU9UjhWy/HR/qH4vYyVlZ8Uv+27i+Z/awSbk2X7LDTmNfBeNbPCVqO11cqmzcAu2/1tBZ2jA1KcC8qGy6XVY81WC1xYx/5ABu/vNnR6YcWzKe2CnbNDC1Z9fUextHJ/dtbqj7WwhqwvHQAgJPZgcSNpSL2ib7+RaQ05sgmXrRHrlazmz/fOst5sa7oCvDTzjSBnpPT1NyiWyUKvvQmUl1GKY/XHjVw6b+/nddEwx6TKizXEpDHvnuV2Q+X6GL88elbLiw2XsYUDHqnzo2yo9sZJr/SW4n3KFvra00W9sDbKwC7b/DnWA2+JNBcgUM7m0OZvKR3/vjr2HUIdJl7l9Wr12hUV/VLahYP9ogxFYFMLLKmcv5z3A6VHFgCE57yklztHh2wVviVT+N5/KzbIy1wGft4d69k2OOflZTfFfCl8rzUWbpn2ilUNLC+3a7Oy4qMUvv6fftW22BsTXNQbK2m2iteKyvHAnJQV65FlPflsVc6u9KZ610XDth8uwg+ayt3c2tyvuMilN/y5Fja9gvUytVU0R6S8LzbvYdILMlgjqw0TPy8n1+sIhf1OHpTC11vP1xMLcJnnqv7YGWvI+pxnFQAIhj2MXkIaUq/w20pix6bw1fZwu0eWe0qMpwI7yDdODMppeenpomEnSTtSuT0wb0OidDy2etEqivcT/mqbC+/ABL5nE8WiCR+bDTVZKW9v6f1QQxs2ZHNn3VnlPxvu7+8L+3m38v571k1xsIsmyl81A7v8g78Ol9f5eTWA/C3iohdbSbLn89WyOJSwimvWei7v4rrW+FyPbXQuF8jxpT66/liYF+FWUf/IAQBCcZl+hIaThtTtoJg74e88S+f+4LwmVMf2gSqR1jhhq9XNlbPD+4tiloS/03opHJfj8tLmy8ujLtml7g/Q954V1xttP2Q56fNmjVjW8+iDHJeX57VZzw8Bs4n7bRhTHxfN/zTSNwy8rrCGgYH6+z8U4YdM+bC5iWyOoiUyssv3+YfxkHrw2tDGpgS/z8rqClkeKl7F9dpfZdOGOV/noo41SbBzeKRimxym9Mw81x/Hp7sO+nsVpO/150l5bgGAVNmEjEzynn7F3yo7hyT8tbbS34F5z63qHJ8qv6vpjzbXyUw5KS/2UjDpoRK2ytwxBSgvQ/xcUk8opknoa6e0B2nFaTF9vq3itVCCafxMsW6eG7HGKjPWAHKhjyL/jtkwOOsl+g8XdVwI3XD/G3hZSJNT+x48myT4laOHE75VgGv1ej9fW5ILlGyl7zwyZ/nt79IZrpm60S2g9MoCgPQN0I/rO6Qhdesq5k/w+x5U7JnnlWXGqrwOddHKft/l5JC2dMn2xrrVFaDRs115ecs/SI5M8Gv39Q2UcUjy3FmvI5svpY3benGo7C6rjfVQO8JloxHLFreZT+W0X4C/g0lerzax+ya+d2FR7u82p9M/EvxKe1G5f45SaHPe/aUo9cexjW7IGsZtHwBSdwopCEKSKxNZo45N1D2ySAn289LsQnmpmTXqbJ+3OdSqKC82vHDvBL/SlmvfLIYGBltlb7UEj2N35e5Zh0JQ+eplw2L1x8cVWZgL6FPFFiqjm/mJ+0PL5/QummYgsd8SvzhKoeiYT9bmmgS/cmed22lykDpbCXKrotUf2xvdkPW+AwCk6R79GD1HGlKvuM6pzZoJfZ01RlgjViEXXdFx/0+bczJeXmwS4KUS+jpbtcse+L4paHmx4SeXJ/iVe8TwmbsnuP8XKGdXc1cvzG/XWtrYxOjW26QpA7vcXzG/DS8LeB93csmtVHi5cnF+gYuw3RtfSui7bDql7TOeL5vQfWuVmUqR73ujG7KG8hMAAKmiN1YYdknwIeAYVUKeKni+bS6yLK+itluC3/V3lZfXCl5e9nHRxOVJWKNUrszWwIaGHgk+PL3hCjpnStGoXE2lsMnc73bR5PahG6JYW/eyXRRfcn//jQ39bS1yObY5u120MmRSizBkvUf40dQfacgCgBA8pR+k+0hD6g8E1oC1Y0Jf96LipKLnXOXeehnt7KLeaVkrLxO55BomHlGcR3lp+TbBB5BG3w/6umgi+bjZkva7FGVVvoL/Ztnw1zf9PTR0Vi7PViyksnlPBnK7vDbzJvBVNrfRrr4hp+j3dxs6f1hCX7eYzvGiGU2VTc3Ay29HQxYAhOBkUhCEZRSzJfA9VnG1yd1/JuW/z5d1egZ3fQ2XzEp6Vk4KO5lrB+XFGvUuTujrtmzgZ22R0D5fwJv6fNMD+AyKAfqjDcvrnYFdtp6kK6hcHqDIyiIfWyf0Pef5exoiNt3Aoxm8vyfF6gF7UH+MMEcWAKTLeubcTBqCkFSlpr8qIc+Q7j84XvEJ5aVD56u8vEER+QN7a/9VAt/zp1K5Mle9H6LPmEyb9RPY3y9ctFIdckplaWdtXldsnoHdtYftYxVL6B72ZIZybL0x+ybwVcMVR1Oqx1A5sZ57+7qowSZum2cwRZcxn+4Yoxuy3iUVAJCK4+hpEYwkKq4/Kg4n1eNUXr/J0gO4HnSs/rQJDzqplZeKf0DOyn1hHUWPhH5PvqSE5I/uOX0UNg+WzYc1dQZ22V7WLKbyeJQfQp4ltoDHrAl8zwnKzReU7nHu7/aCN4mFPebVNbVghlJj9cd/UkLGaPYFxn70+OEDgGRZL4ubSEMQDwnW62KOBL7qIv3mfkzGO9TfJTeRd70WU7Qk8D1nqbx8RdHo0IWKJK6ltRvwGesksJ+Wi4soFrlkD9u2IuFaGdhXm5vNFhpYTveuVzOa73UT+I6PHPMeTog12IzMyP09sd886o9/1Nzuz++QDgBI1LG+GzXSl8SD5k+OCTrHy8/5cBLl5Xc2l8xZlIzxlhd7YP5XAl+1kl9xsB5JNECcwQTvuTWtolcG9vN+F03mbmVxVIbzncT1WuZ6neD9/UNtrszJuW5U/fE0SsYf0ZAFAOmwyU+vIw3BWC2B7/gPb9M6ZRXXTygvv7mU3lidsknf486RNWIt39V/XCpX5tSmT8z7aENz6Y2FtNgQ6N0Va+qelenpanS9WoPhsjF/zY9cr1U5I4HvWFXnvHsGcnG1rq2PKBJ/1L4h6y3SAQCJ+Se9sYKyXALfcQFpnjBdEzaU4JLAH3Ss7rQM5SWI8vKtS2YulWVT+rfVusrPMwckzaZHmF/l7985me/T5seKu2Hjv8rV5xSdTu/vtqjB3TF/TU/FohlIR5kSMa72DVmDSAcAJIKVCgNSKldm1mbmmL/mZVXKnibbVbGGrJAfiOZXTB7zdzys8kK9rPryErd6GrqTaMjqRzFAwj5VbKn7VN+c9TRO4iXFtRSfql2RwHcsHXgOXqP+2LH2DVmvkw4ASMRhrFQYlKUS+I5rSHN1dG0M1eYxyguqLC82TPvlmL9myYDLS5ty8CwlAQmyXpALqNwNyOGxxd2QZYur3UcRqpq99P0+5u8IvSHrvxSDjrXvOmlv/uzBqom0AEBsnlDl7w7SEJQkll8eQJprrritWNDyYnWxGygCNZeXP8X4+TOUypVpuzgcKO7ywr0FSdpc10Ge708Lx/z5NsH7JbqfUJKqZ0PIJ43x8/8U+PFfTxHo2O8NWbopfa+L6n39cXbSAgCx+T9SEJwFYv78t/Qb20aaazJQcW5By8szKi+fUQRqLi8nxPwdCykerOUfqF49m4t/GCovRpCkPVWub9U96qe8HZhfnXTOmL9mJsVOFKOgzGdzXwY6b+17fq4wdKB5rP//FVICALG5TT9Ij5CG4MTdMHEPKa6NX/nqHcoLqvSSYljM3zF/F/7NPDHvk/XueJzTjwSto7hYD/55HMEzbwfPxsg/m/A91I4893J6xq+5g4oAAKDx7E3PP0hDkGaL+fMfJcVdEtw8WX7FwlkoL2Hxcw7GXV76JPRvamG9936mBCBhOyuOoy6AHAm1IYsXFRNAQxYAJONyPXC8ShrCUipXemkzTdwPm2S6S54McJ9mdPEvzU556Zq4V3XqyoPOrJQV5NTh+v38a86OiYas4gr13HOPnwAasgAgfj8qjiINQYr7QfM7xbukuUtCnO4g7sruR22tLcwCHGZ56dOFfzNLAa8RFMd5pXJl0xwdDw1ZxTVLgPtkvW3f5NSM39gNWW2+0g0AaJzT9HA6lDQEqSXmz3/LD3tC7UKswE1TwGOmvHT9XjFdzPs0iNOOlJ8jry6VK8vn5Him5ZQWVu8A92lwHhdVaPQN6Hd+tv7nSQsANMzHilNIQ7Cmjvnzh5DirlGd5HMX3su1uBuy3uPMd5mtvB1no3FXGrK4vyDvbKLsW0vlynzUB8C55/6epI5WZniatABAwxymB3J6uoYr7oaJj0hxXT4sWGWX8tJFus+OdPGuXDi1Hta7BXR/+VXH/AlnHoH8jt6p62PGjB9HC6eSumBAqA90oqOGrGdJCwA0xHOKK0hD0HrE/Pmfk+K6fBHY/vSkvBS6vExe49/vVaBrA8VmiyEMLJUrU2b4GKbkNBbWZAHuE/NldqKjhixmxweAxtjfD9lGuCaN+fO/IsV1+Taw/elJeSl0eWnm2gDGa1HFgFK5MjGpAOr2DSmo8QdZD13vuHi7ZgNAEVyp++ljpAGoC8NyEVJ5maLGvx9nj6yfOd0I0JqKfqVypSmD+z4Rp6+wJg9wn3gR3onxvVni4QsAus7eovydNABAoXWL8bNHkV4EanuXzUVuenDqEJCvScGE0ZAFAI13dFtry6ekAQj+weIHUpwrcQ/9rLXxKM4HkUk43ehEmnPs/L1UruyfsXwxlKu4viQF2TO+hqxHSQ0AdMlrinNIQ2aMiPnzJyPFQeev1vM/kvIStF4xf35ID7o9Od2YwH3tEMVMittT3I8zSuXKFpwOZMB7pCB7xteQ9bzjLSUAdMVf21pbmLskO+L+rZuWFNcl7uXQf6rx73+f8eOlvNSn1h5ZP8a4L9NwutEB64ywsOohpyms4X0rxZMpPmdeVSpXVspI7kZQfArrSVKQPR02ZPkb3+OkBwBqcqnun4+QhkyJuzv5DKS4Lr0DO/9xryo4I6e8a/SwbPNRxdlwPEr391p7ZH0R4/501zHTUI7RbKGDfRSrqJy+3e6ZzhrfN1a8ndJ+2RDYW1VWF6Q+gEDZpOq3k4bsmdAywveSHgComs2JxQTv2RN3xbUPKe4aPfjYCnFTx/gVI/1DXi2+oLwEa2ZF9xg/vyvnPu77y2ycdsg9igV0PztfMc5KZ/rfbDX6dXw9JQ1TKu7UPX2WwPP4BUWpkK7XNfIRacieCTVkPUh6AKBq++mH8CvSkDlxT4Y7DykONndfUF4oLzX4MsDyMjenvdCGK3ZRrKP6x/sT+ov674O1Wd+lN8+bNWINLJUrUwacT3pkFY+NQjucNGTThBqynnUs+wgA1bhNlcTrSEMmfRjz50+tivvMpLlLFo758z8IsLz0UXlhwnfKSyjHjHDdrJhPdY/+il+r+Qf6ezYHsk2+/lOK1+gtusdNHGhOP6BYFc6B7YfiIluaJ3Czs8mK7yNFADBB9nZzb9KQTb4X3bcxf80SZLpLlor584d24d9Yw8SvMe5Tk2JxTn2Q5eX9LvybuFfC4t5SPJ8rttZv16aKT7rwm3e3NruluP8ru2gC+KYAczuU4lUop9hwXNKQXc2d/Pe7SBEATNBBnXXpR/DifthcgRQHmbeaH1p0rVtPho8oL5SXQB6Mly2VK82c+sK42kW9sOrqAa5/f6U2h6Z4HFsqzggwv9TlisE661hPrENJRbZ19uN3BykCgPGyCVYvJQ2Z91bMn78GKa6NHs6nd/EPm3qL8pKb8lJy8U98PqgL/+aNmPdpKsWilIDcs/n8NtKD9/aKhsy7ps85RZtzUjymA3TdHlSwugDS96hiaZX/M0lF9jV3cpOzlunXSRMAjMMmWd292rkpELRXY/78xVVh702aa7Kei4bZxem1QMvLSsyTVbP1E/iOrtSHhyh+yMGxI12vqK5xWwyfe6Di+hSP61+6120TSpL9UE0mfM+XEYoXXdRou5zO8UqKF0hLPlSzTPHtigVIFQD8wQEMKcyNuF/YWINMX8WFpLpqWyTwHa8FWl5sIuQNFddSDIIpL/bCouYeWfqN+EUP6m/qj4vFuG92bzmeIoAulM9RKp/b64/WA3allHbjCu3Dp9qXBwJJy6sx58IaVVaj9CVmOC+c86uahixbFePvpAoAfne7rRREGnLjuQS+Y2tHQ1ZV9FAzjTZrx/w1H+oaHtbFf/t8QuWFhqzqyoutCrpizF/zhsrL9138t7YKeJwNWdbjs6T9a6M0oFYqNyNUfjbSHx9TLJjCLkykuEn7sLL25aUAUmL7EGdDlg0FnpbrFahfNRNEPqH4jFQBwG/sfrgrachVRd6WXv4i5q9Z1c/jg87t6KJeSXF6so5/a8MSRsS8fxuqvMxAUaiKrcDWFHB5eTqBHPCbhHp+A22qhHVdtCprGqZQDNQ9b7YA0vFEAt+xPaUOqF+nDVnWLVqbW0kVAPxmZ90XadzPn6cS+I69SPOE+RXY9gr5fPuVC+PulWU95nenRHRaXixPewZ+f0jiwXhX5WJiSgTquK99oM06Lpr/Mw0zKe5UOZ465VQk0fC8i793AahDtUv23kSqAMCdq8oeq7nmUxLzc+yuyusUpHqCbG6oeRP4ngczUF72UXmZhCIxQTZR9MyBlxebU21YzPtni0lsR3FAPVS/sXkDN3bx9zgdn/kVt+q+1zPFHNiQv7h7ps2u2IwSB9Sn2oasuxyrOAAoNqvgHUIacuvuBL5jSkUrqZ6gwxL4DqvPPJeB8mKNE7tQJDrme+8lUV6G6uH2rToejG2i4XsS2M9DfE4AV0d5fVibHRS/pLQLKyiuUlnulmIakrheD6K0AfWp6gfPd6O/kXQBKKgfFdvqXvgjqcitl10y80EerAr6ZKR7XMqL9QRYJoGvus9Pm1APGy72bQL7ehi9ssZrWxf14MjCQ20SD8aWi60pFqiX7o8DtPlbirtgvZXOSvH7k7hel9a9fX1KG9B1tby5+R/pAlBQ+6pi9wppyHXF3XpN3JLAV7Uo/kHG/8jPF3JSQl93SwPKy0htkhhmPKtiP0rIOOXFhh6dkNDXNWJ6jdtdMj1cTqDhEw36TTxHm1NT3AUbWp3Wb+Wdip8T+J5TUu55BmRaLQ1Z9yk+J2UACuZyVeguJQ2FcH1C33OgKq9zkO4/PrQoFkjge6wBqlENljcklJt/qrz0poj8wcEummcmbt+5Bgwj1W+IzZH1YAL7a/eVv1E80CCHKq5M8ftP1L1vx6S/VNfrF/65N24LOVYcBbqsuYaL2oYXXkvKABSITdK7N2koDKu4JjEfZA/FBaQ74pdcPzahr3vALzXfCLcpfkhgn22BgLMpKb+XF1sM4PCEvu42lZdGTXyd1MiGI5WjOSkpqJfvqWyrp96T4m5cqvK8dgrfm9T1erKObwZKG1C7WieFvIKUASgIexO/hSpy35GKwlTa7YXNfxL6unVUed2p6DlXDpq0uVgxeUJf2b+B5cXmyEqqF9/WytUmlJffhuH0UyQ1fO7yBn7Wf10yq8HZsMt/M/E7GnSfs16smyteSGkXJlIMUHlePOHvtXt7EvOiTqO4kJIG1K6mHzndzJ7R5g3SBqAA9tA9j/td8fRL8LvOpefEb/M/rZPQd1lvuxszXF6sZ8KMBS8v/1Qsn9B3fegauDqlfk/iKH/js6qLhl8CjSi732hjE5MPTmkX7EXHwCSH5OuYv3LJvajYRMe2MyUNqE1X3tbQKwtA3p2uSsw1pKGQFXZ76/xcgpXz61SB7VHEXOu4l9XmtAS/8qoGDhMb7UErNgnt/7SKa/zE+EUsL2tpc2SCX9lP5WVUgz/zkgT3/3jlbEXu6mjQb+Mn2qzr0psv2eYJvFNletoEv/PfCX7XBTq2RSlpQPW60pDV3yWzkgMApMHmgvg/0lBoSS77vYQr4LACVdhndtFk6RMl9JU218t5MTzc2ecmOX/VKi7Zxr9QykvJRfO0JjVc7qeYrssHFEmtgDt6SNas3NLRoPvdW9ps5JKZG7Aj8yhuVZmeNKHve1DxakLfZS+0btCxTUNJA6pTc4XAt8jfQuoA5JB1m98mhrfwyJbrFB8l+H07qfJ6eFGSq2Od0kUTpSc5TO42/xAWh/6KrxI8lgOUw70LVF6m0+Z2F80lk5RrVV4afg/wDZ9nJHgc1otloL/mgEaU4Se12UrxS0q7YD15r/Xz5cV9rHa9np7gsdnQyVsSbKgL6T4/l8JWdO6veNDH3YrzFH/mHoaOdPXN1kWkDkDO2KTuG/tll1HsirpNbntOwl9rw4D+WoDKqlXQbZ6gpIdQnBZjebFJ35PuVXeOcrl9AcrL6EbPeRL+6jgfXq9WDE3wWBZy0ZCswjwcWyOHYgEbjqrYXLGRDdtSTOLQiHueXZN7prgL1iusnNB32fX6SYLHtoKLphyYqCDX6hqKR1w0RN/uu7YIzio+bDi5vbSxaY0+841c9DDF77rakHWv4h3SByAn7M3iDqqcvUoq4J2bcOXV2JvHPXJcYZ3UN0qslvBX361r+5GYv+MUxfCE62+XKafb5Li8WCOWTba+dMJfPUDl5aUYGwGsofzEhI/JerHcnudeDTZ3nKKvwnrv2Qup13z5GeCikSQ2/+Fw/Xdr1NsyiR49eaZybPNHHZPiLuypc3hUAsdp1+txCR/bBoqrdHwT5/h6bVHc4NsUqpnLz3JhjVxv6N/twBWI0RWhrlzU9tDHUqEA8uIQ3dduIg1o9zv3vW+cSPo3+WJV0vbPYaV1am3udMk3YpkkHnZsaOFZCR+XvbH/j3K7Sw7Liw2Ju88l34j1axLlxUWrXQ5N+NhWVdzth2rmrbys6aJV1e3B2FbXm2I8f9V6ZNkqqTZ8/Hn9u6X4tavrvne0NpemuAtH6xzumsD3XJrC9WrDN2/NY09KHdPc2jyt6NuFf95LcaU+4zCuQNQzaaa1xH9HCgFk3IWqjJ1OGtBR2VAMSeF7z1Il7cy89BjQccypzeOKlVL4+pv9nC5JsLmPPkuhHtdPOT5O0ZST8rKANnbOlkjh669QeXk9gQYA6+XxjxSOzxoGn1KO58tJWbEhhLbYgi3SUqrxn/9J8VgeG4ITtpeLetqmxV7+rJfA9XpUCse2tuIBHd+MeSksOpYlfH1gzjo/6gR91u5cfsXWXMdF/aU2l5NCABl2l2If0oDx/M79qM3BKX39AS75pcbjqLRa74dnFWk8ONvDx4EJlpevXTqNE+afipuyPnRM+7+ZNk8p+qTw9TbX2aEJft/V/liTZhNKP2NzR2W8rEzvf8P3q+NjrFejNQTvxC9el+97tjjO1i5qfE6DvfC5PoHedfbM+1wKx2eNz9Z7cMWslxUdw7baPKRoVL3mXH3mPFyFxVXvMsb2FuRX0gggg2wJ9K1YoRCdVNKvd9ES3Gmw4TIv2WSoGaywTqw4VX+8QzF1Srtxhs7fuwl/Z/+UHnbMxooXlPflM1heeips8ma73iZLaTeO9ytzJ3VvsfrzfinVoy3HA5TzC7M4dEn7bEOUn1c06t5ovXoW5xevy2XZhuLbBOxvpbQLPV20OmcpxmP8xdXXaFqPGRT36/gOyWJPbV8fsAV0rPG+VwM/uoeLcSEXhK+5zovablgDSSOAjPlAsb7vQQF05i+KESl990yKe/wS1FNkpNJqb8atMefvirSGu9mCNElP0Dv6YcdW80qrgdx62zysc/CvrDRQaD9X1sYmV09z1U57sXFGCuXF5ok5P+V7W2Yay7WfkyksX/crZm7gR9tE0hfnZXhuGlSWP9dmXZf8IimjWS+fO+OcA07HaEPi0poTzHoP2rydj2VpaLD21YbwPqHYN6av2NjPuYUCam7AZ5xMGgFkiK1mtLYqJB+QClRZebWXNmmuzmQPV7YE9W+r9YT6sGUPENbDw0VDTBZKeXf28L0E0igv1lPkXykeu72xP0jxuq3OFvADzowKG65jQ03SfBCxRsdddd5+Sun7bTjq0DRPheJenQtbOGCWgMvLpi5qcGyN6Sts7p4N+MWr69432EWT7X+T0i7M5aKeWb1i/A57QfNximleRvGijvGUkIeSa996KI530UutuHs7bsPVV0x1N2TppvWor4QAQOh+UGyo+9YbpAI1su7rz6S8D9Y760oXzZexbkAV1sn8Muhvu6iHR3PKu3SRrvEHUt6Ho120ilqaZldcp3PzpGLVgMrLVIqTfHnZMYBd+pfKy7MpPvzb3Fy7BZCH7eyc6NycHtLcfNqXZRX2rHGji3/uNCZ+r788v6CNzb+WVsPwki4aNts9puOzFWr3SjnNtvrmIf563deGZgd0vTYrdva/f4cruifwtatx5RVTU4MKrVWo7yCdAAJmlaqNVAm5i1Sgi7911nPhRdfYOR7qYT1/rIHt+jR6kygf1rBmiyVYD4lQ3gxb5XkJ5eOHAMrLIi6azHuSQHJjPeWsp9hNacwNqHxYw9q+/iEwlGvIGqdXSLE3Vvv82Lk5KJC82PVzmeIs5ebtFHJhzye2YpstepFko/1wxTR+iHAt+9tHm8Ex7tdD2qdVM/Z7uYOLXrykxcrvbn4uujiOz3of/yWQdA9z0bzVZb8YWxrn24bnbuGihUfmT/jrP9Nx907hmO3+dGaMX/E3HddZ1L7Hr6mBJ9MqA0uSUgABskrplvpBuIFUoM7fOlvdqn9gu/Wpr7RfrTL+SszHb40ythKh5WETFw1jC4XNY7a0cvByQOVlP/+AERIbVt1PcY1y9WbMx289BTbw5cWGHDUHlAfrCbWocvBOIGXFri1rbFw0sPJyv7/n3Rz3vJLKwaza9HVRY+f8KR3vnH6IXC373cfRkNVRXmwY3qkp7sJxytuRMd7bnkuxnI7vN/AmXx+4p9YG2S7mwYZz7qrYXTF9WgeuY21KoXzTkJWyRjZk2Wo5N5NSAAHaWT8Gl5MGNOj37hJfaQvRIBctwnK34vFGPHjqeOfUZhUX9YywCHXS+V10vP0DKytWz7pWsVWgOXtNcbs99Cie9MPc6j3meXx5Wc9FvWp6BXrsm+l4bwysvNi1ZsMcpw4wXz8q7vP3Fmvcer3eB2WbR8dF8+es5KIGrGUCOM6VdVyP1HgcfRwNWePLjTXk75fiLuyl3F0U07Et4KJet5MFmPphvi5gcU+jemrpmG3SeZtPzl5M2Lx1C4dwsDRkFVNTg0/ok4H8CAHAaK36IbiANKCBv3XWc+JhxdKB76o9ZFqPG+ul9bpiiOIjha0uZfN8/Kz4zkXDAm0ei2lctPKTPZTZA/WCisUUvTNwWs7Tdb5voOXFHnKe9PkM2ShfTqy8vOHLy8f+gcgaRG34nQ05s4bMiXx5ma5debEJ/hf1/1vojld5OSLQ8rKOf/hsDjyHViZsPqRX7TlS8Z6Leofagio/+nuL3St7+Af9yRWzuWhlTYsF/APxRIEd12oqGw/WeM7sGqAhq+PcWDn+r4uGnaX1O9hX+bslpuOz+cAGZOBU2DX6tL9mB/vr1RaZ+FK5GTnWMU3sr1ebPmB2f93O5+s8i7pwhsuPNkzHMH0KZZuGrJQ1egK2QxUPkFYAgaARC42vDba2jFAFpq+vFM4c8K42+4fFBXJ+SqzecWDA5eVblRcbhmmNWdMGnEcbJrqwC+QNe4xs9MBRAZeXu1RebCXDUwLPozVoruIjT35yaGR5/sXPl2UNDSun9Dt4rfZhTe3L4zEc3/X67BNcNLF5yEo+thvnP5Qrthnu/98pM1jMXudKK6bmBl/MD7qoezoApI1GLMRZObeeTTb3z9dkI1XWe6hvCJN1d1JebB4ma8z6gVOWKmtM3C6JuWPqLC82rxC/X+l4jxQ0vDzb3E02Bc1rKe2CzWd1S6lcmTemz7fenVdn/DRN6bLZiGUe4Sorpji6LR9OWgGkjEYsJFE5f0mbLR1v8NPyoWJ9nYfhGSkv1hvgzy4a6oIUToE9TOs8fJ+R/bWhssw9m6xPVD4+IA2x3P/sPm1zLKaV3xbFnaVyZYYYjs1WRtxF8RBnOhXXkoJiao7hYrbVC68ktQBSYJUJGrGQZOXcJj7e1tE4kTSbu2nVrD102jAUbXbj9CXuXRfNfTQsQ2XF5iyzYUBM2ZGcW0lBrGXa7tfWmJXWy4c+ioF+3sJGH5vNM2W9bp/mTCfqfuX+NdJQTHFNJGlj+78nvQASZA0Jf6YRCylUzq1xYkdHY1ZSbLL6dZT3toyWl/7atHIaE/OhLy8fZLCsWF16Q8XjnMZElElB7GXaGh02UoxIaRdsAZMrYjq20b3OXuVMJ8JeXv8faSiu5pguZKs0nEJ6ASTEhnbZPDn/IRVIqXJuZW8nR2NW3Kwn1urK9ysZLy/W4E5jVvyGuKjnXluGy4o1ZtlS98wDE6//KdcvkoZEyrSV5R1S/L3sWypXdorp2L603yhHY1YSTlO+nyUNxRXn0r6nOSZMBBA/W+J73biWVgZqqMBepc02jjmz4jJEsXLWG7HalRdrzNrV0fgZlzcVK2W5EatdWRnd0+NeTmssbMjp/qQh0TI9QJsDUtyFk0vlSs+Yjs3K00qOYYZxsjr/YaShfroOZlHsaKvlKo5U7KnIxOrFsTVk6SK2lXn2oXgAiJENMbK37feTCgRSOf+fi+bJ+I5sNJQ1XuWiUWKs8nKZixo/R3CKG8oeIFfO08TdvmeWrZR6Pae3oWxuoy2U349JReJl+lyX3ggem/R9uxiP7Stt1lbcx5luOGvE2sbPI4guKpUryypsDsahissVJyqOUVykeFn/bZBia0VTqMcQZ48su4hv4wcXQEwGK5ajWzECrJzfYQ/RLhoGh/rdpVgxr6uJ+cbPNRQVTnVD3OAyNrF7DWXFGl1spdTTOc0N8Y1iU+X1YVKRGptXOa1FwraO+Xq1npTrOxZBa6SLFZv5DjPoolK5cpSL5l5c1W/3dlEvwuVcNOer/Y7O46IVIa/T3580xONoTuA79vM/FADQKM8rls9b7wzk6oHTyuiyipfIRl1s8uUNlc+vc15eHrN7mmIQp7wu1rtjS997Ka9l5VfFwfrjXx3DmOth05+s4F88IMXyrM3uirtT+PoV9YDeLebjs8Znm4/rGM52XWwI/t+Uz7/QE6s+KvP/1OZoxY+KHZRPuw+WFY8qnlRcqdjcRY1anyi2UFwVYs+spoQSZhOank/RAdAAtjz2Nnl+UEGuKgw2B4e9QdyBbNTEKlh76Tq/vGDlZXIXrai1KUWgJt8qdvYriBapvKygjc01NANFoCY219h2jeq1p/PQx0W9xOPykPZ11QLc+x5y0aqCSZpDuR2S0DHatAPWO2tyLsGafOGv17sCK7M2x9uZMX6FNdyd1eB9XkSbF/z/ayvi3u+3Mysm8/+7jSa4R989VH9/Pv35Gf/fdtL/dkVI56A5oe+xCU0f4DoEUCdrEO9LIxaywrq/K/7sojkjmQepOm8pli1aI5YvL9aDfTMXLSn+M0WhKi8rlixaI5YvL9aTb3HFgxSDqljvn+NctEDMMNIR3L1vPRdvg2BHpkrwGG+2e5WL5nxEdWy+w8VCa8Rqdz/JmuNd1JGpv3I60EUvQWx6A2swO1xhQw7/bddhqVyx+6QtmnKE/7fH6X9rDulgmhO6cO1E7+wYYgiga6wb8d66l+xDl2JktJJ+PhXYqtgko4srXy8VuKzY0LFTXdSt/22KxATZ2/Clla9BBS4v9vbc5lizuYZo/Bw/m9B4deXryBjqESNj3vcfClKWP9VmHRct5JOUXxI+RntRs7TiHC7JTs/LyS5a5OX9QPdxeJYSWipXrNF23Xa/ne29pzzbPFjWW9DmxbIht3/x/+0SF72Inc2X3WA0J3jhWiE8gOsSQI1s5Rd7K1AmFch4Jf1VXwmwRgoaZP/IJnK3ubBsOCErPkblxRaysN4257lsvvmN07uKNZSjAxUjKCstvyjsoY95+TpmvTv/pBw9GNPnD4v5nv5JgcqyNd7bUKekGu8+SuEYf1Ts76KJ4IdyeXZ4f19FOfqHn2MsVHEv0NLoXqOLKrorPldeXxlP2bTf0yH+//3U/29WJ3va/2+Lh3QCmhO+cPtpcxPXJ4AqvaZYSveOe0kFclJJtwqsDRuzBq0XyMhvDTTWULOg8nI76RinvHyr2Fd/tLmQXicjvzUWWEPwwsrL/aRjnPLynIt6fh7monnmeCB2bi3lxeZP+yrGvNuk+2/GeBwvFawcP+WiCabj7i31ob7r8xSP0xYaWMjxsqL9/f0Uf39/NAP7+0rGPn/0XIodrag9falcuUXxov58qOK/Lurl+/u1MtZnBCGNcY67OVqfAXTO5jtZlpUJkdOKuq1quJRiL9f4t25ZYUve29xG++Z9VcIGlJcnXPQ29W8u6qVaRLaq2SLWEMw8iRMsKz8rTtIf53fRRPBFZD0IbGWuhRJ8ERbnHD73FrAc2/w9e8b8NXcEcJxf+5cV1pvyiQLfumwubZsL69Cs3N/9IgHvxvTxVi98tcGfOXooZEeLDYxeAXf0hO/zuT+uijuF334b0jloTuGk28oDWzuGVQDomL2Bs7fJtoT6t6QDOa6oj1LYnFBzu2guiKIMqXtDsbmOfRXfoIfqystPfgWjkuJsV5weN/aG2IadrqN4jZJQ/UOWYkv9cWXFkwU5bHu2sFVi59Gxn2CLbST43XEtTvGsH5ZexDJsk04fHeNXXBzQsdrQLet5u53inQKdZqsP2CJOq49vuFvg4lrF7wobMt7gzxxdrmYvlSvTjvXfBuv7NtZ2Xv+ba6sb7tjuvy/it0HN29mc0sVqLc7/pJoBYCyfKda2t8l+kQigCJX14TYXhP7YR3GGIq+9TazCuq2LekncwJnvcnmpKGzO0TldtJJrXueIssp0XxdN/s+w066Xl0cUtnCArQiX1wYt6zlgDUnz6Vj/okhj3iNbPTOO6VOOKXj5teO/JIaPvl2f/Uxgx2oLfVzjot4wu7t8j2Cy0RY7+PpAlqcdst/gRveStjrgmTGUL1towBqibNXCP4/n79jLgBv9/7um/Z9SubKaNjO7aFGL+0JKflNaX6yk2Hdf7yspAGDLiG+VRgUUCIl+H6dx0ZCKfXzlIevu85WygTRQx1JepnfRENW9FdPn4JAG+vJyH+UllvJivT7+5uvfzRk/HBsqY40cZ6usfBBAbm1VL5vPaqoGfeQA36uu6GW2m3+43qhBH2m9n23y/3cDP+6JXDRX2IEumvsuDx5X/Etxcww9jtI6T3u4xvbus0VMzoxpX62ucIGLhi7+SdFDMdjuW/rORf3f+ZO/j1kD3ewuGtpsU2FcZAvyhJT7ppRPvI3DtLdDC1K1AArLHlROVBxtc3uQDuAPlVhbvWlXF/Wm6Jah3bfelVcq/q3r+g3OZiLlZRJtNlXsolg77TpejewFhvWo6ce8iImVF2t02dmXlz4ZfBi2BqzrQptPR3m1lehudfU3Etow2hWsxy6l9be8TuofqJdrwMdto7z+N2PHv7yLemlZw+ZkGTt93yiuUlya1+kEdH76+Xtpvf6n2DqulzjaT1u10NpellDY4iA2bP+T8fzdif3v8jYuWqFxofH93bQ0BXDi59LGunZOzW0aKBy7Ie6gG+N9pAKY4G+lrRSzmWJzxaouzJ4UX7rorblVxO7zK3khnfIyiy8r9jZ/BRdmo5a9EbYhpjYh+QN+SAOSLytWNlZUbKXYRDFroLtqPQSutfuLyso7gefUHvxs7pyJuvgR1oi1bgi9zALLq83r86CrrwNEq/J6QYZzYI1Yff31ai8sJg50V20OR+tdaw2GtyY8X10a58VeNNrLu23r+BgbYmmNWCMTqB/Y5Po236a9dDxBcY2+d5j/7z3t/uOiYc0LK77296PgFiNoCuTkr+GilSMmcgCKwt5Y7jb6xgmgpsr86r4Sa3MYzJ7SrljDg01Qa2/J71E8TmNEkOWlty8na/ltWsNVrWHzSV9ebAXCZygvwZUVey5YzJcVu79YL5AeKe3Op4pH/L1lYNYadZRLaxy0+Y5mqfGfWuPu7jreLymRHebVOj5YI+GGNf5Tq2vuqrzelqNcWKPWOj7s3j5Hyrtk8y/Zi2lrwLqvaKvL+vvn/ymOrbFNw34HbcGfo5L6TfRTWNj8Xtv4/8mGeVqjljVAzuTGNJA+6e9HQS600hTQybeZ8S93APLOftgO9Ku1Aaj/93NGbZbxYW+qF3LRUKFG/sbb29Q3XbQctE1qbG/mns/7W9aclhd7sLal3pfyZcXKTKMbQ20OGhtSapVfm7T9KV9eRnAGMlVWbBiKzZuytIuGolhZmd+NWYq9Uax39iArIz5spb43c9LQcLCL5jts6eSv2zCfY3Tct1Lyqsqt9TY9wkXz/EyIzfNj9c1T8t446IcLL+vrAqOv12lj+jobavaCDyu7D4U27CzF82Ar/1lvJusV3X0Cf9Uaj25x0dQqL6W0r3Z/t4nf7eWoveSyKQpsqL81YFnv14Eh57opsBNvKxkexyUA5NajLnoj9japAGL9PbVeFH1cNEzIKrfTuWgIv0UvHx1V+K0B4ksfHyred9HKSR/mZWJWdFhebP6Z2X1Zmc0//IwuL5N2UF5s/g6bu+dbX1a+8JXf93x5+YiJ2nNdXnr78mL3l5l8ebE3/JMrpuzg+eJXf3/5ypcXe/P/gb/HvKOy8nXO82W9M1Zx0TDfedpdT9ZL6BXFvcrB65SsLuXWhj7ZyJ4F3JjFLuwFi9UzbRGhB4vcgK782G//fO3qArP4a3Uaf3+3hotu/tp1/p7+s8/h6Gv2M39/t2vWJsgfpJx+QenrNPeWY+vZupS/X1qj1i/+N9IaAO9SHj8mU13XFOBJt25urZwaIFfsB/EwxTk8DAMAAAAAuqp7gPu0r4uWrd2O0wPkwoMumgvrXVIBAAAAAKhHcKse+d4aNl/WdZweINNsiJLNC7E6jVgAAAAAgEZoCnXHSuWKzZZvSzJvxGkCMscmB9y7rbVlCKkAAAAAADRKU8g75xuz+iu25VQBmWATQ+/X1tpyM6kAAAAAADRac8g7p4fhkS5aEvLfnCogaHatnqiYn0YsAAAAAEBcmrKwk6VyxfbzTMX+nDIgOPcqWttaW94mFQAAAACAODVlaWdL5cp+LmrQaubUAakbrDikrbVlAKkAAAAAACShKWs7XCpXNtHmGkVPTh+QiuGK4xXn+OG/AAAAAAAkoimLO10qV5bQ5kbFrJxCIDE/KS5UHNvW2vI56QAAAAAAJK0pqzteKlem0+ZaxeqcRiBWvyr+oziyrbVlMOkAAAAAAKSlKcs7XypXumlzsuJgTiUQC1uB8Ii21pZXSAUAAAAAIG1NeTiIUrmygTaXKabjlAINYQ1Yx7S1trxAKgAAAAAAoWjKy4GUypXe2vRXrMtpBbqMBiwAAAAAQLCa8nQwpXLFjqfVRcMNJ+P0AlUZpbhOcWJba8urpAMAAAAAEKqmPB5UqVyZzUWrq63HKQbG6wcX9WI8o621pY10AAAAAABC15TngyuVK9vZQ7qiN6ca+N1ninMVF7a1tnxOOgAAAAAAWdGU9wMslSuTa3OY4m+KSTjlKDCb98oasK5ua20ZQToAAAAAAFnTVJQDLZUrc2hzqmILTjsK5CfFAMV5ba0tj5MOAAAAAECWNRXtgEvlyrLaHK1Yh9OPHHtHcamif1tryyekAwAAAACQB01FPXAatJBDIxU3KS5W3N/W2vIrKQEAAAAA5ElT0RNQKleW0eZgRV9FN4oEMugZF60+eE1ba8uXpAMAAAAAkFdNpCBSKlf6aLOfYnfF5GQEgRuiuFZxZVtry+ukAwAAAABQBDRkjaVUrkyhzU6KPRULkREEZJjiv4qrFU8ydBAAAAAAUDQ0ZE1AqVxZ2kUNWlsrJiMjSMHHiusV/1M81tbaMoqUAAAAAACKioasKpTKFRtquIWLGrTWUjSTFcRokOIWxc2KJ9paW34hJQAAAAAA0JBVs1K5Mr2LGrW2VaxADtEAPyseU9yuuLmtteUtUgIAAAAAwLhohKlDqVyZRZuNFRspVldMTFZQpaGKuxR3KO5ta235mpQAAAAAADBhNGQ1SKlcsTm01nFRw9a6iunJCtr5UvGA4n4XNVwNIiUAAAAAANSGhqwYlMoVy+vCijV9rKKYlMwUyueKRxUPKR5RvMBcVwAAAAAA1IeGrASUyhUbcricYmUXzatlf56CzOSGrST4quJpH48r3mhrbfmV1AAAAAAA0Dg0ZKWgVK7YqocLuahRy2JJxTycj8wYonhK8YzfPt/W2vI9aQEAAAAAIF40nASiVK5Mrs1iLmrUWsLH3IpmspMaW03wTcUripd9PNPW2jKM1AAAAAAAkDwasgJWKld6aLOAi3pvLdDuz304dw31g+JtxSAf1nhlQwVfb2tt+Yn0AAAAAAAQBhpDMqhUrvTUZk77o4+5XNR7y/48i6I7WRqH9aIa7GOIjzYXNWC9z3xWAAAAAACEj4asnPHzb/VWzKaY1ccsPnr7mNZHHnztokYqi6GKTxQfKT7wf/5Q8R5zWAEAAAAAkH00ZBVUqVyxXlvWmDW9jykVU/mYst3WopdiIv9n206m6OHD2KqMPav86hGKH/2fv3HRin/DFb/4rQ3l+9rHcB9ft9t+rvhMUbFoa20ZydkEAAAAAKAY/l+AAQDFmgYnOCAPVQAAAABJRU5ErkJggg==;" parent="_VUfvd7zScw78irFREDJ-17" vertex="1">
          <mxGeometry x="40" y="69" width="73.7" height="18.95" as="geometry" />
        </mxCell>
        <mxCell id="_VUfvd7zScw78irFREDJ-33" value="" style="group" parent="bjSVrxCcCOhVVrhVAQgg-1" vertex="1" connectable="0">
          <mxGeometry x="386" y="150" width="92.41" height="70" as="geometry" />
        </mxCell>
        <mxCell id="bjSVrxCcCOhVVrhVAQgg-27" value="" style="rounded=1;whiteSpace=wrap;html=1;shadow=1;fontSize=18;fillColor=#F57900;strokeColor=#001DBC;fontColor=#ffffff;" parent="_VUfvd7zScw78irFREDJ-33" vertex="1">
          <mxGeometry width="91.29565984950798" height="70" as="geometry" />
        </mxCell>
        <mxCell id="bjSVrxCcCOhVVrhVAQgg-28" value="vlc" style="rounded=1;whiteSpace=wrap;html=1;shadow=0;glass=0;sketch=0;fontSize=18;fillColor=#B5739D;fontColor=#ffffff;strokeColor=#432D57;" parent="_VUfvd7zScw78irFREDJ-33" vertex="1">
          <mxGeometry x="4.599996141230968" y="14" width="51.03677889253327" height="18.305" as="geometry" />
        </mxCell>
        <mxCell id="bjSVrxCcCOhVVrhVAQgg-29" value="container" style="rounded=1;whiteSpace=wrap;html=1;shadow=1;glass=0;fontSize=18;fillColor=#7EA6E0;strokeColor=#314354;fontColor=#ffffff;" parent="_VUfvd7zScw78irFREDJ-33" vertex="1">
          <mxGeometry x="4.599996141230968" y="47.923749999999984" width="77.7809425043411" height="16.1525" as="geometry" />
        </mxCell>
        <mxCell id="_VUfvd7zScw78irFREDJ-22" value="" style="endArrow=classic;startArrow=classic;html=1;rounded=1;strokeWidth=2;sketch=0;endSize=2;startSize=2;" parent="_VUfvd7zScw78irFREDJ-33" edge="1">
          <mxGeometry width="50" height="50" relative="1" as="geometry">
            <mxPoint x="41.37322110746673" y="48.46153846153854" as="sourcePoint" />
            <mxPoint x="41.066777566081434" y="32.30769230769229" as="targetPoint" />
          </mxGeometry>
        </mxCell>
        <mxCell id="bjSVrxCcCOhVVrhVAQgg-26" value="vlc" style="text;html=1;strokeColor=none;fillColor=none;align=center;verticalAlign=middle;whiteSpace=wrap;rounded=0;shadow=1;glass=0;sketch=0;fontSize=18;" parent="_VUfvd7zScw78irFREDJ-33" vertex="1">
          <mxGeometry x="55.63677503376424" width="36.773224966235766" height="16.153846153846153" as="geometry" />
        </mxCell>
        <mxCell id="_VUfvd7zScw78irFREDJ-42" value="" style="group" parent="bjSVrxCcCOhVVrhVAQgg-1" vertex="1" connectable="0">
          <mxGeometry x="580" y="148.5" width="92.40999999999997" height="70" as="geometry" />
        </mxCell>
        <mxCell id="_VUfvd7zScw78irFREDJ-37" value="" style="rounded=1;whiteSpace=wrap;html=1;shadow=1;fontSize=18;fillColor=#67AB9F;strokeColor=#001DBC;fontColor=#ffffff;" parent="_VUfvd7zScw78irFREDJ-42" vertex="1">
          <mxGeometry width="91.29565984950798" height="70" as="geometry" />
        </mxCell>
        <mxCell id="_VUfvd7zScw78irFREDJ-38" value="wps" style="rounded=1;whiteSpace=wrap;html=1;shadow=0;glass=0;sketch=0;fontSize=18;fillColor=#B5739D;fontColor=#ffffff;strokeColor=#432D57;" parent="_VUfvd7zScw78irFREDJ-42" vertex="1">
          <mxGeometry x="4.599996141230918" y="14" width="51.03677889253327" height="18.305" as="geometry" />
        </mxCell>
        <mxCell id="_VUfvd7zScw78irFREDJ-39" value="container" style="rounded=1;whiteSpace=wrap;html=1;shadow=1;glass=0;fontSize=18;fillColor=#7EA6E0;strokeColor=#314354;fontColor=#ffffff;" parent="_VUfvd7zScw78irFREDJ-42" vertex="1">
          <mxGeometry x="4.599996141230918" y="47.92374999999993" width="77.7809425043411" height="16.1525" as="geometry" />
        </mxCell>
        <mxCell id="_VUfvd7zScw78irFREDJ-40" value="" style="endArrow=classic;startArrow=classic;html=1;rounded=1;strokeWidth=2;sketch=0;endSize=2;startSize=2;" parent="_VUfvd7zScw78irFREDJ-42" edge="1">
          <mxGeometry width="50" height="50" relative="1" as="geometry">
            <mxPoint x="41.37322110746675" y="48.46153846153857" as="sourcePoint" />
            <mxPoint x="41.06677756608144" y="32.30769230769238" as="targetPoint" />
          </mxGeometry>
        </mxCell>
        <mxCell id="_VUfvd7zScw78irFREDJ-41" value="wps" style="text;html=1;strokeColor=none;fillColor=none;align=center;verticalAlign=middle;whiteSpace=wrap;rounded=0;shadow=1;glass=0;sketch=0;fontSize=18;" parent="_VUfvd7zScw78irFREDJ-42" vertex="1">
          <mxGeometry x="55.63677503376425" width="36.773224966235766" height="16.153846153846153" as="geometry" />
        </mxCell>
        <mxCell id="_VUfvd7zScw78irFREDJ-44" value="" style="rounded=1;whiteSpace=wrap;html=1;shadow=1;fontSize=18;fillColor=#E6D0DE;strokeColor=#001DBC;fontColor=#ffffff;" parent="bjSVrxCcCOhVVrhVAQgg-1" vertex="1">
          <mxGeometry x="481.70000000000005" y="149.5" width="91.29565984950798" height="70" as="geometry" />
        </mxCell>
        <mxCell id="_VUfvd7zScw78irFREDJ-45" value="wechat" style="rounded=1;whiteSpace=wrap;html=1;shadow=0;glass=0;sketch=0;fontSize=18;fillColor=#B5739D;fontColor=#ffffff;strokeColor=#432D57;" parent="bjSVrxCcCOhVVrhVAQgg-1" vertex="1">
          <mxGeometry x="489.30000000000007" y="163.5" width="55.4" height="18.31" as="geometry" />
        </mxCell>
        <mxCell id="_VUfvd7zScw78irFREDJ-46" value="container" style="rounded=1;whiteSpace=wrap;html=1;shadow=1;glass=0;fontSize=18;fillColor=#C7C199;strokeColor=#314354;fontColor=#ffffff;" parent="bjSVrxCcCOhVVrhVAQgg-1" vertex="1">
          <mxGeometry x="489.29999614123096" y="197.42374999999993" width="77.7809425043411" height="16.1525" as="geometry" />
        </mxCell>
        <mxCell id="_VUfvd7zScw78irFREDJ-47" value="" style="endArrow=classic;startArrow=classic;html=1;rounded=1;strokeWidth=2;sketch=0;endSize=2;startSize=2;" parent="bjSVrxCcCOhVVrhVAQgg-1" edge="1">
          <mxGeometry width="50" height="50" relative="1" as="geometry">
            <mxPoint x="526.0732211074668" y="197.96153846153857" as="sourcePoint" />
            <mxPoint x="525.7667775660815" y="181.80769230769238" as="targetPoint" />
          </mxGeometry>
        </mxCell>
        <mxCell id="_VUfvd7zScw78irFREDJ-48" value="wechat" style="text;html=1;strokeColor=none;fillColor=none;align=center;verticalAlign=middle;whiteSpace=wrap;rounded=0;shadow=1;glass=0;sketch=0;fontSize=18;" parent="bjSVrxCcCOhVVrhVAQgg-1" vertex="1">
          <mxGeometry x="524.6967750337643" y="149.5" width="36.773224966235766" height="16.153846153846153" as="geometry" />
        </mxCell>
        <mxCell id="bjSVrxCcCOhVVrhVAQgg-6" value="" style="shape=image;imageAspect=0;aspect=fixed;verticalLabelPosition=bottom;verticalAlign=top;shadow=1;fontSize=18;image=data:image/png,iVBORw0KGgoAAAANSUhEUgAAAQAAAAEACAYAAABccqhmAADTlElEQVR42uz9CZAlaZIehnkc7877vq+qrPs++u6ePmZ77t0lIACCgZQgCZDMQJokAyUZJAMFkqCRRgoyQFiCJgHEAoslcS3AxQK72IO7mNmd6emZPqvrPrMyK+/7fndEyD9//x/xx6ua3u6Z6pnqrhezuZWd+fK9ePHC3T///HN3NwgCahyNo3E8nYfbuASNo3E0HEDjaByNo+EAGkfjaBwNB9A4PtPjX//5icf6fJZjU35pm+xSkVp6s+Tzv1bVT9kp+4C/VznuWMUBslt6mwY62qu7cy3VUiXnVykbeJS2bCpbLhWchL3rNvXv7a/sbQb+9qqTbF4gN7jt5jpvVAuF/eLWBtmtFgXZCtFnQBt94x82uKiGA2gcP9ERBGygXnAu6Zf/t0mn8pWE5fc7LZSzbDauYJu8jW1K2URJ/tQDhx0Hf+976m+rPvlr85RL8vcWfr5H7CTK3kZphdz0d4Mg+If8B79HFn0mDqBxNBxA4/hJjJ8tM+FX/qPeRP6/ae30Mp5PVOJg7Xm1LxR7GCjIv2LDyohtR/03/+sk1M/x5fAzWpS0rcqQX6n82WTK+rO7Bfpbfor+Y9u2/cYVbziAxvHERH4Yt/8n+9qKv5RNs0GzwWfYmJvS2jnUvvyg9qWNX/9riSeo/ctGTzZ/WXgcm3m1TFQs8hc7BG/X+z+vLKZ3up9/+a/ZeFADCTQcQOP49EehknyMBAAbdTXoaKrs/s10c81gE27NuG12BC6/lAvjdmtfiPhi7MrgKVH7Hv+h/2XoTz4/j1ciqhT4R+wIPP5ZLsuOZaP6V/bX938j09nxgUCLxtFwAI3j0x1+YD9GB+CQv7v+l7JOeRiwH5Hb92soQCK6F8F+y1J/EqgvnIannIGlEIGlnEWgnsOppQ6u+jebqiaXb1//q7s9LX8iqJSjJ20cDQfQOD7ZUfE2Hx/8r1jN2dLaX3Ry/L1X+0IuL/k8fl9VUV7lAlaYDyjsrwwdyMDXaYGBCGwnchBA/UlGFPbO1jcqeftUtqfzcuA16ICGA2gcn+oo7+8+puhvkV0OfiHnVkcQncVAm4jS7fzBpvgLUX0PL6jSda9m5Ph/MGyw/WL4vnIUVu1nMHZNFIo/sKNAj9fJJSiZdzr+fK5r/C8HlWrjA204gMbx6Y7HkwL4bK2JYv5/lWgK5BkzrUSpVmXEpHJ+dga0XXMC8iC/9nPlPwQxAObj54HBAcjvFVcAB+AgBeC/S4BgzBJtLEz9yXx556+x09ltfJ4NB9A4Po35p3KPBwBUg8NZe+9lGGgiWYv+ZJT5fJUOULZG6jnK9wgnYNHDJX31t3ig70UIAE5AeADlt8AHZB1/ZKeU/4rd5P4LamQBDQfQOD75kco8BgfAodfb3Ptq0vLTMNpERpF6KrKHlo1qAKcDvkNhPVAiv19DCoIKNHGonIN2EEgPbDtKATQPIKkGiMKK/Yt2ou1fyB83joYDaByf7KiUfvIUAKo/Z3frTyHXR3ROpmvlOonwKm+veYPoC0avyT/biusArMhf1DQAOvobZCD+BtEfX2m87k75Ky29Rzscx9mgRlt5wwE0jk8I3e2fnDgLvOBI2q6eE4NUrH8o4jEgPSlBD+kSn62iv879yUANTvQ4UhE/5gQsxQUoTiBpFbsWPvzDN5yU/WsN+284gMbxSY23WvgJ4b9N/s7em05QzSDSp9Jxo9U1/RAFeLXIHyhuQMg9x5AFk3IS1ZoT0JoBPCaE/rokWFEOAK8Lp1MJvm4lMr9mNTxAwwE0jk92JFt7fzIHwhbpbBe/lXJrUTkBOK5FPka+HiKAquIClKFrFKDzf3xvuwZtEER/C6P3FLJwFB8gqYBdUxwmy/4bLRNjTfx6ew1pcMMBNI5PcBR3136iv/d9Gs6Uti5YGTZCpyb3he0lbKN+D0NPRMSezghI5/6+eqwb8QGWSgF8Q9wnP3NqkN9EA3AALv62Wh7aXVh9KdfT/jsNUVDDATSOT4IAmtt+/D/mMFxZ2XjV9f02if7JKOr7FNXuUbMn3a9jSIHDSoFNYQOQPMZXqYIdoYdAEYcw+KrBA2hREJxP2gmssue8kc61/47fEAU1HEDj+AQIYHX7x4f/bLJufv8ryYSC4smoscexorxeQ3mR/lYjFEBGuU+nBLYiADVCCKsAQZxXcBTPYFPEA0AUtDk7/dXN1dW/gsqkQUE2joYDaByPOvbWVn9M6w84KtvN7VbxdadJNegkDcKvXtkTRGU90sbthN/G2oLDqqHxWFJKQRwC+1FtKNV+Lq9t1dKAVJKOJLvazjgJ5/1Gj3DDATSOP+YYPHfmx/o7jP4qrGy8YM/e6cNMDqAApACuEuxYhuFCm+Po/N5Mzf2o7dc0fF3+8xU5GHYKqv4AnU5oVaAoi61av0HK9txSdf/VdHfz+5gs1DgaDqBxfFwKsLP1Y+b/Dvl7W6+nXN/S8B/knKvVenWqPR3dtVRXoH+94RuPswxDD3wjJdAP1ZFfvaauCqAcuLOx//Ugnft/W1ZjZljDATSOjz3yu3s/Xgbgk5PYXP8GZL9g/OEAJGobij5bt/ja8VRAG7f1MKkQqgdDdKAIQNEKeFHqoDsOTUIRjgBIxC16F7Ot7YO2a803VIENB9A4Pg7KY1jfj/N3AZ3MJIKDCR2Fk7UI7PtRvg9n4NqR4Ed+7tUiuhNE0D80YiPqR+SASgP8CPZr9ECqf8BSWgAgAugB0nalefnyrdethPOrDQfQcACN42OOzfmVT/03qM1nHHq9vZVSusznqkEfrqrRO7Yh31WGS5UIAYQCH6JIBESK+DNSgcAoA2ongceYUmDbaAyytSjITryZ7O741YYqsOEAGsfHHCPPn/30DoC/yrdvf92x9oV9T6UU8x9EOgAyjDKs9xu2GI4FsyJoryXCYV+AHQcCuilIpwGmFkCLg3A+aZQl98uvdk6M5mycZONoOIDG8ejDKxc/Xe4v9mcNJfzKOScRyX+1VNcxZvoJ4+9EDkCX8cx2P10FMAeBaufgK+ZfxogZE4EwNhx6Ao00YPxVhRzCcmBQGpx776OXk7nk7zRAQMMBNI4fcazcv/+pHYBbpZf73Uo7DF4kuO4jiD4F+wPD4C2jrTfe82sgAytyElI2tKNuQSuIk4yOHT0Oz4O5AFVPpQE2Walk6tVcT8fv+I1yYMMBNI5HH1nM7/5UDsAit7D/Jjb8uGr6j0iAtSGaho+IrbX+bm28l2WQd5JOqCUhMgTEN8g9o0EobBiiiEwkw5GYw0EEMGhV4Pra17bXV/8fVhA0PEDDATSORx2Z1rZP5wAsq4n2Nt9w1ToBV31quv5fDxe0/j9Q48EDzzBoRdrpDkCTH4ghBHODkB4eCkRQjer/jnpt3SEoLcJOcMRqaj3lJt1LjTSg4QAaxyOOVMcndwAWW1dpc+cZtthBR5XeMP3HNsZ/aRWgXRedJWc3yoHmHEBt3GHjT32aQDU0oDcEaSRgGW3BZFQe8DuUJ5MUJNPdPa90Hhq+1GgOajiAxvGIo7z/KZqB2NIqW+uv5WzPhqFh+IebNNh5Y86fZcWDOKS8gXICpgQ4NhdQDfrQlQHdJRg2FWmnYRkOx+gnsBQScRQZiOrExtz8t3a3V/42NbKAhgNoHA8frYNjnyL/t62t6flvJlTN31K6f8fMwx+RBoS8gCrz2Y5RAvRrPIBm/sP5AQY8kG9VyhD2B9k1hxGOCLONicHqvFCdsLaLF8jO9FkULDU+7YYDaBx1x8LN2U+aADBcKB3LVvKH7WzNyBBhzRl9VDfsgwwhECkFoEYAfhBpBEJnoBGEofbTw0Xl91WlEdA7BayoJ6CqUwCKegNc4QG8tkLZeTXZ1fZPG0NCGg6gcdQd2xf/3CeL/ok0JaZ/+Frnu/cyturuwxRgW3XtyeIPO+r7D0t0dnz4p+3E8339O8up6xHQnsOOo4jQHQXxRiMtRMLrlqrRpKB0majQO/amffLCPyXsD2wcDQfQOIyL3tb3CeG/RcWDr3zDac1T7urvUs6qUkJHfwXfIRFOOtEEIBnf/Sh23xj1bRs/CycF0yMcQZ1eQCMMvS8wMElHVBWKnALwv6kLZyl/6N97zWofzLBDKDSKAQ0H0DiMY21p7pOAf6pUKv3lanBx8o3/Gy2OvESt079JzfY9cneXpLznlNWaL0XcOWm12VchAL9UM1Jfzelx3Hi6oJGBmfeTKQpS6MI3HIH4BU+tHuevNH+V+PeV1mZyjp6n/eFXyBt9mez7MyM7W+sv+H7wB40Fwg0H0DiMY2Ro+I//YFyX5ubmXlyanu6cv3uDMi0TtDT+F2ktR3RxNEUte9fJn/+Q0rs3ydpdYWPcIaeiJLr4N1Mz1mpJRWhM/S3XBoUGSvTj+9EgUL0fUA8B1WPE4ASSapFosaxWhidSZDW1USkxTPcrnTRrDVDn6a9R18QpWr16nfJTU9SUy9m7ldKrxcL+H1gND9BwAI0jOrxPhv/JTaa+knATVCgU6MzZM7SzsyVGu9d6kNzxr9H+xDYNdzfR7vI9mr32h5SrrFF/S4Ha3RJVCktE2Vly05tU2dtnZ1Bh5+DVor7nkYzvk20/QTjnO5CZX0mO+A4FySTZLV20VcnRVj5BxVQ7Dbz4LFWbhmjD76TmgaO0uLRNH73zATnsJTrSXTR98yrN3LrOpx7Q0eMnaerena+VCoX/p+04jSyg4QAahz729v/4ZjnbsrLNLS1fHhsfo1wuK5G4r7ePv2/C7+je1XfYMeSJDh6iXNMgFbu/RGv5AqUOHabWkV52FnlKJCzKJAO69MO3aXN1njKZJL343GlKstHjHNpbUrS6tk0ffnSTSmWPJg4fpWPHjtLaepGcRJZyrR106d1LNDX1gJr5e3fiNHnVMt29fZM6/Q1qakrT6SPjnFokqKuri97+/gN2UD61tLTQztYmbW5sHB8Y6D+WSWeuBQ1ZYMMBNI7acXTy4Mf+3uEwvby6emFzd3d4gNOF7u4u2lxfp2rVo6GhIero7KJypUx5dgDLC/P0zHPDlE07VCoWqbMjQ3PTUzQ/P8/R3qaR0QnqG5qkvaJDXf39tOsP0t7eLi2veDSeGqWgyaJ0XzP5+X1Ktx+k2TWbpqeXxZBHhkt0ZHyIElSmYT4PK9ijH7z7A9pY26BSTw8998KL7Ixs2tvdFWfU0tpCff29NDp+gLa3tjgVqaYz2dyrBybGr1WqDVVgwwE0Djm2dz5+JJjN4b5crr6xMDfvBGz046MjtL9XpZWVRY7URUI0HRgYpLlZn6N/E+XzecnXU8kUpdNpqpRLYuT4Ghsbp8mxEWpraeKI30ylUpnef/cy/26PqqUdeuHZZ6njzFEqFEvU2d5CV67dpLkHM+wAPBpkY+4bHpD8v5lfB6jB9wOO+A5lshlaX1ulmekZdiaLNMgOYvzAQXYC7ZxqOLTFJ3RwcpI4//86/93fCfwGAmg4gMYhx8rqyscm/zDm3d29r/ucq8/Nz1JfXxf19PRRKpWicrEsRt/JkLu5qZnaOzs52m7S/fv3xfAmKhPU3NxKHe3tbKQ5qlSqtL6xQYuLSyHBn8lkxWnI8/Hvd9lR7O7tUzLhkMu5fzqd5L/NksvP92B2nm7fvkNZTkN6e3vp3PlzbPjrNDY+QbMzM/TgwX12KiVxSAnHpZXlJSqzk2lv76DRsTG6N3XvuVK+0MMvvtLYGdBwAI2Dj/WN9Y/5rUWe5x1tbm452t7Rzsa2gnKgQHCQbY7ryn9vbmxSkWF3p9VFLkfkUqnIf+ez49ilY0cOUzabktwcJOK773/ADmCRjXOFzp87SxfPnaMFNtThwUHa2tqhy1eu0H5+j4qTh+jIoUlqzjVRIulSa3Mzff8HP+S/XSDG8nTo0CFyEwlGGFWpUljsIBLsMFrb2jjyt9LtW7dofm5WCMzhkRH+fo4W5xc6dnd2vsTI5NcaPEDDATQOPqofkw+jZFYsFr80NDyS62hrp1TCFVKtzEbf3tHB0b0F04Hozp1btLOzzSlBSchBfO3s7lA2k+HoXqDNrW1BAG3NCXEqfuDLY+Eskhzh2xiqp1NJ4QkKxQKnHGV5DUvpi4E+wDMk2cATbPTt7W38eju0s71Dd+7dpaUlwP4heuaZ50RG0M6IY+rOXXYOfJ6dHbS+vk4zM9Pk8XtNpdNfHhjo+zXfaziAhgNoHHTi6LGP/f3a5tbXAt+nJEP0w0eP0vDwMK2uLLNRb9HQ0CC1t3UwzC6xkTJ83+GIz8/X1NxEVY7M7W0tNM3Q/C4bqedbdPz4MTp54igjggz1dHdTkf/u9t27tLKySuMM0UEwHmHEwCkHjY4M09T0A4b8t4RnOHbsOJ3kv2/nCN/b1yvG/d6779LW9rakG8eOn6BqZY129vbIX1ujbk4RYOKDHP3znFKgfAlikB3Zl5tyTWl+ymIjCWg4gKf+WFhY+BHZP8Q3QW862/RCM8Pve3dvU39/L00ePCik3PbmBnkcpbPHcnTo8BGanZ2h7q4egf2I1n7Vo7aWZuEQgDJ29/KSxwNJ+OMcpRmmVzjSLyws0j4qAcsZOjR5EKIdRgdl6mhtooWlZYn0tVbjgBFFWohFkHjlakXIPzD6vT29tMRpxN1bNzml2aTJyUk6cOAgZRiBJFJpfv49PvcByuSycBZjC4uLzzU3NX3Hb6QBDQfw1JOAP2I3IOr7u3t7L3R193R1dXZyfr5Fth3Q7IMHQsKls1nwA8LCIx1IJhPU2dklPMGNmzelJOcxcgBZt8MG3s/Q32YHgKg+vzBPQ4MDjASy1MfRfGXZou6ebtrg19hiA95mox9mSA+2v5fTCSAGGP7Nu1N0m5+7qamZnc5hhvzP0urqGg0xKpmenqY1/h6pBRBDsVSkubnZkBQ8duIEO5ll2t7etluaW17u7u78jt+oBjQcwNN+II9/pAPg/Hu/UPzyOsPp/FCejbtDhPdg1Q8enKRkIikTghCZlxYXJfKDrff8QCI2DBC5fAunA2Ojo+wgUpRlI/7u998Wdp4NkV595WU6e/okR+1t6uvupLnFJbp67ZoYLWA9ftfa0kIJdjKI/rfv3BZuAdWEdCYl5B9eDRG+yoiggx0VUhU4ohvXr9EC9Ad8juMTB2hjfZ3u37sjpcFqpfKt69/53l//Udfkf/knfqFxYzQcwNNxHDt+/JE/d2wnUyi9/yby+rb2do6y/QLVs005VbZLS06N8t1Hlz6kvV0YYZlz+CN0kOG3/B3n6ysclWcX5hjaN3OK0CVRH9UDOIsy5/GI1ow02NCbajeBmxBkYfNj9vl1VlZWKKHIR5B7W5tbNDg4BHKSpu5NCbsPBHLy9Gl+TKtUJcBBILrjeeAUkEZM3bsrKKapqYX29/P8pv3D2UzmVqMa0HAAT/Xhew+vBrMYvu/u751pb+sYR15fqZQol+2kbo6szWyIgNKI4n19/dTLXyi/IRJ7nPcDruO/O9ko2/mxd6amaOruPUwTomefuUinT54QqW4X/x7VgPc++FCg+9bWOB05fIjOnT0j6GFwoJ/u3Z+m69dvyDmdOXOGThw7St3dPYIK8sUCw/9VqRo0V6uUZMexUdgQI6/B/n5OG1I0NDIizmh/f1+0Cjj/hcXFLOc1rxw+NHkLDqNxNBzAU3vMzz9MAgLa5/f33wjIckZGj5DF0P/+/SnqYgcA4U+FDQwoYGlhQRwAGHgo9rq7umlzfZM2QdxheyjDeDgTQPWq58v3yaQr/QTZbFqUgGDn0fpXyO9TLpMRfQGqA2lGFojOFYb2KP1BDozHIyWBo0FbYV9fn3ADBw4eFDLz6pXLkooc5/MZHR9n+O8KCijwuQ5zGuI6LvWyY4A0eXd3/5vTD+b+nu83pgQ1HMBTfOzt5x+JABg2f5OdgJB4/f19HKWXaYENE3C8o6NTSXF9qdG7bGjIu7t7e9B0Q7PsDEAEJNwkjY+NiHwXIqAmTh+uXL/Jv5+lgf5+TiuGpOwHJzQ+NkoLyys0NzsrUX1wYJC6e3oYFRyRtKG3p5uuXL1OU4wocvw8zzzzDJ1lVLC2vkGd3V00ff8+nJbk/FWvSqucOty9e1veDzgAVCrWGDFIRWBgANqA52zb6WDntNG4CxoO4Kk9bPsR1fAgmGTDOAYhEFj/zs52hu2dtLa2Ibl1b2+/kG2IvojyyK/zHMFBCILpz/DPC4WioIAER39IgVElgCGL0o+j9Cw7joMHJqiLIXpbayunBG0MzZcxd0AEO22czx8+NMHQ3hWjBgkItIASY9pDKdCX/gKIgGDwqDqMHzggaGNoeER4ibW1FeEUcE67jEru3b1Lre1tkrqsLi/33Hkw8yXLdn7d2EfcOBoO4Ok6QOLFo78Fcu6VwcHh5gWaFYPraO8Q4wWB1t7WTtvbW1LbR64Ptd+9u3dECQhYfpZz+KNHj0nO3dnZSQ8Ybt+5c4+am5tEQoyyHnoIoNDLM6KAkGdtbV1M0GMH0tXdLYaea26mpeU1mp6eESfT29dD4+MM4xmBIL9H/f/K5SviAHoYpTz33PN8fk1UKlekQoAqBQwfJUB0B96+fVMqASAfi8IfsHOwnS+zs/h1vzEyvOEAntajv6+vzgEQzc4tfgNNOuMTE2RRLQ+H7h6QvIvz/NnZB7TAkRoM++jYOLWxUwAnkMCOMHQCwgA54kMIND8/J8a2urIqEuHjRw8Jm4/feb5H37/0EW1tborRP3PxgpQNi8US9TDiuHrjlkB+nFQn//f46DA7rKRUF/bzBakSyI0jFYN9cQZra2vU09MrHECOnwvRHqXDAjskEJR4/tnpaakidHf3fPnM2VNJPuXGtNCGA3g6j5Xl1ToC0OpiaP9CpVqSjrqxsVHR4KO5Jp1MUVOuSXL/qocmoHU6OHmIJg8dkujbxVF9a3tHDBHcAAaIZPnnMHiLbOEC0H68tbVJWUYeiLxAHND8ow8A5B5Kg0VOH+AEAP1BAELxh9Rjic/19h2G8a3sQNpa6cSJ47TKBn+IzwFdjdevXRMeANqGgaEhRiF7QgDi68DBSSQ88vON9Q0hM/sHBg58dPnyxVKx9JY5Kuzn33yjcWM0HMDTcTgGBwCovba+/mx7V3cvjObB8hJH/HbR7WPQxr61SwsL80KiAUaDVa9WKlJ2g5MAzIcBIwqDD2hlIz3CziGdysjvUZa79NFlcRALi4t05tRpOn/+LP/3CqcHg7S2uSFGjHkABzifn2AHkklnJOp3tLfSu+99KATicmqFXn/tVT43Tk1yOan74zWrlaoQhHAcU/fu0e2bNwhy39Onz3Du304rS0uSqoAHOMSpAJ+Ts7u780pra+tbDT1AwwE8lcfi0pJBCNpwAF/B1M4sw3gYNuS0gPjI55FDw1AgDHLY+DOZGgl469YN2t/blwEhrc2tAtcRiSEWyjO0B6vvuDY7jKyoA2GoBYwMAzGYTpPnsbNobaI9fg58QdWHPoEsOwxUDiBL9kVhWBsJDCkwnhdNRDMPHjDk7yH0K5y7cEHyfvQGvP2Dt2RuYTKJfgGPdti5QB2INGZ4ZFTIRjgEPsdvJdzEf9UoBzYcwFN59HI0l0Om7lrJ1fWNN9HZ190zIlEehiFDPTo6abNzQwwNJTYgAmgAmppSNcjOX8tLyzTOxgUkgCpAW2sL3ZueoWvXrguJePz4cTp65LDA+t7eHsnj796bYhi/ytF+nB/fJpG/wPn5AJ/X1MwDunvnnqQIUBcePnxIFIHoI8C8gR9e+6FIiuGovvTqazInAFwE/rs52ywzC0fHJkShePvGDZk81NbWIZ2EszPTohno6x88yc7mYDKZuNsoBjQcwFN3TE5MhNF/a3v7THt72wEIdTq6uiiXTYoRodyGn0H629nVTffv3aUHbECoBkywYQ4NjdDc7Izk+ojM1YpHVb82qAPGCAGPNA5xJO/v6xFk0NbaLCjgvYUFQQtzyXmB/E38OiVGCB2tOfrwyiojkjVBACgZ9jKywHPBgXheiQ0+I46HIbwMCkHJEr3/MPpJdjRtnR3ihGDoQC5IFeDIZqbvS1kQpcztra2moFp5hR3SXZxj42g4gKfquHz5co38Q/mvUnm9p6fXBdzf3d6kZobfAwND0mF3+9ZNNph0bamHY0tVAKU+KPba+/vFuDCoA918t+7cEWOHsfZxpAesd2WjqE3z80v0gOF3f1+/jPtCkxEMD2kGJgJtbG2KdLc6MiKtwV3SP5CRCsNtdAPevcOOKccO4YAIgdD+Ozo2wkb9QBwAXnNwqCzlTTgupByVSlm6AUvFEvX3D9ImpwMB+ZIKYPDI3du3vpHN5X45aECAhgN42g406IgD4P9dunL56zDSA5MHaX72AW2srnB0bRMjB2xGxIaBTkwckD5/ROIKpwswKEznaeVoCxPCINAiJLiMBqDwQ8RP81cy4Uo34JIaCfbKyy/VjHh9g/rZUcxzTn7t6rWaPJgdyOkTx0W/n0olxAl85w+/K0pDpBenTp6gRDJBeU4XfE4HkKpk2TGgIQgcwY1r12SYCFDIhWeeFRSxtIxBJhuSRhw+fEyGhuBcOrt7nu8d6Gvnk99sDAlpOICn6thVUmBGAAf8IDi9wkayurRCVuBLPz+g/pEjR6l/cJDWVpY5stuiroNEuKm5Rcp3Vy9/JFEbhjs8MkxjY2MCu9HPv8SGjiGgSB9QTUA1ADMEoBPA8wvhx1HYY0diieqAxLBRnShx5N7Z2yG34EqkRv0fnX39A/1SbgR3MDPzQGTFE5zKZLMXZdYnSMoH09MyqQhIoFQs0MrqKt1lZALREBwYUMcaxEB8Lvy8fdevXn+JH/tvGtWAhgN4qg4w9MIBOO5LnZ1dLasrS8KeHz48KcM7wb5ns03SRSdwPJOVJiDIbAfYKXRyTo25Gh7n/Puy4KOFmhm6QykIB/DR1et048ZNzOKjC+fP0tnTp0RZ2NXdIVH7/Q8uiRBofWOIDowfoPPnzsk5gei7f/8B3eIoDsHQmdNn6MTxozI4pLOjnYrFMn3w/gciK95IJekEQ3z0J8ARSaWCH9NfGpBpwPzeaOb+NBXBT/B5gQycm58THuD4iVOYSmR51fIbIwfH/02jGtBwAE/VAYPAiC1G81/HZJ1yqcjGmpJImWPDR1kNOn/bsaT0B0ewsrpMGwLFC5Q5kZEJvfNz89TZ1UHrm1vS2QeWHvAbX4j4GCMGNh+lQ0wYxpRfROHd3R0qlgqCGJpyGYH7Rc7jm/hxEAqhEoFSI3oW0KSEIaNJPll0F+J5YOxj4+PS4Xf71m3a4HQEiOXI0WMyDhwkJhwaIj1kzHiPcw9mxemA+FxfX5UUplytfnVwaBj3YGNrSMMBPD1HAss1LepkKP4y4P2RI8ekVRdkHnJ8RH1o6W/dvCWwHck/ZMIwQuB1DPdARMa8P/wLFh6lPZKxXCUaGx0jlw1NmoT4767duC1DPHo4kmOz0KHJSZkLOD42TmvsVNAZuMPOYGR4RPgJzPcD6dfCDuPylat0n6E9nMjFCxcYUZyTbsChIaCFGUYlq8IdoDmosLfPhv5AXrelrZXOnjsvcwZQ3UDeD04AqYqMNsNsw2zTgZm5hXP883cad0XDATw1RzMbU7FcvpBtbeufX5il3u4+OnBwghbmHkiN3eIcP5MSJyFTf0AETh4+JNEzk6515U0zvN7d35MojZFgcA4oB6IbMMPOBHP/4ChybGzQBGxsrPHv96W0N8FGiNJcT1cbzS0s0b179yTfb2lppskDI4IIgDzSyaQsDYERoyEI3APWk+2gmSidElISMl+8NkaE37p1kx48mJbzfGH4Zfn95tYmdgNIxeHEqdOiVMR77OzuxsQi16LglXQq2XAADQfw9BzTD2ZAwr05NDJGW1vbVC6WaHC4T8puSA8Al0+eOiXE2dLigsB51Pah/W9rbyOXUcOdO3eklo95gadOnhT+YHd3X0Z1zczO0YOZByIgGuS8HogCjxVkwc8Dx7GyssYIwhZFYAf/DYwcz7+8skFT9++LExro65dBoWD8kddDcnz9+mVaXFiggfVBOnfhnJQisSgE/4I3ABJob+mUCgUUjTOMHoZGRjk9OMoObp5RzoaoBA8fPiLy5M3N7V8opdN/o3FXNBzAU3OwcSX2t/JfQfMOSm47O6jDb9OBiUmpoyMNQFQF+YcmG2zdWWTIvrKyJK276PCDXBcEIGA1NAKtLW1SiqsZ8YpM60HfQE93Fx0/epgwZbizo40dRoXeuvQRG+iWpBlnMdfvwnkp7Q30YgDITZqemZbo3c1/M8nIBBxEG0aCYeHIxoZwCzB0kHdIP7AIFIgCcwPhxFAxgMYB8wGkRMBPtrG2Rnfv3hJEAySAxabQELS2tZ3y/eQY/GLjzmg4gKfiyKQzJ0tNlYPtbDQDHKGnpm5TOp0VWS066ADz0VW3v1+gXC4nLcCYEQASDRuAMQbsyNEjohfAHMBNhtRo/a3yY7CSC0YIaTAcAAwQbbhg4eE0QAKCOwCRBwcE0g8GjfJdkZ0D1n2BAEynM4IOMJBkauq+DBBJZzOiQoTBHz12RJzS9atXpRKAisE4pxeYRAzyD2w/HBe6CkdGR2SJ6AY4jmRCOhOXlpaFr0gVCi1zs/NfajiAL4AD+E//y/+mcUX/uOiPVlyy3hgeHk5hLh8M5OSJWplODJyNGI02kNveuHFDBm9Klx8bOxh2/L2w82TLoM4OTglW19ZpeXlJDNqyHTp39iy1MBLAKDH0A1y9fkukuCDjTp44TqdPnaT5+UUaHRmSFWLXr1+X6gLm/I2zA0FDEGr5zS3N9P4Htb2Ci2zYEBH1YgYhOxykDdhUBOcCnQEQAaYJf/TRJRlFNjo6RqfPnKFdTgXa+LEweDwnthzBMdy5fYtfJ0N9/QNYSvKN//tf++u/YrYHN45HH//lf/pXn1wHANFI4/j4AwTZjRs3v97T1ycw/8HMDI2NDlN7ZxdN3b0tM/SIozIMHgQeIjeGg0wODkonH7T0gPwov+3sbjOUHqUcQ3809eC/8XsYM/LxlJ2skYNSIvSkLTfH6AIlRxzt7a1iwNtspOAeSvx3KAvm2fCBElyFBjAzIIUGJAwm3c9LxQHaADiXEydP1sqCY2P07rvv0SYjBiwWBUKBJHhtY004B6wgS6ZOS3UB8mDwE7lcswiINjbWn2fH08oOYLtxh3yOEQCiVuP4+OjPxjy+s719Bqx8S+sBWl9b5ShPHMk7xZCgicP67dHhMUoeTMrWH+TgqLXDoLB6C6W9WoqQF8XfxXMD1HTsKO3wf6N0NzU9zfn2PREFHT5yRDb+wmmAO9hn45uZmxf4Pjo2Ko1A6AZERx9Wed1/MC9yXhwY+nHk8GEx1n7+W5QlfvjhO9KiDOHQK6+8LAgG5CDkzMlUgtxkrSIA6fC9O3dlkhH++8zZc6IoXBRuwuEU4riQltActLW1D3505eoLlUrlt63GCvGPPf53/+s/9+Q6gEGOUo3jRx8Yv729s/tCKpNpW1tZo87ObsnLEVlB/o2OjsvcPWj40dmHeYAg9lA6w3BNTP7FJGBE2x7M+cOwTikplkRY5KhBnrKmC8M8+eeQFw+wYdsMy9tbmyXSv/f+fSHjkKu//NKLkt9jrl9nWxNdunJTiL2a2GeMRjsH+XWqNdKxUKwtEGFn0sROAVN+MBsAuT2mDR+aPCxIBCPM8DpbWxsiSsKBoSL3p+6JahAzBKoVXzQDTYw20um0xY7gDUZHv90QBX+OEcA055mN40cfMKpEMvVNEH9rnC93MSweHOjl3HkZW4Fknt6BiQPSXAOHAKPBZB7HGaulDxyBwcJDqDMx3stGmaUOaPXZmO+ycRUL+zQ0Mk5d7FigvkO64QcWzS0s0+z8PJX6eoTcq20XrkiDDrYCY7EHYLrvD0hEh0PA1B84ojt378s2YfxsdHRElohgn+DBiQmamZ2lKX5dlCixPRgViPWNdZkbWMKikaFhIRcPHTlKd2/fltJgkt/P7s4eI5d5Wl5eZMTgSorCX1+dOHDorzCSaKgCP68OANNfG8ePTACQ27cXiqWXUJLDCG6M9upnw2lv65S8GYIZRG04ADeRFMksADGMRtpo2agg0EEjD4Zuog0XYh9wZyWOzttYDcYGffLoYWn7TSWT4kC+/4N3GHrPC1H4pZdelt6AVekG7KbllVX68NIlRh5lkRKfPFFbB47dgGgN/sPvfU9q90AUx48d4ddDN2KgHJIthB+4APx7j53B9StX+dwdOnfxGTp+4gRtbm7KmHJEejQnjYyMyWRjVALARQAxTN+fgmOaHOpKn3GD8nuNe+Vz6gAObPybxhX9UfCffNqi9nN3Us8Nbm5uyaZd2woE1gMy9/SN0s1r16TbDr30mAHYyo5gmw0F47aR22PZBtqEgQSuXLkiWn5wAejzxzSfBOfgMN6FpRXZ4IvZAh2dHaIrQDeh6ySErXc8RyoG2ogD5aBQXYBzwdhwtBFD9QfSDi2/Pb09tMUOBpOJ5mbnZUx4b38/XXz2GUUodtIPf/i21PfTfoqqnFJs7u/TbY78GB6C0eSnz5wTkhJpQEtzq0wSRnPT8tIitXQNJL25d15Orl99L7CTjRvmRx7/lyfXASy/9Xbj8/lR8Z+trGo5X7VeOmwtbZY4L9+WFGCZoTBUemDrRW4rK8Ly1NHRxREYEH1LWoCxvQcVge7ubjEoWeHFxoq13sePHhOhzsAg1ntn6fade7LxN5VMyQDQM6dO1FqDu7pE4IMhoTDkjY0xmpgYpwsQAuULNNjfS3fvTvFXbVIX5gYAEeA8MX0Y/MS777wnC0uxB+D4iePSoLSL2YRFEJAtokQEF4S/v3r1qpCcIPYOHDgoqQ5IQTD/WG2GqgQak/oGhii5l6e933vv51t7E3+T3MbuwM8lAkj1DzWu6I/K/y3Lsa7feHPw1q/RwuCfZLg8wwaers3Ug6SXIThENrbt1Cb/yEQfV9IBLOe8feuGyGoxrgsGj5r9zMy0OIQtNiSoAsHkO0MjAuXhSNDvXyMGM9TV0SmjumDEMLxSuSxineZcrcmo3FwR8ZAfeMLggyBEaoHzwbBQVCBKxYoMIHFdWyI6GopQMQAZCKkvcn2cK8Z/I5VBKRLoA85nms8dtX+cJ+YagvMA+snkmqlzZJJKv/23iGbunC00HRuxqPqgccd8Dh3Axr2ZxhX9UeHft0+22MGhrvkb9Iz763T/wJ+hntEj1J3fotm5GYHnKZHRDkhJEAz63Ts3hYhDNHUZOsMhgDdAqa2ToygY9i50A3IUhiFiYEe+UJKNv45rsZG5lEyn6cq1Gxx552QhyeDQoHQLLi0tyRbf5bUN4QbgDEb4v/t6e9khFYX1R1vvtRs36c6d2wLZgSaeuXie1jY2aZDPE4NBoEDEkBE4HcCLrc0NeS44ELQsw5kg+sP4Ee1zjBL2UQ5k5LO4tkn9jHKc93+FOj/4ddp2gtbV23dfdtLu/4iqRuP4nDmAcqXUuKKPjP58oavBa27ST1dsooHZa9Tv/XeUONFENPYVmjzWTWnXkyoK6uIg1dBSC5EOFmtivj4ivs1QOiFOwBMlH4hAEH0wQGgMkHfLmK5MWngBRF9s/8XIL4iEwMwfPHhAdAFg7TvaWmQ3IOb5I51AyXFibFgGf8Lr5Ph5rt/Yk+advXxtCSi4AqATtA/DRDs5rQCphyala1ev0P17U+KoXnzxJWrmVAUlRfQcgKzEINO+gUHKtXXT1Xuz1G5t0dDb/5wSUzfYP2LuIUHj8PXOQxP/Y9BYHfb5cwCTrzW2uzzywBCMH/zga3ZxQ4oBJb7Zc6tLlPtXf5m8g+eoeuo/oNSxb9JaPqDttS3yglsysrufjQVz9GHIgPKQ36LSAoIOqrv8/p6U0I4cOULHjh2j5c5VIQOlG3B2lpqyOSkHQrUnk4PaO2T8N1p8MTaMgiFZ4tGiGn0gMlpaWad5hvYgBHsYzmP0F8p8IyPDsjnoJkfyJf49xEBnzp6RtAG8ApSLU2z8GGaa4bQCZcWdrS26e/cOdXR20YHDJ6ipe5i8Sp6qs+/SielfpbYH75Cf55QDwsQy5iQQVIwvJTLpFov8HWqIgj5fDmBeur8ax0MIwKOR9P72BU1ucwpNyWYiD8jg9geUmf6A7A9+icYGnqfZ5HHyrXbKdY5Qtn2AunqHqLU5wwb9gNZX12Qtd29Pj8iEEYkhzEHER6qQzjZRB+fbV6/fkNZbi50GZgKeOHpYJvNgtRcGcXz/gw84XdgUzuDi+XPUfP68pA59PV10FZD/9m12Qr6QehPjozKevIudD9aab3DKILJhfh4EaVQiUN/HzILBIew7gIBogrDo5M7lm7RZCCgX2OTuTVP13X9Nzs3foZbFW9RUZGPn9+9htWG5dk0sAIxKYXjl1s3nMu1Nvxc0RoV9vhxAMtso3zwc/S3ydvLPuoHXrkRxEjHxPW74gGGvhe/np6h/ZYp6U/z4rlFyd96gUv9FstpOULLnNJUoSyvbZdotrlFrWw8dOXacmlseUDdHV4z2npuflZl9mCGAphso9ZAWQFwM44baEKU/wHbMF6jNJLbEYEWC7HtC2gFpODKQJCM/X1/fpNnZeREMQXU4xg5ha3NLtP7zC/N0ldOLPX7+0+cu0uTRE2RlOvlxnKZszlL37oc0unGN+h7cJHd1mrp2ywSTLvHL+hz1rUptMSpOp1JVjtEhyw8Sr5Gd/j1qpAGfLwewt7jeuKL10Z+/Ur7/jWRSGT7f8Izg5aaX+9tWPCH/vgJnUA3IXZimxPLfp1Ti75PHMN7qGaO+5gnOrUeoEIyQW+SftUxQa+cAtfW00eZWgaaXr0k5zs6207PnjlFTS4ekCin+unTlGsP2eeESTh4/TmdOnxaYPz46Qisc0W/crK0ZO3hwksb4Zxl+zYxs9W2h9z/8iFOKef7vJvrSa6/R0d4BWl7boY6eFtotkYiRmmmXUkvfp9Lab1Pm1luU3r5B7sYcvZzfIp8fU2bjLvN730/VroHjCyoKL5CtnIDDP8vwY1aXFr+xu7n+V/nBXiML+Bw5AESgxlHvAKzWtFX9kpMWKoAcdbPD8EEOIgKCQJeSG76cWmpQdWuPtQv7RNPXqNm6Rp2pmqPwbjRT0NRB6XQ7VfqPUio3RJNbJdosZah9a5MqC7tE+QTZzR2UyjLs9ytUYRi+m6/wY1tk5FePlaLm9iYqUoL22EgLVUYeDEWyuQw1s4NJsJU61U1KlFappbJA7WWf7DtrVN5dpuTyNCOXNepZvEnf2J+jdHGP3Kk9zueJ2uza+6n6tUhfTdQmfjK4kAhf9WpGD0eA94z3iB/Je1VpQNJxJnOjoycybbmPGmnA58gBHHnjhcYVNQ6M1dpfWj9TunZ1NFDQH0bvJGuMt2z8wZddM4bQCVi139nq5/gbsORl/rI9RNBdckq7lLBmiBYvUZZ/fmK/lkt7V/mxv+VSSzJNDufujMfptBfQoSpD+wwb9kI7P1eSMl6VKvz7LDvtF/O7jEYqlFu1yfteldL7bNAWpwNOhc4X+YnLBf7vMgU3Say5tZY5UMaSVJ88fn0faUwOE4/5V/yFKh6MmZ9G3gsqoXifgPqybtSu/TecBd5voLgROEeXvDQnLy+nm7MfedXG6rDPjQNYvHG9cUVjHsBiuO5/NeUGMusi6dQiHVKAIKgZOJCANngcfm0Zr/xO9mUE6jFB7UschVP7cWDX+ANI8ysIlH7t8RZbacLbYxSwJ8+R5sfDSQi6mK89bxqRmf/N8vM18c/tRM0Y8fq5RC1i43UsjVao5q3giOT1vdp5+sqx+fpUVUS31FegHJw4sGrtfcGmcR3K6v3hNTU6wN+wz6KNqfu/WNjb/G8bN9HnyAEU1MabxqHgv2U5ub3SV1JpBfsR/d0aAagjPanop8lBIF5hw/2awanSO5nDcjQqdvTjcGiro8g5kEop8N8wdnyPTxzcQ9WqOQ+gi6o6ASuhzsFW0MSKnp608wnUa+rv1flbynnpJT8aveA9VvT7Uo5OR/4EHJJX++9A/a2j0oKEZZ9JZZsGGAksNO6kz4kDyCYb3YBR9Oebu+IdTdn5w5Yi+mAMqWTN6LRB2Za68e3IIQgiUAYEw3HsOKkowMFRBJpdi8b6sfL3xgN1rh1DFKHF8v9ZUfoR+50yyMCOILq5wcvShh9EiMBWhq0fF6Y1Kre31fNrzkOjHUtdG3EM6j25VOlcvjXzMv/nP2vcTJ8XB6CWXjaOWgisbu68au9tZsmK8nzkzNqgxcB8I9enWpVAR0jX1tauEUUtOpIynhBBeLXnsZTRa/hNqsqA34nTsaP0Qhug/OtFRiq279ccjF9VaMSmcHdP4Ef4XvMTmtEXZ0OKF6hETg7oB9wA3le1EqU7QojatfRFVwLKCnLgOjS1NX+1bXzgn1Fjd+DnwwGk2xoIICIAHdqeW/hGQkVQ2JAQXK6yH9uI9hRBep1HO1aUDuBfTZL5fvT70CAN+4AxC2dgRzBdB3XbilABGZHf1neBisz69+AFBAkoR6DRhCbxfE9zDkY0t+LPYYKOgCLnYf4e16jkRw5EyqT82na1+qXmrrYc/2a/cUd9DhxAcWuncUWJtC5/kPK7FxKpCBLjxjahuIbW8q8fwW3kzAmjIhAo50EqjzfhN6l/VXu/PL9txVMRDe/9IHIcOrJrrY1lG1yEH0VvP4gQCKnUhEyIr/QMmqPwVfoBR4fIbmnKQP0e78NTaY3O//0gQiWu+m95v+Xy2PQ7Hz1nJ6p/0JAFfw4cQEv/aOOKCgR2aG9h9dlCdbrLytTILrm5lQPQ6TaiuagDVfkrUAYcJvtKIwCNfHj/B9G/gTLGoBI3yjA3t6N83jKIRjFsFdXFgPXvVWS2FVEYRmzlYDShSKqEqYm7QCGVoBo5Cv332omIBsKPOAyfIg1AVTkKXCdfEZq2EIGe5dvZL7m55j+gRnfgk+8A5j+81Lii2gL2899oSRnEnaoAOAYx5tp1xJqC0kkV7XUJzVLOQog/bfzKMG2TlFPIQpOOWmko/2kb0Fs5gZAvsOLwPvAix2DbkSGbBKFONQKvHv1EKYKtxE6aq6j48fTDVhFfcx6a40golADEVCiUvpHq7/3PaiOMGijgiXYAiZYGB6COHOW3X9GGrgkuRHsNf8Pc3DAoW0VW3OquE9cGuE5ktCH8VoYbeJEhi7BGP6/mAPCvTjHsyNlIlHaik9bGGT7ATCP0z7THsaOUI1DpRWCcl2/8rW1H70+cYRCJokKOUTkmTTLq6gef99FUruloujl9tTEj4Al3ACNnLzTgP1v5zvzy2e0H8weSLTU2W5pc3Ij0c5QhQg1o1xlZaMiqb0AcBtXKdeIgdP+AUUID9NbGqxWGZjqhYbhjIgAnQgU6RQjI+F0QOQmTAzDTBSkjGpHfMog+HeF10YCsSOyj9QL41wvi+gCZC+DVor/8zi9nCpurLyUy7Vf9hirwyXYAC5ffb1xRLP/Y2PlqJulbZJBfTjIyFDOfhxEgxzcjuq/gr6UiJL73dXR0o+cMNOsWGFBbR3wVmW1N0pkGrCOsExk9UR1fYOoK7CjXl4fbhggoiM4n5AGCuG5AS4G94CFgUSsNqmgf+PESKN57hq9bcW3/F3uPHPr/Bo1y4JPtADKd3Y0rajt2ZWH951xlJLoO7riG4MZE2YYoSOfcGu5rNt/zjOhu5uIUORIz+pqkn+8ZjkUbq1+L8pLHO1GubpKTYf3fjwzfNioFmujTP4j17OgKh64aeEr7r4lPuwb5/TqFoG9KihVCkiEhpcK5jdn1PssKlho32BPsAFZv3nvqLyjn44ebq/kTdroWfRHRUNN2DQGQmduHkd6KGmR0tPWN6KuFRDq6hnl5NYrwOkAGSkZsGc4lRBgqfw+sKEUIWXwFzUMlYhDP5QOVHqCCoB2GLgtqEZLucBLtgGVwEVakErQM7UOsPBhEDgJNQ46SI1vVUvfGg+kX0y2pfxl4DRTwxDqAZFP6KYf/Nvn7hZftip/VNXwtAMJ9DjVcOkkxAZCOzHiMr5lw22D1KVLpCWxPRDxByOobvIA4CzeC4EbZPioVapGQXec0dIlSqfvCqoPpeILIefgqsgeG4tCyDLUgxZ2ASIV1lcCpIQLN7Ze8OBnpKP5AE6h2MvXVjpF+dgANHuCJdQCjzz33dNs/W978t//oGzrSy72qmn90lJOob0Q+UnV3zzBWU7BjGqz9iN4AHaJ1FA9LenY8dw/RgC4HVlVnn/5bx6gq+JEWgOpy9sBIL2zbgP4WxVV+ChH4VcPxUJTm+BXjPFXHYqka9QNYfkSYJvmC7WxvvlbYTWasICg0zPYJdQDTb3//aTZ/johBf2J7/Tk7VbuxRQCk2nDFcF2jOcaoxWvYrSG5ZvLJUAhaQdRjr3Nu24DplvWwIwjz63r2PjAUfVach7CUEs/kBgM/rhUwI7VlIAPyIw2BZfQr+HbUPmyrfgAzFdJGr8uIWv2oKwe4bnbeGw9KqfPNva3fa1QDnlAHkOtqf4rRv02lzd3zlu/1uE4Ef1Ou0eyjorxnRFxLi23Uz8zUQDsLCqIeAF3PD9uI63oBQhTgGbDcNqS+ZhlQkYDhjwNDC+BHzT4xBxLUOROKOxQgB0R93zfSCl/N/Qsig7f0dTBRj9HZCMNHQ5GtqgGOHdilneLr+8nU9xppwBPqADbuTj+95B/ftUkv+GZL0rjJAfeTUaB1NCKw4nBYw2mdZ2uYryNiqAg0yDyLlJH7Rj8BGXyAVWek6vCqEXLQvwvFPNqu7LgWIExDyCD8rCjKP5QqWPGKR/gvxecBkDrvqtlNaMV1DJaSBacYVW0vLX6zmN/+64HvBw1N4BPoAHwwVE+rAyDKUjH/GrT/jjJmlLC0YTtOlBsHegaAnuzjR/39ljEkxDZy7bAEZ0XtvRo5aG4gIIM5tykmCw7JRMswNgX3Qzbfjs8GCJuWFHehT0o/tx/E1YkhijCchu3XgIYu+UkKUI1GnoWw364JnwrlSCKsUxgtnHIt51jPoUOHcp2ttwK/gQKeOAdw+PWXn8qLKOq/hZWT2z9854CG/7qUJv3/TnzeXzgbwI7n2rZZ57ejEpwbRLm1DqVhBcGLZgpog7Ipru3XNXkN3QNjWEjE6BldiVRLDTTDH+tXCAwHYiCUSIgQGb8QgFrlZ9XuNiAQ7RB0j4OrxEBlr+YEyoGhZFRoSCoBQTVX3Nl7JdWSudXgAZ5ABzD7/jtPKQFgkVOyvpp0A8c2mlx07V9KgF7U8adVeDoiOkajjp6w4yk5rG0YbAijNZb2IphvGb/368g6XUHwjLZbk3yMGbYRmbVjMZl+s39BpwlkyIUDs1tRcREi8VUoxVeOLhHUZgBYxkg0/b4SdpRaoELgqyYhpAEb92d+vhrs/z1qyAGePAfwNE5wrQlrLCvY2X8za8h98fNkok6jb0UGXN+37xiRn4J4F6CuHjgaFhtdefSIqdmWMjI96UfX60OewSD5DF4wNpxEvw/fTDcCQztgagPsyBHZdnwkWGDFh4WQgSACkwC1FB9p1RxDeIM6tXPFwHk4RKdEF1w70c1/tdow3yfMAaTST183oAz/KFUnXX/rVFjGU62+thvl1bGeegXpAyeuo9dMf2BMy9VGHwTxakIIArxIfBPT5HsPl+5Mw5QInogif+jQgigl0N2EluFsAj0EpFqrRoS8hpL8hk1CQbyUaS4AKXpG6VLLf33DESnZcFVLof3IgVleuW/11gzmz/9Gw3yfMAfQ1Dv49DkAvqMLyxsv+/5ykxnVU4la1NcoWfe9h5NzlEEBJYjtVA3izoqqALqUpxGE1unbxqCNkA/Qkt461j1GNBjMvM7RbUMGbM4TDIypwjraW0FUsgwRgf8wKtKKwnrJb6juUyPNK9WIEPXVdZEKZRBxB2bqJCPWWtq/OnDywG802oOfMAeQbH36qgBQ/23fWP1GWs3613V1W/2350XDPbXaT6cBOlWQxySiNED/THfyOcqLaM4gMBxI/aReMib06Ehdc1TGINC6nDuoq+3L3xt7DDXHUD8dOKhrANIDQjTfoNGIrXT+umMx1pdAUb7vqglBXhBPefBvSS0UAa9SLZZfc9PJTOB7hcaQkCfIAaxff/CUWb/cvD32/t5zbjJa/aUn4+o8XotwXIqm+oZR3o932QVWfEqPbslNqE8qJBBl2H/doE5SpUUVuWFN9W3Cdp26MCT5jLp9YAwF0dUH3zBoy5gEHFYY/IhMiFUbzNHgVtxfiB7AuJaxYaUUKRNJLQ711Fi1oFA8+OC9y2fclP82NTaHPTkOoHPy+FMG/13KL6+dy8/P9VvpuNDFNaKXZUe773RnX2gEVjTlNyQIKRoIUk/MheIdnQLQoyfxhHm3HeUCWsln1bUg6+GeMSShYL7ZBUhGNx+ZUTwwkIMq/wV156zRkClH1vMKXD8aFKLpBz00JDCmGjvKabqW53iU+FIim327sTvwCXIAy7cvPVUXD+q/YGvvmy3paOw2DB/5vzZ6q27tl23Ic+sNRM/lFz2AkbNbRskutj0oiBv2o6b7hAgjiFaKmfl5GKkNYRAF8U7BWGJfZ8Am56BlwGGZ0Y+chnZyniFxrhitzJahkfDV1iBdBfGNjkJcX6Ch0m75W7mD4/91UK0G8Zpn4/jZkYA9PU9ZCmCnC5s7r4X7/fT0n0QE6x1DkWcu/TRba80mHKtOTFPfgkvGQg9TWUiGMYerxayHy3a2Md8/rNWT8XPDIcQm/ljGRCCt8a+rKoSdiSY/YEUz/0QoWq09DtA/ofoDdOefT5GiMWxjNhASrmVZ6SnscuVUIpU6mOltu9MgA58QB5DIBE+R7dtU3Nw/bpcKh9xcPILpfD2oJ+fMTjcy2nqDSA4cqu9AqhpDPHHolVq61CalRDJy/DpkYa77surZfDPvNvL18DmNeYF69l+somB0AYYdisYIMj1ANKga+b9vTP4JIrQSzg+0ohFhHsV5BO1gHT1e3S83bS0uvOhT252GKvAJcQBb99eeIgdgkb+ffzPrBi4ZubVs/lHwVW8B8tQgD8eI6LqGn9B5to7efpQ+BGqPnuvEJ/6YfftkkodGqU7XH/WcfzLyeHOJaPh8RuUgHAbqRCO+wzTDMWb/1ZF6FMQjvxg3KgBl9Rx+VMGwDALUMgaFar2Ap/QBCV0qVANR9XtPJon2Fza+Zdv2P2zsDHhCHEDf8VNPS/YvBODaD955U0/9MW/o+kEcIQdg1PBNEk0bnK8Xeyrj0/C5ftlmOMTDIOEsgxwks4XYodgyUDJEQTbFy3zhu9M/q+sGDNuFfWNFuNG0Y/IGliIyzcWlptBHnJtxRcXodVMQ1VaJO4YMOdx9qK4DGq3ypfxzleJeJ/9ovWHKT4ADePDRe09H9Oc70Cv7B3L57fN2MoKwiEqOa/Ty16n8HKNF1zYn6PgR+x/aqh+NCbPrWPww2gfxWn7IAZjS2zoDjo0FM6J2QMYEYWNIiIlu5HUqChkYHYtaNxD4dSvDVaT3/AiNmKmJbgvW8wdtK3IKOhXQp2IbpdOEdqYVb8D3Us9l29K/5TeqAT97B5Buan46rhpbsrdfecHZ32zWdXGd/2u4rmf7y8orinf/mew9dPq6aUjvADQ1AJYV7yQkY/KPrsVbziNY+rrJPSGzb0zsIcvI2Sk+f0A3JflGFUF+7kbvQVILv7ZENDCaiQJz+acpCAoMHYOnnpsUEWiWMRXbHxi8hxUYxq++z8DpWMmvtBx95rcaQ0KeAAcwTZ+9FDjg/7lsCY5lhLOfdgLAVtO2d/1bzarV11zvrafx6hzecQ0orzbxOLYx8IOMPYEmmWZFgh9tNFVlDFANegYBqJt+YudoBMSQ4Q/iDsEcHmIOEDFbjy1jvbhljPbSvECYVZioQ5OG9RUITfKp8/X8CA0J8admIVb8yHlqY8fflw3iUe9T2Nra+PJyqZwKqpXSz6QaKF47JbMwbK/C51w/s/0pcgAnX3/uM7/YyUSSZrYtmtu1OXq5fP/6P1U3IK29dqKrdefBC4ntzRiLnUxEhJqnblDzD02YHhhy13ALsJE2BEZvviYTHXN0N0XaeVNJGBvoQfF9AWGzkVkBqFvWoQVEIZOv+w/q0gOrbiqwOYNQC3zMmR2WMnKdNlQpYv5tNTjEpmg/YKC6AvX5VhQ68qqRg61KSlI+WMqOnGxu7XjP/xmgAI8NP5h+i5o2p2i7dZw8hkXW52iByWN1AF+eqHy29s93ezLbTNbdP6KPus/TVOokR81Aed2fEvpnK1zaKZ3Op1sHnZ3ZWqQKovKfU1frtyk+RdccAuIaLbrhSmwytgZTtFk4nN9p5OaWFZ/lX8/uO0aHIRlEpCYGbYN0sG2jQ8+OLxg1pwuFyMIzImC9OEmvF9c/1z8K4lOFQ4RC0SjwShDNLXAUkvCMuQV676Grl5nkMom9zNirTqrtvZ/2lCCf30lHdZU6nR1qq8zSdPYIld0Mv2//6XQAxc/W/mvMMb8GX2I6s/ubVNldpd/dOkbpn+KkaNyHxcD9+dZDz5O9eTWMuK5jQF0nIvVC2W3wMNOuy3y24TAqBmtOagho2PVnOoxKRJwFQRw9aNJOpgXZD9fSw2m+hmrQ9yLyzpT1xojEOuLRMisIdSPDwrViTrQ4VJf3PIoIv3AMglXr+dfG7dc7ATIGmqjqA1BDYegUbe/s/LzrFf/GT08RGDD6SJG7PUMDd/8BFbuGqeJwGsAXB19PLQL46XleJJIlmughGqhWaXY9oIRV+SnkXnLHp8rl/dfc8YtU3vyAUtfexzTAaA4/xakJjQYso6QXlsH82tJQs1Em4RgjwuyIba+X/FpmE5ATGaNvKOtMhaA5wZfMMqS5788ypgCZa8T1iDJzozHVVQp0M5BjEJz0MELBuYID8MhwOOp7gfUUnYeeg6D7KjyjouGyt9htSlPxwAvUlk2fKpUK45Zl3/9p3X+dziK10iK5nJIGZiPF00wC/lSdAN+xLuPkP9F3lf6nfAdtJibIDUqfbfTnOy+fzx/d29s9nGO8v3Tiz9Do2hS5G5vkNkfwXutS9G1hMu12HSFmOgwhxozpPWF/v5HbW0aNX7+WFtg4QVxCa3YV2sbEYVtvBjYcgxnNw7kAjpEGUET8xaTEYb5BodLPUu+DDIMN15Eb/QCuHen8Je8HoVqNnIBjPE8Y+Uk1DyUsmj70dersHadqYad1ZWnjpUK+cN/6jFEA+j9svoAXEr9Nu7ljfP6fX+P/XDsAHFV2Ai3WLv1c9h59v+MZJZL57OCXzXfk+sbmmwsL88lKKU9LWz75F/4CnbvxDyixuyavnHDi3WwCdb2I4Q/q+gI0wWYHD2/a1QMwPB1h3XiDDdXPAqC4bt/SVQlDoKPbgWFlVsLQFpCR51N8KIhJEJrTi/Xsf8sxVH7VKNKbaYZv6AMk0gdRhA8nC1fiQiJdDdGlQGl1BtBj2LT50v+GmtvOU4L/yONHZzKZb06Mjf1qzKs99vQvYKifoYGP/nvqohXaoDP0eT/cz/sbKNkZjsLv0DydoButr1PS2/vMbgCbw1C1Unkz4SZofX2N/EKBZt0mGvrqf0K9b/9NyixOk5+srQJ3KWrwsU12X0Vp0xi0kMYxGnV8Lxr3bdl1BF8QZ/1tq24wCEVNRmZ5TjP7MWWiQeTpJiLdsRio6gOZ+/90qmHO8g/iqUoM7TgRv2BZ8e0/JqQPqvGhRVWz4UmvRGOAV85maff1v0T+wIvUX8nT1L17lGvKUX4//xx/Lu2MADY/M8bfdqlvb54mt65QpfeLsQfT/SK8iQrfZAe2vk0PEgdpP93DqUD1M4D/Fu0X8qPlSuV8e3s7tba0kdfUTLMz92nbn6TyK/8FtXzwd2h47m3CnBo3G+/Oq/rRfHtTEKRzeDwOubHeH6DLYXokV2y2n1dDDFQ36y8I4tDfXB5qOoTAlBTrdEU3MOlhH0ZFIkw/nGjduGW0GFu6DZgMvYAfP2/dE2Gr16+o941KqS7thbxHUEM+pIg/B5wBG39w9CytHv/TdG8zQRPFHdrN52uOmF+8WCyOrK2vX0yn078XfAYkHKB/lc1l+BKDDHb8gZ1rOIAnhxQkygT7dNG6Qu9mvimlgsedCiD6VyqVF7a3tts6OjsolUpRc2sL7e5sUVtTgrp7h+hG8f9IdPhNmpj+V0R3P6pFrgTFZLlWHREHx5C0H7HDj6KcnVRzkK67m4ZpP2KugFlpqBcIEcW39hA9vNFXOw09XShQ44z0ok8xctdIH/y6acIUtQSHA0QpIhc1uhG9hG8MAlX9BQL/8d7QLMWGv5XJ0vyxr5B9/s/S/IMFKm7O025zmo1/XXigHDvi9M4uynJv8rn93uM3f0scwKHFb1NzeYM8h74wh/tFeSMVO039Ox/S8Nom/a73PKVqRaXHyf5ToVj8VrXKcYDDMhwAhCeTk5OUwDwwdjqTQz0UpA7S0sHXKDXx29R5+zcoMX9Twp1vTAjWaYCjVIF6noCuw2vSTEdxX80M1DYa+HVrtMxRWvbDXYOhzFYx9Y4V3wsaCn+ciPwLzOfVswVt4/nVZF9zVVhME6Dgv0lYmgUSTXj6QfS+woEn5VqJjzo6aG30JbrknqS+I89RW9qhmxvL1NndTR2dnTR9/z518ffd3T2U56ic399/s7WtOen7Qfnxhf6AnXiOOlc/pN757/J99sWae+l+kd5MmZJ0yp2hhcwxWkoM85vzHgsOqBlZ0FZdq74AB7C1tckRv4fuT92jI0cmqZ1v1Omp+9TS0kyj/P3U9BYtB6fp2Ne/Tpn575D1wT+hzq1bnMMGNXjvKjZci3T8+IjwwGDBw5Za30gPvLiB66jte8aWbquO3AsiiG6u7go3CzkUm1kQsv921PUnyMNTPQB6UamRYpAxXizw67YKqR2Adt1qMoinZBwYfleu1f1peILWxl4h79gvUN7upPH9bepub6HNjU3q6e2jXv5KJBPU199PLa2tjMzK1N7WTndWVw67ztDxppbch/5jEuMEdpLsnUUavffb5LmZWm9ywwE8mUfAd5QTVOhLhd+nf930v+cb0MXS7scC/znCnMk0NY+m0mnaWFul7a0tqpTLND8/T50d3bTJTmF9c50yuRxVKyUq7yzR3AzRweN/hmazF2h25UM65l+j5vkfEi1PUVDk503VGmlidfkgEhB5ymAsxyDmrChaagWhHt4RKgON31tOvEJgzvPT5Jxdt45cN+SYWv7YlmHDIZgEpTkqrD4VCdQkH8/cX4DnKdScUyGVpqWOY2Sf+UXyhp+nj27OUvtqkY4eztJqeVeuM8i+yUOHaHt7m3Z3d2lkdIwW5ucoqdBYsVBM7u/nv8Tn8OHj6A4E7LfsEh2e+n1KlTaplGqplU8aDuDJPapWklrKK3Rq8V/Sd9t+kVOBn1wbAAJwe3f3Gy3NLZTmvH9jfU1+1srf5/fzgJ7UxZB0jm9GOIbhkRH5WeBVqTnh0+ToCG1399NO7k9TobpFwfzb1L97jSq3/x0lN6coxVZRkdU3ESFoNsuEc/7UqmxpBAroocGclv2wbNjs0jOrArHRYfTwym/LWFcWjhKzKFYq1A0JOtjGBpUY2Zet7jJZE46mnnKtLFpu7yH/1Au0mDtGH+20Uab/MB08eIiuvPc2lTaX2Dd08PXcpHt377DB79Ezzz7L6GuLbt64TgcnD/N1qNLS0iINDg0LKstkM1QoFH9+Z2fnbz2O9K/sZmlo9QPqnPsDyue66It4uF/EN+Xx2zpevU4riedozhmjhF+kH3uftNz8VmK5UHzdbe/k3D9NfX0MPVtaqLevm+YfzAocHe89IDckSoSZTJZv0ENCUG1ubXA0tqm1uYmacwn64NIC7RYGKX/ky9R84i/R8rVvU27zIxr2F6hp6ybZu0sU5MuSByPvtxRCCGJshHIQQXwnoDlY1GTgJb03RomZo7h8M4rXDQS1jfp+YA4C1bm8F3cWltlJqCoVyMY1cimwQa2lBsk9+TLRxKt0YzNNTX2T1NzcRsd2Nwm7FZKOx4jAYySVpUm+hpubG7S1vUXZbI6/36QHDx5QuVSi/f1dYkOnEn9fKpYYoeUJ1RlGaKdTKXfYsp3ZHz//C8hjaDa4P0en1v4dVRMZ+qIeX0gHgFTADqr04uzfo3+S+bO0kOgl1//xeCGM/iqXykcYdh5HZF9eXqT+gUFwApTldOAgQ1Lc/ZVKhYaGRymdSdPqygphXPXw6Cht8017/fo1ThM6aWRsVNqYvcIGbc7dofGLz5F//Ou0k3+d9ro7qOxtU2H+KvU7C0QLl2jv/ruUK89TosRoouSJQck03YIyaKNDz3Lixk8GjI/N9jBkuYE5KciJUpEQHeiVX3UaA1LjveR5K9HP9bafMgw+20LVpmEqNE0S9Zyk+6VuurrkUcvQcRo7eISm7t6iuQe3qWV9j1585RXhRRDNmxhlHTtxnPb29uU65wv7lGWHeuDAJP+uia5dvSIEYE93Dy0t8OObmoUL2N3dEadcLlc62Cm8yE77n/7Y5UAhYDw6eOvXKFXcomqyqeEAPn8owKEs5ekN9xJ9v+/fJ4ct58fhA5D/b+/sfpmNOpXf32NIuk2dXV3UzvD//v37dOjQYcpytJq6e5cjWQsdODhJD6ZnaHVtVZwHEAOko8sry9TLN+rhI0fozm2i5tZWKiFqNSWpvTnF+W2GLl26TWscFbfGvky9z/852piYpa3luzTSZtNQdp9Kq7cosT1L9tIs7S1eJbdQpCQVyWKLA6eg5wfYdpTX+4qtt+04eogNB6VonqBea26phiNzkrAsKbVrRu9hEQrnxF4yTZQbpUpumKb2LZorNJPbeYT6jr5EW5U03Z9fo962QRrs76HTHOVzmSSlkzbd3F5lh+ZTW0cHG/ICTU9P0wo7zmeeeYZTqzZOszZpZobTo2SSTpw6JdexwNdrgOF+e3sbX/OcfA7pTIbPy6Hunh4q5Pfl8yoWC98aHhn6p5/e/mtXpOrmaOCjf0Qt+/P8/Rc3+n+hHQAOqATHtn5A1cELNN3zOsPR/KduGHPYqtZW17+S5ihUqXoS+Rfm5qm1Kcs3ZIEezEzT+PgEegQEkmb4hkwkaiNyVpaW6NTZszRUHmZUsIxUQqLZ6NiE3Lxra2s0PzvLUayJhhhdAB1Y1X3aWZ6moxMD1DE+Tpsd3dTW2UXzG9s0t3eCmntz1PV8My3PTtHy1A3qb7PoQG8ro4RN2t++T+22Txv8nIWtWUrae9ScYqTCN7VXLPPzs6OoFvm892rrxoiknGlphZKVpEKpSkW2fD+RpFzvIEPxAdorupTp6qEd/tm9uQJtljJ8bkdp6MA5mlvdp33fpe6+ESpVPCpzVB49OI4lnnT7u9+hXYbvKc7mjx3op/3NEjvQfdpjTzIwNETtjIoOHDzI12GV1tfWZdZDsViku3fu0M2bN8QRXLz4LC0sLtD83D1OufqFBITDgAZgaHiYNjbWaW93l9oY/oMoRNq1t7v3gu8HLfxR73w686/dHG0b12lw9X3y0dtP1HAAn+ej4mRpfPaf066/R99bP0Ipp26c7R+DBMuV6vDW1ubF9rZW6uEoAyNeX12TYSQgBTcZEQxwHtrd3S35abFUpPGJCap6VWwNJ+CO3t5egawOY+TpmfucsxYFrnqex3ntOu2wkXRwJJycPMyv6Qii4JtYnA30BS0ZhxZ3V2hvdZq2lqrUdvocnTr9DM20D1BXDxsW58C3bt+hPTpCkwcOUOs5Rif37kh+MDo8QAk+5+np+zTQ181pS5JmH8zwe1hm6DxAQ0OD6G/gXLpKg2yUm1t7dPPOFLW2d8j72M8XaWp6VurtA32DlJvYo+L6Gg2x4S7Oz9DV2zc4/SmxQ8zRJKOfrF2ilrRFuzslid7E16ivt59mOMLfuX1LjPX0ufN0kB+7vLxcWynPb7Ont5ta29r5dXro/XffYeTiiyOdn58Th4Acf3RsjM97VZ5n8vBh+Swe8PP2sGMAytrd2RZHwDBljDz/PF/jb3/yagCnZk6OEqtv0/A7v8Twx6HASTYcwOf/YEjnBXSsfY3WnTItljrYIKr0SVhB3GC7+/vP7O3vdQwODrBB+nIzY/BEW3sr37CtbGhTIJ7kxg0koqYl+o8Mj1A6naKdvR1JG9rYoHrZgaysXKd9Nm50Fg7yYzo4uu/v7RHq1lk2orHxMY6M7bS9uU2XL1+qObEqGz0bR0dHF0fZosBxpCPgOXIJn6xKhXZWH0hFYoMR64kDL1Fz4oDcvNAmfP/tdxhOz/Jrb9DLL71IJ848zynJKvX19fC/63T15mUqlsvkWRk6c/okG3+nGF86laT7d27R5sI0FTaXaHKoizq7c2zkZX7dKiXRfsj5QBM7LBCd83NzdO3aVX7faUZF43ThwgXaYYMfHR1lI76N8V38vCmqViuS71+/epXz+mZxBqfOnAXXItccCkt432PHTwg62GYH2c7nhIrAg5kZghYD6GudEdTu3i417TcLIsDfdvf0ivNY29z8yl4+/+1PygP4lktt/k3q3/gNsvm9B2XrqVg7+hQ4AKUPII9ezL1Dvzp3gKb3E+wE/E8YF6xfQBRhJMB5ekKi9yTn/R7D3RxDd+T0uMmKfEMOcERFbrqwMM9RscoR/SBH1jItMDSFiMXhG7SFb/h9NooSI4XOzg7KpPk5SxWBrlMod+3s8vNNyHPi3i0W9iWyHTgwIUaJhSQ24/dLH17i1GRVIPAoGxui4wpH1K6ebo6sa/y1JOkIBlQkOUdOJhw26ISggkqpQJUiypRlgeq2HVCKfw+OJL+/K6XMBP+Nx9E7x8adTmdoeHhIjPnevWV+f4v838NSDTl//jwlkuwAuzrp7bfekqiO63Li5Mma/n+rKsbpJCDcGaT+gQEpmb7/3nuMPNZloJvLv1tkmI80oKOznQ4xEtrm9wzHCgcOZDIyMir1/ps3bogzxWtf/uiSnNsQO9LbjAo62rvYGTVRhdHU7Nzsm+3t7X+VnXb1E3zGQl72rPwGWf6G6u9/OqYMPxUOQEjBwKa0y06gb4G+vXaUc2D3j+kXYHPwvZaK579UZoi7ubHBOWmrQHiU/5IcHaempiS64edXrnxEzc2t7BCOclTaY+NckRSgs6tbbvB9jthJjn6HGLomONeFgg0GjDJWW1ub5MNTd+/R6voqO5syHT9+nB3NpBh1C/9+fX1DIiEiZobPHeq3UrkoxNnJUxy12RENDgxyqtFFtxgyX79+nQ0zRaf5d8eOH5Oo2sUOB07ow0sf0fLSEhvgBh3inPr8uXOUzxcIKGdqappu3r4tJOD5ixfoBP9tFxtUb28PbW3vcCS/J2kOuIzj/DsQnVWG8VVGIZlsVjiFvt4+2tqsRev5edTpB+kcO4qmbI7TIFeQFPJ9PMfIyJhwIajtF/gckC6h7Xp5cZFW+fr0s1Nt5veMdAkk4DinOPjbJKcXQEWdjIoEgXV2qmpMWZwpo6Fjp0+eOtra2nLl49OAgHy3ieij/x81VZf5+xR90cQ+DQegjrLv0rGmB1TNjdGMe14Y9I9j/9mQTy0srox1MkxfXJgTAwQCQIRHRAIEdflmdaRN2OMotkjZbEbyexjA9s4OHT56lB0AiMQ1hvIVeVxXV5fkrYuL83Tz+lVOk9toYnyCmlqaGCavSwqBVKKpqUWIsPaONpq+P023b90Sxnty8ggdnJyU/Ll/oJ//ZlvOa4fRA8QwovdnlACjxAzDbCYtRtTEBlplY9jh6FosFtgp5SXC47E5Ri45RgwepzcVNnDXTcAB8nNUaT+fF6cG5SNq7fv5fT7/XpqdnePIe4fK/HM4q5OnTgkbD74DZJ7k+Pwc0EeUyyVBQtDsd7CzO86PhXMbYQdaQ0wVTqnaxDncYOc1w+8X5T5oAe7w+15bX2MUdJCd1CA/zwI75HVOM0ZpY3OLdra3hSCcmb5PMPaakMpO7e3vf4kdx5WPSwN8K0G54nXqWn9L0oCn7Xjq3nE5SNNE/nfoveUirZVbanzAj8j2qp73LY7uFowxx9Cyu7tXFH5QnY2NjXMUb5Fy1dDQsGjUZ2emOTKl+L9HSC+s3OccFX/bzMYMwdC9u3c52u5LJKyWK0Je7WxvMuwM6Nix4xIVAaFhcHAiIBNT/HfIe8ETFHbzgj762QARbUE+Ir34kFMCGBlSixMnjotRg8RE2/LV6zdqjTPsyCYmJugoO6W5uXlJK1bZMd2fnuHom+dc/ABH3D4xevAbbfz10eUrNDc7Kwji7NmzdPGZi+wIdziqD3DUvilGjHOc4MiM3N9Dfs7OpcROoY8RCSLy0WPHaJpf4/btm5Ia9XCeDscD57CqkBII0HaG9h0d7UL6AQU0tzQLYTk1dY+diE/+hM+IZ5kd4U1OeybEqd25c1sIVPAtCwsL1MYOkw2fcpgbsLf/LUYD/+3HpYZe4FHL5b/LjnGLbFH7eQ0H8EU+MMk1bRXoubab9J39V0Sua1nBowhAZ3Fp5VVEK9zUg4NDHMldjjpjEkFh1EABiGrIQwHjYZCAn6hHo8yHn4HEus+pAm76nr4+SQVQLkQj0cmTpwTaIo/Hgksw/xASgRvYYweAdAOOBChjdHRczoOdkvzNzMwDhvHLjD4ciZ4weJkpwM8D9r2bUwFE/xaIZziiQjtfZocD59Dd3cmG0spIpIOWllf4eRaFQIQhTfD7c52EvJdUKiHlTaQpiWKphir4HPaVHgKpTCfn/ml+LOD/5cuX2XjvMnLJ0YULF+nM2TOU39sX1LC2sirRuakpK07h+tXrdOfuLSE2n33ueanng0eB2g/ViRY25CPsqOAAyvz+BgYGBEkg7cL7h5QB328zAoD+YnF+TpAIyrUgCDPssDjdOcfnOsAPXXhk3s/XbmjlX1G2tERBOks/qz0TDQfwU0cBSTqcmaain6Z3vDcoaRXryn9Q/5UO8c1/CpFxj6P48eMnGWYXOLJwHs+wFBA6w8Z6hHN+GCCMBAKVZob/99gI4ASOcR4P+IlS4T7flDBuOI179+4KUgA3MMCQtpcdQ5pRBiLkBuflMDpAf3ALQAGIfiD0hoaGROGD/Pd73/2uQGzA8XPnzrPBnefouMrG08fRfYGj+n02UHZYEweoj9HC/v6+nB/+Re4/NzcnTD2Mspud1X4mL6q6RXYq96fuC0IZ4OeaYJQAJIGSYIGdxJWrV8RIgYBOMYxvbm1mh+EKWrh7+5YgECAdOKNdRgooPyLlgeDnBDs8cB8g6uAUkcKgiQfsPh6H6A5OAi3WEE6h0oEDfAgcKpwryqo9vT00NDxE7737riCJkZERQSlNnMb0cUoEAgPXrFDId+3t7r7IDuPX4taPkl+G+so3qGnrj6jqWOTQ03m4T+n7ppLvihPYstdowxnlG6BqRH8HjPSXObdPlxhWIzLv7G5LVMSN1tc3KITU3dt3JRcHZP/w0ocSbQ8dPipGsLm1xfD0jjQGIdqiiSWVTFMHQ3aXIykcBXgBlMZyDGVHhkfFieB5kROPjo5wSnBCeAZEWYhhYCDpbE5INvQbwFEh4ifZ4ACBU4xEejm637h5kx+/KIlNX98AHTp4UIy7nc+jXC3T+x98KGkMEMFLL74g54J0BIjgo48us/OYlg1McBzjfB4Zft6uznYxfHTiwWnA6SElQf6NsluxUJTc32fEgvdcKObpMj/X+tqqVFBeeOFF1VVYM04YNM4f6QH0/hBEVTjC4+/hBEEKplMZOsrGD8eLZiBUNE4IaqrK+SH9AbICAkGFZIzTAkiw21rbBdVAc5DNZr9+/MiRX/NCIhAESYqq23OU/eHfId+1nsbA33AAAccS2yvSSfoOvdf0F/neTIRMAKDz1M72VwAtkQIUGMYucWTs7+uR6Dw3xzkxGztIwenpKYnq0ObDoDvalyWqgwAsskF3dnQIoYdaPyLTOue8uBmb2BjxXBCygMVOMOzG8yCfzmWahJVHxMPrIIJusJHMzT4QgwdZd/r0KYl4vWykMEoQkDCSAxMTUmsHKw5jg5Gt898CLQj7zsaCXB0oIsVOo8CGC+cGAwaBiOpIko0JYiRA7fn5Bbp99y47lu4aLD9yWFAEFHmzD2ZFm4+04Oz583T46GEh7iDGgTa/yE4Aw1My/JrzfM1AYiKqHz12XCI9nCSmK8HpYbx2LyOOluZWTlmuSGUA7xvGD63F0vKSGH+Orwdk14ndJBv8OK1wCrO2ts6ooFecERwmuIQt/h4pC6cFL+dLhWZ2Urt6Xpple9S1+G85X9qjwLXpafYALj3Fh2clqclbpe6lf0Hf2XmG0lZJN6sP7O7tPYMbEERUB+fTuKGRV5dKBYlY/f390pyCuj0MHDn6vXt3JC/GzQh467qO3Ih4RkS8DBvehx9+IDc8Sn3ocOMIJWU1PBaMPmr8HQzV8Xe3b92WaIeIi2iIPDmfL4ogHzC7i88H6sSNjVrJDcQbjPfFl14QeTGEMfj3ww8/ZGOdE1XdhYsX6Py5swyxVySvRlS/dOkyn9M+G2yJ05uDUsXINWcpm87RD9/5oQh8kIq8/sbrggS2tnclbVhZWhHHYfG5o0KwtblN9+9PUW4lJ2XNs2fPSyff4cNHpH6PRipEaDi+JnaOM/xYtFYDgZw+e4ZSfO5wMnBcqEoMMyoCGsB5o0kByAoo6N69e1IRQM6PVmEgMFzfK5c/EoeH973Hn9cwO9S9vb2JudmFM4wQvot0rOpkqWXjHepe/HecBthPhdin4QA+zgkw+B937tFMZowWqn2UtKpQ3l3giN09MjQsNyzIMUQxQOHBoRE2+prmHy2/gLgQs3SyMSKygpTbXN9gp5BkCN0ndfpbN25KZETJC/oyUbGtrtLEswcEvsIIgToQbRHFMGcglUzV2l3LRYmGp0+f5khb5sclKMWvffXKNUYlC/K3IBvBIyD6NbHDwvmh+gBYDAQBB+IHHhtphZGGI1wEDAzvAX+P6gGYfzgblBlhRAFYd5+vjpsQVADGfXdnj5Y5gs8tLLBDHJIqyCFGBHAymNJzmQ1wllEKrtNLLw8wFG+R9ATPDQI1ww4PjhNR/8qVyzLMo5Xh+suvfknOHcIgOKFJdhh7ezsiNkLKhfgMZSWUkjeuXxMDR3QHjwBxUorfD3oygEwwHgz/CpnKnwmnKdb+7t7PMeL5rme51Fq5QcNrv0WB83RD/4YDMKoCUAW+mvl39Lulb9Ge1Ul+eesXUNtHSyqIOtGhczQpcvQHgdUpUt0tufFGR8eEpUaUbG1ppS6OyNevXRGUALgOg0L9H5Grf2hQdAHQsmOEFUqKgPlIGSCn/eD992ltfV3KhIC34AGWGNrjMajFg5sAYoDBfSRTibZpOpimN954Q5h2OIzurk6OkFN0gyMu/g6KPJT94JwA40vsBK7ffB8NTjQ2NsppTR9D8qOiI0AF4Pade1KGgxM4xWnG6ZMnhOAbYWNE5L569aoYHRzjSy+9JCkFHitTeVCD5y8QfUA1SJUePJih3p4+Gj94gN9zmzglcBXgO0AewoksLy7R3bu3xQmcPnNOBElAJBAr4bzPnj0nxg9Hgvffw883yuf6/rvvSioDMnNpuVYRgWoQaQH4CJQXoWdgFPLVtvbO/zywqdq98K/Iru7UJrE2HEDDAQgK4DsjaZXpYu46XUl+LbdaLb8MWLq1vSnRBrVq1MyL7AhWlu+zYZyWvPf2zZsyDwBcwcL8DdpiKA5oDkMoFcvSNXji1AmG2oNSOkRUBRmHWnxHVzetrqxyPntbBDAYb4UoCWNC/g9VIWrarXwecCqis+fo15RrFjUcnEZBRDUdUsIDIYfyHEp86DOABBkcBJLeDnYOcEaIyEg9UJKTagA7m1Mnj8uoLUReIIm77DwgPUYqAnIPBtjMDsdR/430A2QoEASMDhwGUg9Ea8iiwZkMjQyLQ8HM/j12ZnjPqHKsLKH5pyJGDEXkzvaOkKhLi/PsMLcEaQCNQLNw48Z1uQYXn32G04R14VegADx+4qQMAIEzQEqGNA0zBLKclkxMHJCBLK2tzVRm5wxOxK7NRjsxeeT4wfT1X7mZKq+Qx3m/3bjtP/8OILBd/nLCum4QbrM0VuXW6nq18Tqy4M6tNc7rcTiKHEZuOFS9QlfWho4Wq4MHYViQ6oIYAzM9xzl2e2eH5LTobEOtGwaG76GTR0lwexfQe1/krchX3aQjN+QwR3I8B1DF3Tu1UhkcjM+QW+A6Gy4i+NGjx4UXQE67zxAYBB3Y9h5+XzWnUhAYPsYOBCVGlAqhwQc/AfSACA11H7QKRwqHJcBlsmm6desWzc3Pi7FAagsHAueE6L/EzgARGOKZPKcoGFyCEhucWiadoquiyrsv+vtjjBSefe5ZSVOAfO7eu0PTDL29qk9D7JAA72GctcnFvhg6IjAcIAjMmtx3n85fvEhDA0M0j3IrmpDYsfQwOsFwVbT4vv3W98S5gQ9Af8Cd2zfFWZ5/5hkpT87O3hYHJDMB+X0AJeFvURJFSga9BQRX0FIg77cTqUxla/6Vzo13bpbVTAOy42vSA3YUgdqeGtuGVLuBavdX+FWbF+jbTsMB/NQPqzbFMrATHe7e2phj745bAQ27fjlrV/Jp26tkLL+cJr9q8ydrW4FvU2HfphsfuL7P/+WV7aBSSEqnrafGXanhmFWvWFks3DtFI4MWmm6g44f6bwtw3kOZrFucwq4QTMPCPuNGRR4LIQxuOijY2trbRMKKSAmGHiVAEHatnV0yHSi/tyeRfmRsnPoY7qLzD/Ae6UJvT68QaLu722y418VxAG309feyIQ1JSQ3GhfkCOC/Ac7wXROF9Rg6oNiDi03ggERW9A3du3xXCDvn+0NAAHeeUoJvfS29vNy0uLtOdO3dFnIOqwvnz54TcTAnnkaIrV6+JfJesLXFyIOig2ffV+DOUH5OJtBgGiL67fA1gnCD+Lj7znOTynZ3dNDV1V5BNjZmvoFmHU6Vrcq0giALHgPeJiSZwjmi3Rolwg9MCpEWolOC9QfCziJkDY2OCYu5PTwnigXObZycDB9jCnwd4E/AP+GChwlxdmv9Peua2n2fk78KEMaAUN7+MZYc52+Wqm+SbxgqsRNnzLLL4bgl8xj38bzUgv1LmGypPQTXPT1Dghy/k8lvT/Fyznu0sNhyANs7P2vhhOrvrfyWxufQX0ss3JwK1uTYZLFJQWAyn4ooqTm2YxTLJYHdDxk9D6enp2Xd6gm21Nt9yK0jSSkcfNRf2yLN8jmg1KesAGyludPT/j3LeXMzXmmHQCIS8G+o8lK9Q3kLEm515gO5yEeGsFVeFGAObfWDSE5iNGxl1dxghVHtSMeDc+N7UlAzQwJBLVAxQGtvj568wLAa/cIQNAkYH5/TOD34oYhkYxzH+OcQyy4srUoOfnVuQ3BtGjJwYsl40M8HYwAFACAT2He+poiB5qeQwYklKmzAqCigDwrGh1g7yEYw6eg6g/19aXJDXOXjgID3DRg5H08pO53t/9EeiakQfQDKVkDIiSqWI2jgXXEd08XV0tNF7775H++xIQX6iZwHnB40/GofQBgyUAf0ERqqBd8HgEJT3wJ/AGUCJifeIKkx3T7eUGSGEQglyg1M2XDMghBI7L8iq94LWoXzQ/ec7tlbIdwKZfCROwKlNQ3PtCln5Su3nCiVgBFtCjUm3y7vhZqcgxb9f26QO+l1OJxLLya3g18pk/VW+NbefagcQlD/b7by+wzf/5d/5pcTSe/+hjUlNKRW9zaVyCtZj3ZRGaLKTXi+qUKu1A2PBpqzh4sc/SHKETXWQxdF+m2+sUYbyEJM0N2cFxkK0k83k2HB7aiupGLqOsZHjRr5166aUopALT0/dE3QAOAxoCqJqL78nJUJ0C9aIvGaOZAuihMMNjSoBdO0oz6EvHjD5xLETwj/gOVBNWFhapJaWNol2MsCC3yRgP4g06ShsaxdjuHnrNqcmM/JGoSY8eeKYoIKujnYq8HO/8847YmCrfI7PXDxP2YsXCIInCIwuX7kqAiZcnOdfeIFOnDyuBpp0iXHD0JD6QFqczWVol9OXCjsIXCe0Ou+yo4JKEDk9SnToYhzjaH3m7HkhL/EBIGKDNIQAaoKdCLr+MAEInEBvXw8bo01LS0uCttA+fPr0GUqkkjIMFN2B4CVQUdnd35HSKMayifCJP0eoAkEwIo1q5eff8hmpFB3aLlRptX2cOrZXJAuE4ftWtNXcVhOXLbU5We8v9K1oQGqgthmLQ0io9e5Wpbc/v/QfrVvZox453+S/Lj61DmBvYekzzfcT++tf7lh4+z90WqPZ8+FYbGO8tW/suPe8aGw1BdG6aT13X2+oxZy7qdxYjfRqzUhkRfSC/n5rc5Xh+pjS8e9K0w5UaXfv3ZXoBhIP3WkwCvTRo1kHL4Yc9PDRY/K62BsAiAsJMers0g3IDuD6tatiGIiWaNZBYxDYe+T8gMIow3X3dNEtNpAbDJkz7IDOnD1Hx0+dFH6io7O7pijkc8XrQ2SE4RyYSwAHgQPlPzx/FVN2pB03kOev7QmwpfMRqQZ+nkjUyD4gADgiOAoQkCDnQAxCjgy+AF1504x0bjHsxzU6dvKEQHbIdNGZB6UhSp0QXOG1tjbXOT24I01HiMyA/bi+UPKtLC8JaQknBjSBVAIEIpzW+IEJ6adYnV4TNALyEGnBNqc/XR1dlGMkBkETkBTSLt1mDY4CVRakIyKCKvu02T5B5Qc/lAAA48UmZ9wa2ENY8WuDVh19L9nRHEW7bgejPkJEwB93ezH/Rvvqnf/DSt+R/4/jPc6tVJ8jB1BKf1az0y2O4A41zb//lxPZaFSDGHmVwt1SelON/qC8ilp0oVdQ+RFKgPF7frTmap8dzAN3gFoySem/B2yGRh1CIERHzKFD7o0oiPw1l2UD43wcJCDY71Zp/FmXBhP0CqDej8iOFALjtMAB4Gd3ODqXq6VatyC/OOeZ8joew2CU/nDDZlVjDJ4bf49mJRgGmHTkz+APutlZ4E2BBNze2uGo/kOJkDD+ixzR0ZaMMhjQAYi8B2ysYPNheOfOnZPOuaHhQUEct27ektIj1H0oqUGDADISf3vl8mV5vyuMRF566UXqOH1K2HVMN7p1+64oFMFfoMqA2QC4PoHyzKjnywAVvh5Ig1Ax8EQqPCoaBKCJ2jhxSwhGsPko3929fUecRiunLDjPu7dvC9KRngU26jt378r34AHQAjw/Ny/iK/Atsw8eyFyEDUZrs4wK0N24LYrDHkZ3I7SbaqHW8o4YuGxmoho6tG1jJXrdNuTAia9Y00NVhUdWU5axEXpg687/aa//0D+wstkdCvynzwFknL3P5iyBv4qFk03FmZ8LWqL12jB+vbNOLwTWNIT8Ti2tkBn6any13o9n8gD4Wkt00KbVQp0J0D+B5Jv40AEpK+UaGw9hz+rquoz0GhsekQgGVh6M+dhYUhSBiJ54idr02lZhr9F4g4iJ+nWhhL79LZp1ZujkmTN0YHJSoqzNyAE3MFpkoS+AMUE7gMiL7jyw/uAa4DiQu2PgB8ZqjY8fkHbhZk4ptmCEfAFE8MPPBz4CQiPk5CAr8YaAWLo4B0fU78Yyk9KC7C7A3+BxgM1lNi40K2GGIchFX3lKlArxPKjPo5zn8u+R8oAPQbnyCvoI7t+T6/Hc8+wsDrcJRwJn5AryIEkncEAINMUICtWP5557XtIkkI1wIMOjw9TK53iU0dMCXzsYPVATDqRJuO5IP4DSpqbuC38CBwAxEDQK6KacezArasANEIF8TfBZrHOOv9PcQ20rO1RVhuxSzeAlZVTVAXBHCTsaoa53LsjMYGOngjllGWPNWyv58Za1+9/Mt/T9Y9v3nj4HYCU+GwQQuGlKzv3Rn0q5gasNXy/LwAyHcH2VF8/vkeeVFB+gN+3qNdWa+QcSSPDvd5u62AgzQkgV2BAAKTNSxnLYuCcE/gKSj/DNCSgPNnuYnQAgN6oCELhI9EzXVGnI/3PZI/J6qAJAAw91GqIWuuaQA+Mcu/nGxWxAKA0vffiBQGfMw4ehSBst2GxOKVDPRo09LQRYVtIBRGXA9JdffoUuXLzIOf0aDfb3S8kPpT8QiYjqgMNoN0YVA/P4rrDzgGMCnIcGALqEQr4or4mofm/qnigZMaTkhJQbW0WJB8ETZMVALOjrh6xYDJOtISMy5X25trpkuba2IygGzhBlvnMXzvF76pLqAjoipa2XEUutp+I+v581OsKoYWLioKgckS5hgAnOv58dKEhYzAYAQunp7hXEBZFWf9uAlBnBO+A8cL0R9XsH+sU5tTTvyOfpFKu0luyk4eCuBACtBUDxATsKXUMb5Kl0MeEaqaZGB2SsO1cj1OH18djW/eU/ne8a+8eWV376HIAbfDYkoF+pJNOFpW/Jlhz/ESuo/GitVbh7Tn2PPM33oxXWPkXbauEYpDLA/+74STEuEcHYjkReRPxdjsog6LK5ZhmeAYjeyehgjXNawHE08OBGRfmrA5N02WigBUDeiSgOPbtM0dnbleiNuYHQvCO1ABOPJSJgu2EkGDsObT1yXhBbEAKt8Ped/PczDG3Ra4+BoXA8aK/dxMhtdhzI9RFBQcKhWcZHYxC/DxBzOJ9xdjr4fUdbqxB40PejtRdQ/dUvfYmjfqtUA9C49N5778k5oSKAc+jp6WZjCKTciEoGNP9AEShZwuAxDwFDS5GKYDYf8nE4FDiIy5c+Eh4EjhTngOuFLkFcW+gNUomkdPshjUAzU7FQEl0A/vvmzZuCdJCyQEEI5wMeBSlCajhNA4NDgphAfELpiIlBMMbxiXH5/OBsB/sHZTgJPj+gG1F3+ikqq52KSP20Ihi5v64aJZ34HoVAE8VWzTFggalvR+mA3puIJdHthYVXN1bvYXjEnBUET5cDSLb2fwbw3yV/f/tkKj93mpqNPXiKtIGXDjfhasLPKPHpDbxlL1pdJdt1KtEHnGdnvZ+vioKsslmUmxfRJJ/fkzp2no3y1KnTtLgwTwvbO9R6vlXuCMzwwzPAQEvoEmTDR54OI4UUGEIeTA8+nDgkUl6UvFakzz0v02sdZ1dYfpTAgAiOHDlC9ziMwBGBcMQJA9Kjlu+xoUErXzOCbjaMk9IzIN2KfHN/9NFHkpsfPHRQjALNSTAaGOr0gxnhANA4BMfT39cv0Bpip43NTVHa7cvgj6JoAEC+NbPBI0LfulUT+3SyEUE4dObcOSHyUAKdmZmR6keRUcgzjEDQoAMHAIGSNEHxhQfCwPljZPodfiyuCbr6jp84LtcYvARQD1IOkId47es3b0iDE5R+EAmBgwBfgJQAIia0DkMHAefUwp8ZrhH+h983t8BRrUnZEOkLrjmuJyYX+YkMI6FqjfAL4gGjqoIFvqSwpIxaFrQ6KsqT2n6k7jfbWJQqP+N/U5bXmvMrb5Yzzb9s+f7T5QCqG1ceP/znKGHPXP9mIhFEuyudaEedXbfiGp8TNjgHKs/3vQiqVdX3nvL0+NDRDr7LzqDEEcRlKJBmSIu5dmD1oSqDQAV18wcz9+UmwBhqdKMhakO6C6eAnQFoxsFiCpSr0GVnW45EsG0Z6BEIw40e/g8+eK+mA+CojbIh5K4Q/SCqwiAt64DUuGGQGLENhh0cBMpaWtLr86WoRTRHGm8AucF8Y7Q3oP2JY8dkShEELzB4lP3QpYcJQq+++gqdPnVKSn4Y64UJv5AYw6gRIdF0hPMAdIaQ5t99+w/F2JD7Y0JPC2r76IBMZ4RjgIEiJcF5zc09oHt3p0Ss09vbL1OBkC5B1wAVIEaXwRsDsUBTgMoG0AGmLYGYRJoFvYPsBHBrFQeQgDOc55ertUoG0MntO7dFdSjzAvl7CIMwsASaAGgYUDpELwLKsVjCgp/h/B07RTlvh/bZ4WfdGhzE559yI+2Ip4ILqS1LlrEQNZQGKkRgKSdiq+89xR00ldZ+fiPd+8tWtfTEFwMeqwOwU72PXfgTcJafLGx/zVVLMmHkvhdfWx2mChraqX8toyzomx+eH3/cOn9O6eo654ib1NY3IXV6jNdG9EITEAZP4u/Re48oDLZdtPhshLsyiLNJllpkcjXNPHJk5O0DfJMuLi0JnEUJC+w3cl7wDHAMiFhoiEF7MHJXzBbAvD28JqInjB8EIaLh+QuTYtR4P3hutL4CNiMFQfUAPQkYBQ5xEYwafADyeCAAkJPQIOSkNOhLpK99lUL5hK1ksHmZt8+5dbbA0TlHbexAQKYNslEBKaDRBl18kCNjFwLGfuH5oU34wQ9+IPv6UJ48glKplP82pWyI64K0BTJdlCixEwA9/oD3hznVWF3N0876ulQNDh8+LLk9iFPMHMAcAzgDlEChF8BjQEjC4QCFoLQJMdUMIxVBSL09gnCgfGxpXhc0htFjiaYspffWqMj3T5NdCxRObQ1gLbIrUtBSBm0pyJ9QaaSldAEaDXgqddAVA1Lr05qKmy+vpEZ7g7aWZXrCUcDjTQEGTjx29t/f25lM5BfPAf6TuthC9pEB+RUS0Dok3zB0/Tvk+1r0YVEkHsIiy03+u6xfofTiFQpGjgvrDJjd1JShVLZGkiHXhiINkaZWWy9LuSkYqC3p2N2pSs6ORRxoZEH+nUy4qiQZCNTHFh6o9sAXoPYPKa9AfDYIDPB45927odQYqkIw/EvLi5JSwLjBLeSamjl6ydjr2uRdjs4YzYX6NzgLIBEM3oC+AK3DuDOP82s2yS69TtEvvPfe+5LPg2CEgvD8hQtCJkLPf/vuHbp5/aZImp959hk28LNCwMH5odkJJBxeF5oD5N5KmykVClwjOBKUPTfZmGcZqqNSAX0/xnzhfQDq43oAAWEyEs5peWWJkcM9ee9nz52XXgTZFcjvGSjjBKdfGGdmu7VR7ii5AuLPcWoDzmSAP5P1tRVxNhgGCt4BnYVwyq40ZwXU3c+f1dYMOTurVFD5vi7jeSqdNIOIYxsBRd0z+Ju0owRCqiLgK4fhqHsKJGGWSh3prVuvVrzmf2Y94dWAx6sELM4/3rNLcsSb+t43k041oYa5SDnPVBxbTsT6C8yv1CScovLy62Cbgv6+IRfeYzhYrtZgYNfce7R77udpZXWdIwam4g7KjYzGH6QCq5wmgE3GDQ44DVg5OjYis/cuXbokZJ8eVLEnOvVpOnPmDA3tDwuxhRsxwX8PFRsiJuAtpK0om6GakE1nyeFIDU0A4Hfr4IDk5MiFr129Jq24SA/Qg48uOkiCoRKEMcMo4SDw+JpIxZH+BVwrdCgiD4dxgLCD8wACgG4e0RolQeEoEjX5LvYgJCgpugdAbxFAbWUY8dTmHu7la6u4wfBDsAMRz4HJA+JMdMMRUA1SIkTrSrkqgiM4MUigYfToFUBtv7ZxeUmYe0ifce3Q5w9uAVWXZy8+J2VKRHN8agfZ8PHZYSoSnAmkxQcmD0qHI1ATOgJrVRObhjn1wL8gXm2+ttb1/5nsiifRep/vk5aEYvv5nqjUKdnhEBIqpfSUQ3BVGuk70WPMtjONOtFr1rR+85s7qTF2ANWnxwG4rQceL/y3HcveW3/DTUTiHsnF/Ej6G3hRVYAUK+v7EWTTW3DJUHP5BjrYLNQ+WHyozXyjBfd+n+abLlJlaZ4OHZqkeTZ6/D1m3m9vPZAefIiAcPPOyoiuqkBOHIhgMFYw77jpAbshxhkZHZEoiEiJ+f5YeQ1HgJIc9AVAB8hbj504IfAYeTHIMnTp4fcQBuHN1LT125R0k9KTABksyDn87IMPPpBOOzDz2KaLBSBwKoDYcBzYWAydPCInHAhUiAcOHhBHBukvcmYgHeTj4CzAa8DZXP7wEs1zqoF5BRefeUbQArT1wwNDooRcRLVDaPIJqffjMkM4VZEGpj6qlirSnYg8HINRkHY8//wLgigwAAVOFGkReBMQmoD9b731llQEslmfnfGyoIP1jTU6c/qsDDiZuj8lsuEaqdkiMxuBWE6ePC1pDlqvj0oKUttJ0DcyQcs3v0f9t98jL10r+4II1HV9sySoEWIVP/MjJWBgqP80AWiuXtcBSJwCW1WuWHglv5lv4b/deWocgOc/RiEQ2P+draHk+qWX7GYVvavRBdeCDP0Dzf6bUT809iCK+loM5KsPfrugyj44f/6378bv0s6Lk7RQdmmFDRCGV2tUmZcyHnJT3ICA2oC8YLBR20fkQf0fuS6MEjP2wYijpAf5MOrWbR1tbOzLtMMQHyeDmxSGDlkrfgAxDqA8oisM5fL0lCjnyuUi5/kHqMIRFr0DYLah9ZdSo/J+ENqU2FlgWCbIR+wclJmCnGpANITXLPBznjx5QnT9qO1j288Sv0fwBVAeosR25PAhueHhXNB/v8PGjt/hOYEqwKzD4NbZWcICUDoEV4LHQzWIceVATBhEcuLESXl/QARg4VEGxHtDbR9GfYfTDSCrs+fOyXRliIvgFJtbmuQ9HTl2RAwdegfoLOBUpBzKKRQEWuBhMF4dvMUJdp61Qay3xYkgFbl3d4YmJo/QIl/zlnd/jRIc6iHYSQL5cdrnp6P7RNf+HStUAof9AI4VpQuuFZeU6z4Cy6gOQDmY9fIjFtnPVxOp37WeYFXg43UApcfYB+GmyZ/64M1k4Oc0GxuWXTSE10o/hcMsQ+Mf9nqr3I2UA9Haf0/dBMVKDf6LZ+fHV9gjjF/+J1Q89xcokWulwc4OIf5ARGH5BaoAMDqw0MiboQFAtIX6DAM3wGRDngrd/aHePlpho0N3IMpiSA/AsINxx4LRbDYtU3l8vpmBCO5gKg507GPjwt4LT7C1LTAWkQ4LSJBuoNT41lvfEwcA5RwiKnJ1kIIDA/38erPspGpjwScmxmXWIHrl4RRQKkQTEB6L6AsCDX+DtADqx/v3Qazdp2Q6LdD5wIHa2DK8d0TWa9euS8oBKA4jBzKQfgh+72grzku505Gf4XsQhhgOCseGXgG8f3Qlfl+i/L44GUiqsSUJzgiE5rGjx6XxqkOmJuWpmaM6xFFIHbAUREReDAshHhJZNv8e7wXKQiC0PnY4mKKMcewb+SI1v/sPqI1z/2KS7xUvgu4lvh/Sdu1eqCgkmVTdpb4S+qSciHtCl6B0lzq15xDUYKuKgCKkq6qLMM2oNVspf2Ov/8jvWlqG+oWvAhT3H2P+z8+3vfSm8FiGlyalvNJSX+EFvEiaqT1yYFQC4LXxEQRWROzgw0Me6AdhK0EtfeDXyyzN0QvL/4JWjxynXGsXHeSbH0w3yn7YZAsHgEEeILUy6QGZFIShFCjr9bJjwDBP7BIQwqqllbIMWxE1kdcDfqPKgAEbaF+F0AgRFDd4AUM5VA/Acy88L22xeAyiJsZrLS0u1xqJOHKjDGeptAD5NYwAMBpsPRaBgBzEewKhBpYdPEMrOxWQdZe+8x2JrEgvXnnpZYnCspqLX+ejDz8U6TKakKAXAJLBcyO1ARICQYrpQ7Kph60BhBvENiBF+xiSw7GBKC1x5P/oww+kgjJxoMLpw7MizgHcR54P0RIiPiTOG4yibt+8JWVMpCCA7pDyYmwZUoVTZ86Ik4ejwDWH7Bik4q0b14WnwBxASIAhO8Z7wd9vbe5QuqOH2q7+E8rc+YC8ZK3272kFKf9b4M+fgQ1VAtUoGkTG7iiyD6lCQrUIa6l5Van+qqpkmFCOwbaidBRpa7aw+NreRiaDl3oqHICDjojHxP57+b0ua/HS6wL/TUGVFakBdV6vva/ZoBEEEVUAqadnaLjxL9RgWwUVDYII7slrMTR0b12lXus/p/ln/q/U3N5PbRlH8uYkOwIYGYwENXdENZBXGI+F1lchqDgXBsO/wf+NdleQUzC4MufD+3t5gctg/ec5SqFlNsNRFOc8pOS2kBMDLoPkwqospBTL15aFgUfZ8Nncc3T27BnRIsDp7O3vSbMSkApKdojYmA2I0hicECA0auUee01ZPQadAQZn8t2/n98TRh/DOoBewD9k+fc51Uz0gA0Rr7ux2SMtzBjnDTQxNjoqv7t29bJAc9TxkdIARYCYRGpULNd2EwK+o6MQ8l+QlQc4XYIYCG3AIPEg+5V0gt8nHo9R47MQKrFDmjx0kOZm56W8h25JkIeokojUmh0ThEFADXucZqFKg9bjJqw3b16m8dnfpOaP/pDKykBNxShQX0VJe6kapYhVPyL/LDt+XwTqe4/iHacgkeEgtFqQlCgo5+0fTyTbTvip9LtPanPQ400BHtdKZcvh/H/5paxV6gqMse1h77/6sHRqoDsAAz9ickNhhx+JNqpG2RAOYZ9TgKSG/+pDhefHh1llX5a+c4W6Nv5jWnruL1P2xJc5It0QRjzNcB2GihZcQFJM9oHuHgIZREVEecB2GDJKhOisg2EAGkPcgzQC5CGiYSZXIxQhwkGvO9BBUjXw3LlzS1jzweFhgdSIboieVRk5XhMOwUHgZ1c+WpHmmFyuWbr2UA0AX4DXffe9d6UkN8dw/Plnn6ULFy5Ivz2EQGtrG7JmGwNQsUUYpb1mqRhkRLiE2j667aBHeP2NN6inq5vf55b0FaxvbIoWAjJj8BdIDeAsWtkRAalA2QgSDpJiEJFznL8jNz/EKApaCOgKqtXaanQoGxOy0qxTxqsD1UBRWFtAeltmLtSmHwWiwERVA7LfFD8HypM4oC4sW5Bzr9GZB79G6evvUCFRm/9ZKasgEET5vQQGJQaqGogxDCrGfZbQZb8gnlqCP/J0a7oKOomQLwisZGH9m4X+C+8+qb0Bj9cBVB5HCoArmSNavPQN1/VD0o+UNFMiezle3w+FP07EC4SoITBKNE5EEu6Wah9giqJSDp4vYZA5Zf7U27ZXKfeH/znt+IuU7nqVtvbv0yJHrMGBIdpsbpJoiCnB2UxKWG1IUhE5MdkWM+22NmvLQ7p6emmI4S0m8mCkFtDE+QsXxXgQLWEEmJuPyAx+Ac5ib2ePo/suuakEnT//jAwEBRcB48LWHXAAgPgQ/4jenR1BLpeRYaZohklJ+3BZkATeElqLQcA1MWbF61pWTVJZli0/gSCGQEjH2opt2y6JIwOXgFXcQAoba+vyuphziNQE5FsLIwMMOUUzE1KV3FoTvfbqq9TMCGUHG4j4+WtjwbPy3lDPv3rlCs0vzImDwuARiHVQxkRr8/DoGDu2PWlkWpK9hfu1mQmcAtyU9GZJCFY4USwJQRp05sKztLS9T+uXf5cO3vgn5ILjUBLewDOUoxQRe/geaUBTspYCaEMmzQkE0fjIQFUAlEiwds8o/kAPE9ESdO1okpIGbL65Xyz9F1ZQrXzhHUBy8PnHw/4XdnLO1szrTiL64Ej3/qsL7inIb1ME+XXjj5ZnBka+p+cB6BFim3tqsotdI3r8IC7ttJW4o4puUs5xe7/zt6n73HXyO75GbnOvqOBk0QQGe3J+jxsS5a5UKiNkGOrfSA+wfXaHf4/aOerwyF0xdhswHFEQRiGLOPi/P3j/XakaIJKis3CQjRvjt3KZnBhHwM8FxSAeD0Jumw0dUX7y4EGZX4D8uVcNxLwu8/NtMVBwGOhqRLMSrsW7774naGF4cFDq8BAnwSmBkEQX4R2OuDBY9D+cOX2aFtCxyA4NacxNRjx67v4zzz4nkl1wEVAdogIB5weuYZvPD0IjKPlGRoalDNrW0kppRhbQ5l9nmO/LzsO0TCcGgYfHo9wKngVoQYaQ8PMB1vf19lArn3+N3EyKtBp/gwpGa+8I/7tMpe/+93To9u+Sy6YG2I9RcCU/6gdJKKTnKDQI4wYR2JqpyfpsRQQH6r7QX9UgkvrahkTYoWhYSEWRg/K8VFME4rly+aULm8W1CX6jt+gJFAU9VgdQmf7eY3AAfMXzexcz3vqEpRa2Bl7Ux68Rga0rAeoDEMLG2PSthz3o73UNFylFEd1/RSX/VLIC7TBEGmp4fb9SI3RwI6Xf+X061/0B7V/4c7TW8YvkJZppeKiVtjjXR2RCXRpwHXk4hC3WLZsmxiYkJ8ZsPyjfIJTBTY36PHJgzLVrYcPA5Bu0ucKpIMfFzzplkEi3EIkYgnHr5k3p+z94aFJKXTDaTsXsI/VAx6HndYmxi6CnVBKxECoIWNzR2dmuGp02JKpifdmZrk4hIdEdCJ3AXcnTC2RXHHEgGenld8TRYFYBkANQAtIUyG3RKIR0BeImlPLwviDAKZQKdIedCSS7IBDhuDDWDOQoUqMxhu94PUz4gb4ffEqVnx/vCXwGYD/SoZPswOAcgV7g8LArAUgAlZLClEOpth0aC+5R92//V+TMzsi4LyA3GHlZNfhoopgMHshVwh70BQAJ2ga8D7km3f1n8Elad6INx1MEYsKN/k5LiSFGSzq+m16Z/nq5ufeWHXzRHcDW6k+eALgpch6893XHifp3gVTDD8iO2oADNelHmoC8SPvv+TE+sVb6cWo5n2Z/QdxkU0bep8jBRCLONzpu5Jeq/L3Nxt78e79Eicu/TtMjX6elZ/8cG1mWo/w+G9WUGAbWW0Nlhx58lMcmVc4Lg4JWAIaJOjwiJqC6jAVn4zx87Kj8PRqKwGjjpoe4B8Qd2G7U44VEOzgheTUMG3V45O9YOYbnyuP3HPGRy/tqxRZUdRDiYOIw9u+h336B4feQIIxFUSTifMf2R8VRyCxDNk5EaiwLxYpusO9Hjh6nZ595hnbZeQA5gIWHZBfOAXMAsdJMyqJsDV6eUw0+v2zOkx4AEIC3b9ygEhvvs889JzLnxfSCaAvAhWCjERAKBntcvnRJZi7aVre0KUNwhbRjkt8XZgPMrWwI3G/euUUvzf1TSt//gMrF2rDOSjXq1deGXgmibFCjRVJKP6ACQQHJCCVadtxZaAGZHg5iKaSgpwGRFf2dIEc7TiCm/eDLha6Df4uqpeAL7QCC4CfnAPxKPpEpLb0Bw7M0jDeaLcgzGqxMVSBFHyxIvIpCDuFgR3VD4Hk39qPUwlIfnqP+znWiSkH4wRviIztZg3uZ1Tk6sf53Kb/0P5N34d+nnr7jtLpdYePN0WBfbfMtWHa0/yLXhrEC7kKoAtYedWsYEZwF2lfxRlEmxPag1uYWUfShgw4tydsc4TFHD2w3ym+oOiCaomkHBCPKcnAWyLVRlkOKgOeGw0G5DTBcWn73axuHeo/0CBpA78C8TBB+IOVHaBmgJwCh2STLQFy6fPmyPCfmA4AYhEH6u74gCPQaIErjHHDgvU3dmxI1Ixp6Llx8VgaDYCwX+AEoCDH2Cw4QG5BRQQC3gBVrGPxpq8EiNkOujKCEMUEHskqcr0/ZydL82gYtvPvrNLr4HepdvEoWQzPU2Ox07V6wzXuBolkQvlFKdtV9pdO9IqOAzqxxbznxCpPjRBOCyMj3yVACOnbUI6AJacepWVhTfuqlnd3+QUon55605qDHWwbMNf+E7L9NdrF4PFlaPmM1G+y+wfAHhqH7xiBQnQ74dVOCPZWbVfQCEP53hfP/VKL2gSV1XujUoL6rdAYBxafASFqga8QqlQBRlJm7T8nVv04dAyO0Of5zHOmbaXmvhZxMKxt3Ny0vztG1a1cYGnfIAhEYAAwRRFtXVw87iSyNlEdEv373DqYJL9P4xKRMCEJZDiw7HgvG3xankhFH8t3v/hFHxRWREYNBx6BSlPpGOI+HSnB27gHfb2kagENhtIHXhY4fhgvEAZ2+6Ah8T9h2EIUYOQ7FIwQ2WGWOtmiM8gbxCAe0oZqB0KQD5SMmHMNQ0WuAHQp/+O1vi+DJk9w+I+cNQQ9Ke+jTHx2fEBQC/uSHb39fqgi4zlBUbkpz0qqsMD9+7DCnUQPUPzhC03NL5CVbaKAtQS33f5Po0r+ki6tTMsUZvV9lJxrkWVU8kO7tDwk5zQnZtc+7VI20IDDs/WrU82/Vzf/TAaIaRHl9oNWCqvlHdwR6ChlU1T2nS4lpCloSfuqNSvbAr1h+5YvrAJomf/4ne4JUE5V/+A+/mgj42lqG1Nc2av0Un8XmVaP5floAZFP0wWt+wFNKrg02/iK6/5LKQSiHTwou+koOamsIR2p6bF1PuK8EIHhODBtx2eC6F/4+WTf+Oa12naLVjufIOfsLFCTbyUm3S4PRBOf5gOYu353oaEPkB6xHmys07uiPh3agUrkhm3WPHjkigzlhoDBM5MlQCGIgJ6beQEiD2QJIG4AwZDdhd7e0zEJMhMdInn1oUnbrQXsAwc5b33tLmmuQTjz33LO1DcX8PVqW0cmInn4YLSS8hw8dEo0+dAUynZcjMur+UingCwAStLRXlLbj2qrvfU5RDkl/AjiLNXZQh/h9HD9+QtIhOBmIkeA0oPBD3wTUgiAf93a2qZ1RQ7almxa3SlSem6f0xjV6rfS71PLe2+SsrdSWoLjK2KpqOo/KFhOK1NMpm24bd/RwTy8yfM0NwLEHqiEMZGC1HIf/llH7dw2KwFW6f185Ad0daBv3iZQCqfa47N7CV/dGTv2KXSk8UTMCHqsDyMND//jhH6O/rdTiO2866SDM53WED8uBRtumZu3rGzLwwUs+5kcVA53bL2ypG8CJBjnYCr7BmG0t7aQo5zPrvPqm0ZBSVIhACfz8ZTx+a5e6N96iTuctqtz7VXKPfZn85tO00TtGnttEFStNXb2D1N/XTQvsNG7dvi3EGphvaPG1lBYlLtTjh+wh2RQEpdzt2zdFiOQwXAZDj2EgKP+h1Ii5emDewTfAIaBOD6gNchB9ACAhc1AP8puCMAfpgYPZBFVPVIBoBpIZfdAvMMLIpGoTjUFUIs+HowEZiElA6BzEWDKw8FA9YlvRmTOnpZoApwFlHkZ0gWyUrI1fA+3ReCzSlV7+PToHgUSw7ejB/CLtVWzKdA7ztfZp9v3fJP/a71DXzofUuT9PPuf3GOJZcdX1Nkpu+nMyR71ZBvFr2ZFox1LToB0r0vxrZw9SuL+9hgYSWuprRSrRhB3dG5pn8q0oSDimHJ0i8lACE8qB29Ov7e7NdfrpzPqTlAY83s1AidafSP1HhfyYu/fgebvJmMJqiDL0ByoRvhqV/LQnrqoNP3iMozyzFURjnVD6W92uOQNdD3ZNwociZ6JvGjJKjJauJCgHZPsRQhG+wa3dFJWEaifdWCH3u/+YxpL/mCZ6R6i0xMiAncFqapzs5MsMbdvId3K0gxIfPxf09pjHnxXWu7Z8FKKhcY6olmOJo8BIK5mcowZ19vb3Sn3+ww/fl1IhjPq5518Q54DzbmFkcYVzbSACyI/PsPM4d/6cDA5FeQ4GfvXyFWkPLhwpSETG66OJCKnGOz/8ofANaOb50quvCUqADBpIY/fGjrw2pvJCR4DGHwiMgCbwmYGohCM7dPiQlD4xoQf794ZGxynd0kVzawWqLm+Sn1+jM7kF6ty8RF1/eIWCpbuU9GpQGopNKcUGtYhv2xHRZysOqOpHaZ9tRU09ulRsTvRxVQpgKbIOZbsU/7u1V0NyfImjRSAURXRfaQPwmtD5V4zKkkaHFsW5AzIqTGm/0Jvc332Oz+m3nqTmoMfrAJav//jxn5Mve3v5zaRbTQcG6xqY+iArUgNaKqczGV9d7w+rOE7NSAWm84e+tFH7tykd3QBaYyB/b0cORcs/LV0atOMTh7TuW3/YtqpY6Llymjvw1SBTf+EBJecfsDP4TepPp6h8bYQ6Jr9EdvYAbWWHyGI4vbbPkdJLUWu2g6xynlbW1mh9bVlKeefPX6xt6OUTQH4NBSLUffv5mlYfDgGRFs4B4iQZJ85wGzAdTUuA3Yi4+D0gP+bqo60Ztf18MS/bdgHr0dILKbHeVAzjxhtMq6m/kAyDd4BUGecBshGvjdz9KjsaTOeF8/nSa6/JXsVNfv5kto3fZyeHwU7q6Wgmb2eJZq/8FtH971NL5R71VZcomV+XkiuMuWLXIr5Ae0O9KQarJviKqtOrGa1e6BEYKlF8IQ+XxjD1OUGYw6dde54g6hvB/QGh3uI60ZEBjkOF6P5wrege0bqRihdFi7Bz0NCbWBR1EOr7BueSuv/tny/kMr9lfVERgNXc8xOcSZrstemvORy6tTGGU3+NVEATgrL2yyAH9ZYfV6kBK0ZUwO/3CjUv7yrIZtuRgCODBqBUxO7axmN81RNeVSXcpGNsiqGoZKTlob5nCIrsaPx4LRmsRTSnWKLmxTsUzN2hYXZGYzDe2320mRqhsjNKC4OnqHX0HPUP9DE05uuR7aKSnaV0aw/lUgnpwLt27ZoIaNA2/Morr4gWH/MIUFXA3P4rV6/wjZ2UaUCY5QeZLbT14ADQtovehbGRUerp6xUyL6+2/WA2AL6gWUCjzskTJ0W7gGlBiPaXP/pQSExc5HPslHItzfz2HMo0tVIpmKKqy3l+SwftlmzaZGewNnuLhlsqNFyeo4HKh9Q2dYdSlxfI2t+glIrSMHoYPFp1hc+pKKhvR2ka1ZO/yoATSt3pqVq9lHsrUS+I/pncH7VZIIICdAOZhvCQhC9uEk321RwFGSpAM9Jrjkj3ouhClNal4L507ajaQJqDEBSQeq3SezFn2c6+Edq+QA4AXv7HFP8EpXJ3Ym/mFStTi9zwyJZVV+bz47MAZfqPEw351G2cYeuwYnUBGde2a9N/dQNHSqUHrhVfMaYhfqDEI45yKK4TGXnIS1iRDFmnEyEPYdSUXXXDVBWExEhpVIRtpUPwt7YpWN+mLucWdeM5boFRbaXOll4asrvJLh2hneVemt9zye0cp96JY2y4PbTH4S/b3kkFXDSkOskWcnNs5PY2FTmMBljq4SQ5TRjiG9AVLT1Iu/fef19Ke0uMMI6ygWPMGGA7yL65hSXa2sEeQ0YB6SbKtXVTruCRlWmngJ8TaQtn62Q3ddPyVp5m7s0wWtmlgY4kHXBnqN+5TgMY8vH7/y9Kz9+ig/4GZSp5SgRRDi2G6daEOr4dH8xhmf0cfu2aWZrQI6Ppi+KNOmbUdZ1o3p+W64YafsPuLL3Vx6l97oUSo0S+Tw5wHCuXo05SXe7T0V3Pl9S8QKgNMNJIIZitaNQYHtdU3ZncSzWdYW/51pOiCnysDsDfX/sxq38uBRuzb6TsfLvW82sD1jeCyZyG5TmKev/xd/iwpDdADfjAzQZnzqiV8qWoQuA68aYPlARNrkE7DtcxlkVY0U1gBw83EMn6MYrmyesPPVwfFUQSY/N3WkgC/qCoHIQEoJ1t8tkpJPdvMwx+i3r5hz3QNyRtctjI+5u7aTydpuTOKBUWOmmFI+52OUHO0AR19AzQ0e498ihNieI83b26RnOLy5y39wlpODxcmwbc19tNK6uLnLcvc5pQpKH+XmHCBzo4DcmlyV+7Tven1mllfpryWZe6ODl7ydlgx7tE7TfyVPz+PTq0s0wuI4LmVJGS5UI0ts1WvRdWzch9ZRBh+utHxKomdW3lwMPdD3qvgxcx+YKiKhHC0p2emuz1/IgY9JQTNvdDyLRfxRVpfYhsAVaf9TKjgIP9iifyo3sGsD/UiBj8gmc0pGkRgm8QyOY6sTTux7W5b+WPvP6WhWrAE1AOeKwOINF99Mf8wyzZq9Nv6ihLvhFplXFrZt9SPQEScZO1x5bLxiIHJ6r5Buqmg/FXdB+BaxCKRt6mhRzaOPXCh4omAE2kEESjosK/cSKGOKwgWFGfeKgks+M9B2EfueIOHIVoLCeacSiNPNrxFPmXhXXyVtcphccFl6iZH9uqP8mrfF2yRN18Bzt2kp2AS3nOczqBshyXss056sum6ShbUWo+KTl9ilMSiy9kInBokL3hRKXMf1XhnLzIr5+nw7gWxah6opn1nO7RUIZSVc6bEgaR5sebtLRjl7zci9Cchl36uSxjcy8ZDjjc2mukd77ZCu7Hy4AhfK+bGBUjfRWUT/P9VMCOCLbNzma+5ipokGoR9iiSj6dUuoL7Kq1KynpQiKe8gO3G0xZHmoPmXy9XVhK2FVToCVgc8nhTgEzyxwn/DFULzc76hz8HNVegkiqzvz828NOu3VjVqkH0OVFOqB2BziEBIavVKJqIqss1iBsDsoWLHu34TadRgRYD2VbknQKd5xnOXEf1QEmLfT/aZxgYc+Ys47EaPegyF55PDzjV+aZuYLH1WCqKyFAd3eTgm9gvVKhKNdFJxoCxwc56TfvgC6ku3ZBp14C56jyrKqLp/JVUhcNTho0tTUBbmjgNhTNOpJnHxmX5by8e1bW00lIcidmwRYFSclaix9vqvevUTM5LOQ84xqQqy1a9OBGsg7JnCLt0E4+vHLxfxwfAaWxxhj7Yra5xxegR0ROEnagS5CoOwlX3lKfSBs0faYGRpKrgAQoL55KF1cOUyV19EsqBj1cJCDH2p87/k+RvL76Q8PaGAsMibUO8ERiVwrCsY0XQULdpakFIoLyvfIDVaDGIm4g2wJITEXjacxvoVNhnvJ7jRDMEbUOPYM4jJOVwcBOYuaIuI+peBVsZhqPeh+SpdvyxZHAI0o1oqNsSTvS7sOKk5NGBurG1fFrvsbcUCrLVTW/2Oeib1HKizsmQwzCGZwQUf98ym9EgQ0lrL6huHgPFS3CB8fmQsdrNdPLkRHm/HUTPbav3oYd6+IZz8A3lp20gSB3dHfWzsm4VN57HosiIpfqTrCFGXyn/5DooklGXoTXsTxhkoW90CwYGerHMtACVAIucTCXx9eDMn7pqMbr6YnEAwY8hcwQTtvjRV12j+Se60wx9tf6RH8FpMub/6flslsHK6khmNng5xiShENLqPC2IdAFipDr/VPmhHi7iGKywlpyGo6H9CKbqEqVjOAzbGB+l5xDqioeJYMI8U+WfttHSrLUJtl3nkIIoB9aGWPWjllbHcHC20TrtefHXDYy0JTDIM70uKzZtOYinVKZ+gowSbpgj2wb0NxylPm/9nJoX8Lzo+XXHpqscYmDwNiFB58dRliknd9T+PnG8RtOY7v2IpXpoE09Fm6V0S7GO9uEuAOWwXCdSGfqKzETA8dVcADl/KEc5b8ru3PhKceb3/4ZVLf4YEOA/eHIdQOB+SlKDr7Jf3kq5q5e/YqconpwFkQcPqsYNo276arkOchtdfY4TIQed+ydVXlrxozq/Cfti+amyEsdoLdaMrx4mQYYB6khhik5CdtjoRwhMYzEJR4oz39qRhSQTRZHSRA0xwUkQZ6M1OWkb6UaoWzL4B5NssZ14mS2E6WRc3yDutGKff2DwN0qwpaO8iegoiC/WjDHzFDk714ngf9WYBVGtRqy+WX2p+tG5lb1oHZxvoDVPp4QU5eu6vz9pqED19ZMUDgIhnQ4mVMnPGPwh8F+LytS5JBPqc1TPmUjWxoVjal6ucPcFJ/e/GLaybTP0M94b8Hg5gP2tT63+s/d3TyYrG4eh/vONnu2Q2FE5v6/zTS+qt4Y5aN1oMKJoUqulopYMbvSi8o9JTllGL7enNP46KmhC0DdIJk3Yhb7KSAP03PiKKlHadsQpWEbeSKpO7aocMRxk4qqNtX586YRlNJmYRJheWmGbxmno3y2KILRJOptkm+YYdASzrYh0DQylS2AoJgPPuPYG4aYVdJbp6ChO7Orn1Y03Wnuh0w75vCvRuetUT5NrlsGXaDY/XN2lcn7dp+8q9EMGL+Cqe6HiRY5LE9B6AQgZTlfzOL7x2nqKsGs4e319xXEpWTmIP1sZPoIcUow0xG6b3/tK4Iz+XfoZNwc9VgdQnPqfPgVcIMFIzvrKN5PJqu0bY5ti4h/fgI46Q/AjRj90DKTKNlZUYvKUsULkkUpEzSG+OU3YjnJ8x9gYpJnkcO+AARPDyK1HlKluMk2YaaY/VIIZ48xMiOloQ7MM0QtFKMSrRuVMnaNadbXsh4yZop32gjwMjiSUrRnKSsvstfAUCWuMubacOmRhvHZYmbHijsQ0dnNvg6VzIS9eCtSfSVA3a7/qRey6nrRTNQxNO4Hwuqrnc9UOyaofvWXfihAlGXsiNAegMxQw+slEvBEIAUKujToPTQjbVhTxbTe6TjD2hDJ8vGcx/nTNAViKV/KKK1+rZs//XaoWvjgOID3yJz4NXoB+3HZW/9GXLXWhLGPjjxVEuaLvGT/T8lvFLltkDGtUH0xgOBB4exn8gIuuUYATX+scKLLQLAWai0V1fuwYDsExCT6KSnmmhDhEMlaUYsSmGWtik+IbaPT3HkWlRbMi4dgRKaUjfywf9iOI65sqOgOJ1MP4cM06xWG5ZaREZmoSIiyNAhwDiRloJ5YyBJGwK+QgjEoI7kavGhd82Ya/CFt7SVU+PGMUt3r/Cc3VmJ+hwUOEsm698MNR/EhQi9apZK2qoBfRhrsodbpnlh8DwwmozxK9BDLLAv+mFBJI1r4steBWUoHCg1eCnud6rFzXys8yDXi8VYD24U+V/9uF3YPJ8uJFqym6qCLk8aMaTgiF7Uj2a1l1lQFVATPbdV0F27BVK1OoQXI4AM9Ql2l9t86tBfq7ERkUagKMMqOZ19vGTW8Ztf7AKCUGdY8jI8JrMjCcRUfxm0tfB199UPpmtnxD6KJkrNrR6Mimjd+KLa+L4LzvR0RpzAgpvlshHMpiEFzyXtw6QY8Vjd62dYWlYjhHg60MnZQf9XeETs5AOAZfGCGyQFUzjNKdo0rHvuEsyUiP9LRe24oah+R75eBSCuWgyQfXEigg7CrVDteO9ADaQfmqUqTTB9xzCTZ6N1XrABTDV/dUqBlWJVSnsNdRnf7XrwVtff/sUzmAw19+gklA61O8kUSGvJvf/YZD5aSOHuYA0BA2UqTeil7HYLSCODNren5b1fzxgZYSEXNbVFpzz4jOltIWwINT/UAIFTlMkU/42nbE8uudg7ahH/cUiYjIoiOep8qUoZ7ciTPNegBqCL1NubHp/JTRVbzI4DVDTqbRaV1BYPQ72BEBSlZU1gtLqUFU46e6VezylNXaje0b0l1NIkpaVYnOPfCjyoNOHWyHYhOdTAivqwKBobMQ4tdAKfqa+Ma18YwqgsmhxBh8J3qehNJQyGBYNQwmw++pOVMLHNWy8d60465EvFRCK0aVgcMBOCra22oakJU0SpRONDEIDsJavvbVoG3wn9HPcGT44x0LvnTjU7xymtzt6Tfcuv1s4fytugihf2fr6KF14EphpSOrb0xuIfWB48PM540b3K6NgbL8KEKHUtJqzYOHdWljVbTZBBIYkNJSfer6jguMEp5mqj3jhnQMpaGlS2B63JRBKOkV1o4hLNJlTZ3rhkMp1LXwjF5321At6nPVBuIYZT+qL+tZEdT3zdTAqmt5Nf4mdH4J4/MyKgmakA3RhR9P7wLDaXvV6PltLUoy3o8p8tFORncHOnbk2B1VBnWNtEBHde0oLRUkNE+ESkB7W+0cZZO5F/UhyDmpNEU7O7D7Eu2d2n0jQT4VVU8kfXAi7UKIrJAiFO6/Vl6+2WzZ9u7PqjnosTqA0vx7nxwteMFAy8ZHr9jthqFr2OtHxIqsALOixiCzxBQbAa6ilJMwooqKaml49HRNMixCuWrU/KGjho4ipbISFxmiHj+IzwFI1CkFdckoMNhn2zQioxwWquYonlObDUy+sWTCNrYba027aQxmk4upOzc7KMVAzPKfkYbYTiTiIWOoBT3qnOtLh0YjjO6fIM8gbY25fFoJGObNRi6tF23qFDAkJe04L6QrCJYXyb01sRsYw198o8QXq14Y3AupOr+Ic5yaA4BTwHb1ptbIITp6+pDhnH0vgvYayUhEdyOxmOZFwoYxRVJrMlKQQ2lztJpue8bKtPwB/YwmBj9WB5AZOP8JyYIE+St33khtB82BOWpLkzcJ5XmrcRir4aWt6/TGog9daw7hpBMRX/Dw2QzFW31VTbdkbhlScBFOIKvm/mkW360bB6aN1XGjWrWeKmSZUl2KSndaGeYoQ9LklBaRBJ4Bzf34XIKwCmBEYpM4tA1+oaLER3pOgkm4WabU2o6UcZ4acGKZyj5DQRWYlQM7rmcgs8JoKpOMRRtkqP20UIcMyB8YKknP0ApUggg9aASnn1OnY4EuFfuR2Es7ARnQ4kXIiwzRUkgQ27WWcHwOzS01Bt8znGLCcIwi784Z19LUrtRu7ci5UiSNDglTM1VCwNqd/6Y19vIfUHnv8+8ABGt/wvzfLa98xUn68TKUrsn7ddJfLQaiuCItFv3JYKvrIqIMnkROV4qYfn3TaeP1jVwUXECxWOMDgB5sZVQJJ44WwvtdpxEUj0YhKtBkn0EmBhSvIoRCHIqcoacqFjp90JJe10DYYXNREJULw1zT4CZMolJUjr6BoOy4OMmqG8ZiGxC9vsIRnnPwCOOPaYLrHAfFG3pCpxBEPQUamejX942/0S2/fhCf4iyvUTUIW0WSamRnOVFHaELl/fg9ggRmQjS1KRLXNd6rE0F6ifx1E4FtJ76W3hwuQ8ZjyOBVdBpg7979src5k+afFX8WzUGP1QGkei98AvbfIb+Ub6ON22/o3n/96VqOwQgbzL9eC2bZhmy1LqKFzt02mHdDoZbkFKCaqt0crsH+Y7JsRUFHrTYLZbTl2lZhN2nAP6Xy8owFpb6KuKaMlZQj0fVic3KMHiBpwvmQ+FPph2fIcXVLsrnHXiMZ34+WUGjiUXMOtjGjTlcHbN8g7qxotJllDC8JtQx+JMe1zcGsRtnNfL9E8RZus0QX1M92MOTTnhcf0U5mCTKIz4DQ+oB6glCfr1MrPsQ0C7heWtzlKEeMBii9B1I3hwH6J5T81+x1sAxyUwKRbTjyIJoNqN9X2AVoR9WLUOFp8iJIQXYeHPfIPmblOj74WZQDH6sDKG9c/oTw//6LTbTTR64hHw0ehpg6LdKOQOeSVFdWkgtuqsi8+E2mP5wse/fCJr/pIGJn9ZipUiWaI2cbenbRgpdrN4ZN0YfqGCIgPQ9ArzLXklPXjaoHjmUwV0FkN57KmU1YGMuzDUgb6t0NEZJ5I9qGyCUcS22iDQ2NlcNzrPh56FbfsGEmiBt4LKLXt0cbqZE5pDVM8QxxkB/EKw1OfUee3rxrGWvgDEeGpytrdaMB/XWZz3R4bp1jdBXpl3KjmQ8p5QwyzVEjmZ5nYNnx1nSqEzuFeb66D8mqk3NTxI+YKYNGAm7Cs7yND79Ffb/4QS0NsD6/DiCSmX2cA0iRs3nvazYWfyqvHdTV9jVhZBk1V3MCsAn3TVhJVlydpmGx1LsT0XOXtmtOgKz4gEkQUOVqNEhC3/TIITGZFiOrJMfTY8MND2/bj1b1eXXaBY1UHMORxIhAK5K4VlR50zPSCKKIjwgMOGzuS9C/8/x4Pd8zOvwcYwJStRqlAYHRgEV1C1LCqGY4B3Ncum2UTU3RVsibOPH+eCuIM+xEcaVmeFcFBirxolFgVT+O/vTkX8eONxDp8W7wsSjHwtiTag9EUp1TU4si8mzFQenA4VBsMEE4pcqOK0XreRGTP9GTkMjgAcJ0Aehye+rLgTv41/lN+T/tNeKPVwl46E/9Mf5BFn+m/bf/9s/ZioGN9J0RRAxMsktJR62EkR7YhqxTQUUrEY9O5s1r8lPJptoc+GoRCxui+e4yl86JVojpmQK+oSqT6oFXg25wKNoJ6PwvLBWSUboL4je3NjbfmBDkGSmEhvdeEJ+L6Cqj1Esv3DrY6Rl5u/WIgRm2eaMaN6BvEIihZJniPQ7mzARTfhy70SmucLQMhl47RAri/f8xWThFTVmOHRGRQRA/X9v43B3VIqwdTqjWU2SsrpC4uifDqqVvrlLsuYpQdjkVTbYr41QSXvLr0ho/cgghqnLiFahwNoKBCnRKRQE9NNXKD3mAG8945e0JTgPu/rRnBDzeMuDlX/lj1X9UzF9MeyuHrHR8hbcJr0JSq2oMmNAfiGOU+XQpSkdf19jqo4ktL16ywv9LofS4qibsaLWXXyODMG6qoqyxqkaP64Gguh0Xu+ZxbkADQhapikHCNVhq7f2DaIeAVeeUwrHmxmhy/V71AMv68dJkCF1MB+MaXYCB4Vx0g5WpOqwfe25G6rBf346fp2PAeMtQCppltsBAb/Vdj7Gbnwy0ZObrQRRVLaPFN9Qu6JkAQXwKEBliJF1RMWfx6VRMN4VBGJZQ9w2MPdVXc+pWHbox01IyqjhhXwPF70MyZjqE96D9iGBkBij5TKrJyvv/3deo59wvkf/HiILG33xyHYBt/zGrwdjVBvO//xWXrc5yDV25oZE3JwGbkDEwRnEHdY/TXtmqY6pjHtq4+HjtZCsb8nYN1mNAaErn7bjJ1LSbst7/XjGGfFLUTQhHoDsS5cZVo6EQXcKymhGZQjLIzKMNakAP9SkVjd59I7LXDxqJjc7y4uVGcxqOZSCNwBitVc/Yx5hrP9pyazLeIdGleRnFgZD16KiuuxYDsxPTqnM+BmoLjNFgllGhMOfvEcWdYmCMZ0/YkYBKp2YJxfzrJp9UImrQwSoLQXQ60FTVV33DleKXdIVFO0rfcPSmIzBHxoeVLTueGoSDaJGWWNWfC7oP/xJV9z+/CKCy/3FKQPmknOT21TdlkaN5IcKwYugBDLLFqmtHNZNGyxSImOIU52FloXYokKkiBXHZX/l5o3JgR4ReRc0VACLQY6R1Hl71jVHVerV0RXWsqZn14pTcCL5XDeMLJwybk4WVyhGpCSnk4wdxYw6MJRUmb6CZbrN7zjJKeNrRhMZkEFSeMfdADz8Jgnhpz1RQavSl5bw6Zw+fU3UUhmPL/IgX8arRmG+zQceMmiEysR9GCdoJat4keMQGX4n2XjSeW89vcJXQB5876vhOlr/PKuWivt+qRorpx6s65kbgsPHJIPZMMZTZkxILPEbzVOjzFH/j7PzwS9X8iwOUzCz8NEVBj9UBuK2jHwMPHAoKe8cS3tpZGf4RxMtKZg010F0ghkjECuoUgsY6cMtsdjGIFsvYABvYxmDKhILwKVXqKqqWT7XLTQzBUwatjNfX7aV+fJCIdjBa4aU31djqtTxjaaS0DLsKwRhoRt666k8gI93QBqFJPm2wdp1AR5cKTZkyGaVA2+AOtIS4WqXYKqsQOfjxZiCdkuqc2lQHhmIhcxKOZbRaU53wh+JDScIhJo7S3dtGtYTiIiizqSgw5gYGVjRxR898pCAiAx03kmsnmmqGD75IqkCms/MNfsIITPpzCjsD67iQGOdkKhwdQ43pxYNYWLp0Iy7BoUqLV6y+bnWd+x9qUeDzqAMYff1Hx/9kM1U++OWvuFbVNfGk2exiXlvLfrgebLbEmsMozPn89cxfrFZNRjjVH5pq3yQF/fSMPTcRdXpJ9FerqsK9cEFtmYVjqOhi56CHghhDTACXcaO7hogpdqNTtFs+MCTIYWdb3Q4DK4hXT8J59J5x0wbxsqH+mTkTEI5OtA11S1bJ0FpouW4oNqK4RDgIHnbkJpEYtmoHkf4/JCG9hxGRKeiyVf1cNRiGVYpMKj7R2VEdeaSQiB7rBojttiiOKKG+jAY0/XjLjjYMhcNirHjertu+zZmJZov6Q6iBoqlAlh2XZwdGWmChs2jzw68Ewxf/B6K9z6cDKM9++2PQf8Jyl975qp0OQqInlPqSsZfdZFw9Yya/0onbdrysZg7h1KO0gx8Bv0LD9yKkgZsjUP22gY7Aema/p9IFRSQlvGjOvDgCPRlXQ3jLmEzrR0Zg/jfVi1soyiMTTpyMM41Iw1nPM0RFRlQJy2QUDaU0K1hOXZnUNsqP4Uy+OjEPGW3A+gbX5KQ5o9Ds4AyDohVB69g1oDgRafbya+Rgjmt2HpFP28a8SB0UbCdyerYhSYaDR6pnqc1MTsogZc2gYHITRs9JGKD8OjLQuFaW8TjbfpjXoDqEqsls0yHIwJD199/wCxttVrpl66eVBjzmdmDrR7P/5eKws3fnebvN6JByjHzQbDjRUd81dsOp8UpB3XSdsE7sx6FbGOGVFYQNRzqPNRs3fOUUlBIRToGUM0C6AGJWtxz7QVSuknFVTjReSivNzLVUljE23EQrYT5YN6feXIoats9aUXVDQ33RCKjz12vNAyMFcihqehJVo3EOYepCcTlzoAwoVoO3ouEpgWcYu87lq/FoGmo77IdJWavOuWhJcji404D5uuGLjJHmsmVJO0gD/ZnTiS0DfstAjiZFBieUaKgclTr9ivH8dvz7GOlpKEsDwxGEBkxGt58VpRaBUUEwh66an7Umw2tise1+b+nDF4JM67/9kQ7g6BM8FJS2Fn6E/bsUrN17002UsnpEdghdDcLFHCMdGENBTDgf3mxeXVnlEY0Z4aANq07BZ4ypCtMEXUKsRoxtYNxQ4AQCvY/egMjS1IOqghftqNPDSLVmRI/e1pxCfeTWJFxVk1easffjq6x1U1I49oriSIPs+HRcx1hvHm44MqYGhw6D4jnsQ1CVIoMLUzIv3uBiSoTDnLquvBl+hrbx+akgoO+B+hFjupRm2XFi00SAIYLUmgOw/CrqCwJRk3iqjKyrO6pyoSoAgf3wuYXvJ4jfU6a8N5wjYUx2DtudDWGSqai0nLoBqIbjEkTDaYC1ef3r1Pnz/5Yq+z8VVeDjJQGbhx6NDLD4c/XGm24yiPKrIJ7vh+OonSg1sBxjsIRvfDAUvyH0Wqn4i8Y70czVX6FyzY3LWy1VytOpAIg5faPK0pJKjTC0zdFWFJGLnhIKwfjQJ65r23p8V8KJQ+eQDKQouvsGItIVEFPkY25N9pQj0ItF6lvKA2OBpalIdBNxpaCO7mG5z3+omhcb2R7UGUBsQKgfLymGaNj4DPU8RxMS60ab0N5cAxU6Ecy2zdcjI0VRho6oH6gKjKV2Q/ho+85jWYrxHqqR4i/cI+FHRKhl1PRj5TuKz4p4iM+i+JyF8O+ceEXLMqXWumwJkVJp9o1qUE1bqWzxp6EKfLx7AfyNRxIAQd7rcLY+fM3uoIeWX+i+b3OyLxnQSw9T0Cy+nvLrG7mi5cfrqrHirfMwoRh+So7x30ru61eiD0PShFQ0ylrfoFASauVhYHyIjmukBsZ2o4QV/Sw8NdWvrgd6hPX+IB4ZTL29JrvCtldjmKXcvE58lJl2NE6dGMX3opKnmbvWDzsNOVPF15iP0a9tjgwz835zhuBD+bH+mRN3EJZZN7eiEp2pzTe3Quu0DRN4SDP7QfT60sexrVI4Lz5h2Wky9CZunJMJh5dWDeP3jEgfGOfnGdUCw8mZOyLNTUhktKmTWf7WWpHCzBGqbJ+jRMf3YxNYPw8OwE48YjswJ9T+0vVXE26pS0/0CczxUkHdlB3jAwgU7CbF5sqF19NXDT22bzKudWO+tAgjqBNgkLmzDoKezcj4w8Ybp4YIUD6q1dJUCbJYQwNUjavHNBehG5dCGKnKiGTsINAKO22g5pYcc7mHF8Rn98kkG6MyEhhw0/R+um5vlkp1z324hJOi1EM7l/ppvqYWwOQFyHAm1kPKNkMXYKYNVBcB6RGrxcyJvMl4BNUoIDD2KYr4ynAskgbt1HYZeqW6bcIGSrQzRgAwphWZXIXeLkWKOwpTN0MLQVbdxiqHYrstHhJImSpLfW0SqgqlGorsraWv0dC/932q7H7OHEDH2MM/TOTInn9f4L/Zb64Jp8CrEwUZF0rfELqWGiu9GmduOfGobg6tDOrm+4XqQyeOOvwqxdWJ+oaBc+DPwe2JvLaQkQothCOF6vI8y5hsFJJshsQU78c3ykHh6muj9dn3oh0CpvxVby/yKR7xA4qmBtl15bmQqLLr1osF8VHnZNfVsy1D2+8bE4oMjsWqv+GNhRix9WhWXOUZ02po2G5sagqsuOQ47Pdworw+NlcQMwI2sKU6IgrDFNFI95D/48uE9FQ/7uxHMflBKGuJBtfWtUSTEfnrHV44bVjfX66qbar3BnGStfXum/7Wyf9M7sqHZgQ8wUNBRWNZx/4Hpd2cvfa9r9o5oxQXxOfCkUHgmCPBYlyBrssq49YGZQ6RMCFzrN5P8Q8osAxtgcrvEW10r3dsh4atICScQHsU+bFVU+YZehTJt7268w8MoY+xFUf+TTxs/GEPgLqh9cSjcOJwnZ7BJMP0jWlOCDbz2PrRZeF4bbOf3qrrvKwbua339Zlk3UNRnIyR4e7DoqxQQecYNXCj9TaWEljx8e1hhLUNww+ishrgvrdbhywdY+CJuk6iCbDijUZme3X9LogwdyeKD6GxjfdsG3wBGemmVVfiprquSlNFqVOf7dvn/fzyJCVzNz5rHuDxcgDT7zxc/ivmL7rB7ojO62LkkiHoobrllKa3NXNEU+lm1Y+7DuLtr7HqANHD02qsCOoBEoIhturaO7W3lhsLZahWI0+uKpiqn9uN+gRIOyvdqWhHOnMZl13Xyx9qy3XHo1f3GJOAIwM5WQ8z9qZjCLfU2vFrbdWNAzedpu7RN5V9ZvkqFnXdhx0AGcZvmbxEIuJlYv9tGWKZeujsG9HUjRaXhM+jzqW6oT4jq87hGA1mgYL+Vtp4jF13D9U5TzmdOq7ClGDHmpwMiXB9r4qJVmKaFCP91QHDcT2nuvD214LOyRuf9eagx+sA9u7Erc1Jkb1y52tusmKFeaA5X81UUHlRjm9q/i2Kl19iF5biDSzmB2I5dfyC4cXNDrNQygrotW98kAZK0DcxUAC60aR5REFScRIZQ0VINYTg1K0516QRiCr0H5j15MCIDI4fjRULjJ55zYmEE3jdKMLEVqIFca25Sb45djzlqo/gMc26Y6w8t+N7AbXxho7Zjs++03sB5DNw4s471MJbRuuxEzdIyxz7noh31Wnnoq9PUKpFfiFm3Qh9Ub1CUbHwIP/k76vRawZ1kbq+hl/fd0GPIGtNxxdWR6x4m3r4PkwHmoy3O4tYCWK5ytZXvUTP3yS/GHxuHECi7+filuj7Li1e+SogdiitrBegGBNhAysi98xuN3PldAyaGh41qBON1OdxlhNXY1l1vdkOG7GfVaUiA7bGoCLeQ17lmLbBGbiRrFg+aDPCmItO9GtnVJuySbD50U1Nxm7AcK242TTjGymQH9+/Z5Jz5hSf8HFOXanPiUtcAyOfDg2zbvAF1RNqZq0+EecC9NRczYCHfIljIIggrubUhiNP40WIKtDq0GLtunhFCnsnQs7HNSYJ2/FrIs+XNRyYV0fG1SkDzTVqD+lRgro+f31u+vUSEQ9ERiu7ZVQcTFRgG4EP78Heu/dCkDs+YKVb5j/LUWGPmQNw4vl/YfdEwl86ZqeNm8qE4HXKOLOPv35acNjyG0TNQlYQN1YTLsbEFpYR+ew4AghXUNk18UhQMZxOXc6tO/RCEY1qE7aUugyRXfeYBwY0tpPx2nKoPjTrwBS9Jw0H6wemxoaj+pFAJzAIwpBkM4ds6sqLF3d+QV07rnkT6s+qPt0Kc387Qkoxok5HOOcR/20alDH1x9xDEPh1Dq6kHlOl+KRhg0QzG3q0k4uRwnpVWlNEHuoVcWY3Yeh4LaN6YMdZfdN4Qx7JV89b1wkY6PV1bnTvmXMtYott6xSJTqKQq879o68E7eO/HE8D/uQT7ADM+lAyRzT9h193nbKrlyvG3Kxv5EtVii+kDKKFjJZxlvqDtQzV2UP9/kHc6IM6aBmW2+r60uX7tDG/ro71Day6aGs/pDsKCS2/augLlORUr4cSAUoyXi4Kb7bAqD+r9xk6yCCKcGRGe90hWTdwMzAQh/k4egRxaBJ9el2a2W8QCq3qOQQrel+xHNmQW5PBlptLXi0tttJcR0WVSyvxc40Rt/YjJMXm9XfiTVK+F+cskOaFebgTDzJhIHDiqZAmIcl7BG9AURnP7KaMpTSJuJpQysgGaooFOoN4lkpFJf9zQcupXyav8PlAAHZmOIr+Ab/drXtvSrnFj4txYsSLMYnWvFChV7TiTDYZyxhD9rVaJwM2cncK4rl+jGmuRwlOTTvubRkpilmdsOIOpn4EtMlU17dFmINApP2Y6iKBWU5K1FWUjEhtBXXIxIv/zIxcIXEYxNd0kRV3DjHoa9eug7ki230ExxKLZtYjYL6pI9D1dL30QyksQ51HUCfgsuPQOvDrRHdW3DGbG6U1t6R19iHSSiiex5DnWsEjxpNZcZQSOgz7Ebt7jL2ODw38cKN7O7b+zJx4RfHJQjGiEANLdq694TcfabfSbZufVRrwmIeC7kXYrLA77hRvPSPqv7rV0RQ8gguo6yqTqJY0ooMTz+e0iCN4RM3f5AlMtVXgP5pINMUdTk7l+H5ciUh2nEQku84B0MN5o1U/wsuO60HCdVmeMR/Aj/rE68m5+oGceqMuWQ/D6v9/e1fSK9dVhKvOue2BlzzHduwgA0FhVFBAAQURMVhBgiBlzZo1G/4AEkv2CMGKBRIIthErJBYIogiBABEQgxwmYRs7gOMhtt/Y9xT3dt9z7ld16/TzIkgt0Vey/N7r97rvcE4NX331FWIgjINVxOS5ZIxnMG2uRhm4ePdBoHPSG5+AG5Ejj/3Rg2basSBoBkNVkbijuvLISMglXVa0epIEVY1FT8U2MPfMXEQ0HmS0E9mQojzQOT+zQMag5MgXZl3kFFbIv/elJLkAjd841/79+8/Jqbe9WAzAhWfX1wDE7XcNWMBDNL/83c9FOji5oNOiYmrUhJf8MEufuphavoxeEmmqnHEAIs2zxrA9mIeGI6fYKN/knw0lQdnVntxOwOFQ2UA2CgERiJKDw8JKMm16sWG6wgzI8VaO6KTyplB6U18fkm6iskdrUjb8Was3NU4JnghgJIjaeIxwcngdgq6KlPNJ2lOrYSMQaSh9QFPbz2uuV6sTAwgj/oTrplb5YBORFX4GpHMIYpcUiTQGgriCmPWF+EIMQod3//Y8Pfrki0upMF7vCODw0otDrn6cwms/e74B8g96Ho6Q10NjR15cgR2eAIJ4ST/MkndFzcrDyoASD8nPWMy+Gc6tB4t6URbMB0WcKUQebTbqEE9NPKapR2eIfFBtRshUQGCkOb5eUOagqxwqGjE6hGQqBtikUxZra7y+yckpaIahqocHIEAlfc1CGpAlaKzCnnusJCCJB0udxciD8ZlciyxJW9j4o+4tRklBC5wqJ4HnhGkK8vrBubDpBbDlbAtSl3uKhKLOEcX7f/zs/OYH38Kx2flfkILe5Gag/cUVyf7+uebe7y/Gs0CCiGD1k14sqqaPSDnUrXOJjWS6IItFF9N/ju3DrNH/wu+2XjUNZbpjA7ZgVG+VkASKQsjotUpfvFkcutEeFl07ApsKM2AtxJmrIBjBM7TrktHyo9akOjm/xDHfrTEWPP4MiVbl9Ax7M59rBm1t1GNptIJpHgzxIGjRZmi3FtAFEEMcKykNGF3GcXJ5NPopDf4RTSMmYU0ZL5td9H0RvB5oJit1/xbWfNKbmw2GQtFJ77As2Xc30q13t8fPfIS2zr78v8AB3twU4NH3LvixcuVXffPPmSKM2YJ3HEJQnOM3IfLkRRigdzxPih1IHAGHhiS9gFmmIbmSj5aRcyDs35XQM/5uQk4JFhyNgJBeeCIjmcTyy0sOLLo2T9g3DhsrYTuqaE061Xkn03RG0WQZcnPwPNjPTpimEBC1sHHLSHurstlcb1rF1muNx7RplaVom94QUU5GG2uhccw70o4Lq/TYYNAJev9Zg7wWfCzy3wbX4cYAeQj2ARlqIjKStNHA8i8hcOqkduHYnPj2yy/IIy+8vBA0WOsqQG+ywnGS+9eej7N2pEY2OtRDxd+8QMoNb4FlB19jaMfYNx61BWXIHbHNUtDrskkpcj5+MHaALdKAXjF4z+SvdlORzyMv481MuS1vsvJ6gsWDhgkXoc2/A4TLDjK9QNZbfW3omdF4BDb5O45hx4jHePEMvOUBFzLXHZmCOIJNN0xvPRoE2wGreCFMU8ouaTVebEdecDJOD6W4ljRNF4llQVeYchl44ViOmwiuNaXAYKLSaDAMU/50o1gxURpEAos+lZ3Ln0nzh79C8XS73hHA1nmSw/2TcueVzywUWaKpC2N/Pnr6YxrQEyjjqUgtAmMMWzOj2dwmlxJv0+fNAPMHw0xv4PhI9yc39EBHVLyxnXO4MNWGgi5AFs2KVGy+ZNJXGH2eHLHOEimgzFTSIBlq8pWR4HBTUaswQeNNApEPCVMUPEejwRg/7FHAXB3PuYh/yFjCFcBoUE/ARlKCYX8wICFBxNl/fWqQBKNR3SnTi7E0Z3GccntipbRMJrULlSiW/dRPOT8HV1HvsZgc9M+n5dip99CJhy+ttQGYX32p1/57ZkavPz6ZtEIm1IGad3mNNJqrrGVulySY0JqAemqBGQz1IummDESYQZo5h5KlsaivG5/pfvU2FYHSshCDHnqJDR4I/JVQOulNgQi1DRsLphBN+oPpBo1GhA0AKQYrQKOHaYsNeVV9uzH6i1FTjtV542dF8vs0gqkqgAITie7OzBJt5fMhVA7IxIwDcxM3d44MtruXT4+fy1ZwNpoUNBngEaO9ZKoC5Hh/drCF4ADFwTESlhrMQKRaCM3szQ4vfetzdPrJS/T4C2vMA+if4s0/fzo2h6FaXsILtoBM0Pk/5poY1mcBhRrY4gIttryFDSw4Pizo8+SHBmHQO8t0oDQKkc5b2ajzqvIimQ1oF9TgkYK5HoWIN1r3DsNLbqdkFEZwEgyRtFCaElMHB8EN9bVBwhkMVRbvRFwEh3sorkVuJIpmvLuR6GJT6gvBbFRsujlmKof9728vMZxCQIqwDlqDuEPTEbVTlF5VKzzDEA0PwlZMMBUQmrIiPYDYpAbcSG+QL9L5T3x9rSOA5v1foPTPL346njCeHzd469w0ezOxiYNXGA8b7kfwMkxVPQBlNIKDgJO2woua7OmhUWgH6KERNn8aqbsK/MbhJ4Emk2SLYUDPGaHduNE4AJsFVXgNYepVcDhF1gaUCuCEnpaTQwoCVFzx3cEoFUUgGTs8sV6veusZ+jrIiRahLVwA4ec4AoGhgUrREE3GM0MzludxMQrEHYBrKjhlRDY/Z7N7pGIwxES37FRG6IjveXk94Y1fXuRTX+1jmltrawB459oFvvvqM3x+OjRBbWi8iS1NBitOcifjqdRNjQ4zThyGlX1vszkUbdU+6Jx+9KMPt5YdgbIzHRxRAElTS1ZsNSwXsUGkbcrSAF6B7xshAhUti+1RWxHFxxbi4DDSsLuxzG0MzvMQU8I13AaFj+D5RGNksDXc1P6Vx8eICyneOQ3sOSdb5nMc0hDVwnj7mkPsUiCetz6R1xAdvkUw6VCq8CzQIA1GNIadc/t/+s5HZ4997EdrawDu/ORrz56eHTxUup8sIp9MqBQqXlqOsJaWkebldNYARZpO4vSsti2lMaQSe4PX316mBgtu++7Qiw4c+9JVN/wszGhK5W0MKi9anhtBMUwXCvMMehyUPDWZGj1o2+V6vZXqJtFil1jVQLAVN7yAVJjItNeDgylPkjFOJsVjJ38uDVuIo6ChPzZoM5w0zys6AF0tR2eDTbAxDMkxJDY6cGjqKuKgKddkYnBsimD+Pm7N6cYvfvDs4899c30NwP0b1z/06Ln5aAHFsXCe5UxO6EXORiXHmloijw3ZuPIQPMDQA2TQSPTdZIcA0MyW/eULb56Vfvpcdq7LVcg9INKbWsl9BccLYl0aNr8rSAFeU8KUvqy8cjYYti8CPVQwQzDYeHyAfqyGA8qaF+adVDwmVUpjkBosDFfuLhxUgJWXpzFimmwiW5Zj53OpsjajU8mgFSCfTTU9zy5OZBpoIhaqDE+3zg53b39orTGAO1evPdU8sfSKLnhCun4+sbbsgCEecyuZxUOmPmwfLlOdR08rsAZb46XB2yTSIh/Hhn8EPQqZvjwfI5bcAlv+Tsz9IP9c7eAOYqOF4HlPKJGVn7XOdUYH2AIx1kno25BLgVUVnAReOoD4SXSee35ujYnW8v8zZ3OISemiA7p5KWBcsYmtAUpOua+2Bmtrxa7fYJxdreGKHDygxzcO26fX2gAc3Jb3Ux8e74/hMgHvf2KF2woIkhyjkTdUYxZDMuFccB5cDZw5Kvrw0Fki3YVX86DseAOntESgIExzJ5KxhJrk5KX2PLiSzlgySqxgM4mqWorkDGCZ3ONYCbltbl0DacUBjr3z4gp6HpzFaSO9VPlsWl1SVoZTKjgCVVJRqaQksZLeRoh6ejn4e3vn19oA7N3a2Z5f7970A903u8O/Odxs25Ric55kFry3SfdXAITsRALRlHekkpORs/jwwSXnHCFUrnbjkXOejdnwlkUWKgQSC1iyA2TWPrsys97NSb33tb9bA9XYua/WQAkYM5tv23DYgmXtivtQMzrkRAVSCdulYgxSBUx+kBSAjjAOKHBqN34uUd4k2vn3m98O+KYagNf3Oe3+VXpAlkKvDXIaPH1yDAGZcI6chcIrvJ5n2alSBaAVm0VW/D1VFgxVPCs5eIcNE8WJirwFw5XKiDje0AJKtdeDszFmRyxk776FygZMTsmshv/QitybK/gPVwxtqtTwxTnnVQaTV4TjUjFy7LyfB0SHCtLvgeFo9G93H/O7zgbcIVprA3Dpxsn777u6Q+847NbU5S4tPttdwyNLOuaiNouWjSrgHK+w6p71pBX4ATth34OEtukIjEAqD7zmGVoHE6EjsAk5IoQWJ5TlI4BRXpFiUOX6eIWHl0rkUEubjvK2DxJVyAM4g9pmlhXrQ1bgMNaQ0Iq0pYYn0Qo8KkGk3P87GMRnd5cNafMbRG/8h+gPXXT93DobgGu3mtu/+UsX+Xdh+snj3b8rnSFolsMo+7l5fTksNKNGvWq/ZGcmAA6bgHJVubdWzy0PyoT5gzgWyz2wexBKUpOOP3LmEohZX4jgOx/IQL11vTZeN43ltiDTIRZ2cdn6v3JSraHlGkELNumAGMVkVV0gqGoAcUl9D/eCoPRYGpBI99tzMHqLBFRm1CDEXguTPqjxcsnMd4D3VN2deI1i7ILpDZg0MdlnJVMdQzWHAqsaINiaIAJuB6m0/v92mGd40H190H19pdv8f/5PSYDX0wBI2rl+o7Nc/3q9e+NmOdaqGSazNAOXPPJoAApeF4yzDrruXOrYYtSFcCyWOHVlUIjJf6t+bjcb6dJcFh21XkRx6s3fZTpqUZvl8XvFbEsOKJZgrLSzgMrMPOiaY9OerIwYbEZsYWVHtUjpHSDBBwxzAgMgppnGbl6Be18YgmCcUWMhsxTV/RItzOqJdKCST57pyOZ3FtAKw/BVu4HJv5/KBsCkKtVwlR2CA4gixyPheDicVzDoLOT3b9vlLMh+489hUtS8iw5e62dXhpN31toAnHnnhV/Pb17+fDOQXPoFs+jbGS4OPX5wvFXmlkc2Mk2mZq7UfXkcES1mQdQ8/WQBwUNLMhXJROabqxZDelQ5sx7jPZGqYr051RSaFfcXN5uSNietolRNRxyD55Uby7OolSVhwwTbJkxO1GXOhVkr8+B54S1PYrot2THyXmcjvKerySI6kis/MqSlgJoLlegdDaE4N9SVEUvT+5xkjF7aZM61Ow67jTQ7Ofv1WhuAf12/+r29RF/a2aULjwzjlyPk+U3UiywYD1CqOGHcQCHoTVW8b3R05dlZ83aiC3hi+7r1HiFoFVorYKHC8TR6m3xxhaYLoh4Tjyk64hHxQ1IVMjsGQc0KtPdKnFRHHsxoKIoyRMKRpyGz7X3gGqkJZOLUKHKInBY4aagUZww5iiGSxPPAdaNm+vE0pQuVtmCcFSkmisi0aZGp0xGTHmDvRpYkD2C4bDSBg2wPu9dfuxvT7PzZb661ATicpSuv3Qsv/OHO9jfO3tv5+Ak5CCe6iz11apkS9A+uaUYRyNkwBSbmcdUmf54PRBoMre2DQiOgNiostknlxrPWspycW5pQZBmOsQ2pzTivPB6bTUiKIbuV5WYrkwU5odfDj3RYxq47pxMRr6eM7pLpuCyh6fATZOzhqGyMNoI1PiDMmZ9rJKNQxGaTwHWgAlEA/CWS9pARw/p8jnM9Fp3NtUfUJxB9bVQxvjhpCns9cpTJw1Rmcu7phE7RjrhUEbcBh5Fy2D+sof350vv3779zr++s7/fUjK7elktXtt7x5UfPnf7pWhuApTVLv33rJy9e/Nsrlz61tXXuw+feun3hNz//4ROy25w589hj2+3O3Ye53WvicZo1fHBCWlnIznfWnrtFxMMN6+4HU4inOHZ3LHV3N8m4x7oHK2hluycVIijwiIwjslMaDUcAsYn+9cNkwmsYlZ1ggi7zmAPnjZxk6jBng2VvxaQUPI7hzpulTWMqlEd6F75TiRxSYKNJGMM4qjtvlgTeJ4Is1uJzBDYW6RRp8dkyjRYW9894KdyMxRhYCS3sT1D/M2wSMbjnGLblz2qHjRi63LH0RCgBxjFk5uE98HoWs1W6X5gpaTZWEQbD75b0ITjFiO6P2pQjUy4GeomHLL/p7/lc+q/CqGXCvQPjhU/pL7RNLCx3RfqhCN2pzOdDxB+5jc2Jvd37tJ/i1kEKs1u3bl2/+/annvrH1hNPXr517dU/3Yu7P57vpTfWXhT026+qrO+l4d/m2BybY02PZnMLNsfm2BiAzbE5NsfGAGyOzbE5NgZgc2yOzfF/cfwX1wMOxYrEziUAAAAASUVORK5CYII=;" parent="bjSVrxCcCOhVVrhVAQgg-1" vertex="1">
          <mxGeometry x="192" y="171" width="54" height="54" as="geometry" />
        </mxCell>
        <mxCell id="bjSVrxCcCOhVVrhVAQgg-5" value="&lt;font style=&quot;font-size: 18px&quot; color=&quot;#000000&quot;&gt;/usr/bin/vlc&lt;/font&gt;" style="rounded=1;whiteSpace=wrap;html=1;shadow=0;fillColor=#a0522d;strokeColor=#6D1F00;glass=0;fontColor=#ffffff;" parent="bjSVrxCcCOhVVrhVAQgg-1" vertex="1">
          <mxGeometry x="176" y="362" width="105" height="40" as="geometry" />
        </mxCell>
        <mxCell id="bjSVrxCcCOhVVrhVAQgg-38" style="edgeStyle=orthogonalEdgeStyle;rounded=1;sketch=0;jumpStyle=none;orthogonalLoop=1;jettySize=auto;html=1;startArrow=none;startFill=0;strokeColor=#005700;strokeWidth=6;opacity=60;fillColor=#008a00;" parent="bjSVrxCcCOhVVrhVAQgg-1" source="bjSVrxCcCOhVVrhVAQgg-6" edge="1">
          <mxGeometry relative="1" as="geometry">
            <mxPoint x="260" y="210" as="sourcePoint" />
            <mxPoint x="390" y="310" as="targetPoint" />
            <Array as="points">
              <mxPoint x="360" y="210" />
              <mxPoint x="360" y="310" />
            </Array>
          </mxGeometry>
        </mxCell>
        <mxCell id="_VUfvd7zScw78irFREDJ-51" value="桌面" style="text;html=1;resizable=0;autosize=1;align=center;verticalAlign=middle;points=[];fillColor=none;strokeColor=none;rounded=0;glass=0;fontSize=24;" parent="bjSVrxCcCOhVVrhVAQgg-1" vertex="1">
          <mxGeometry x="140" y="170" width="60" height="30" as="geometry" />
        </mxCell>
        <mxCell id="_VUfvd7zScw78irFREDJ-53" value="" style="endArrow=classic;startArrow=classic;html=1;rounded=1;sketch=0;fontSize=24;fontColor=#000000;startSize=2;endSize=2;strokeWidth=4;strokeColor=#F19C99;" parent="bjSVrxCcCOhVVrhVAQgg-1" edge="1">
          <mxGeometry width="50" height="50" relative="1" as="geometry">
            <mxPoint x="436" y="270" as="sourcePoint" />
            <mxPoint x="436" y="220" as="targetPoint" />
          </mxGeometry>
        </mxCell>
        <mxCell id="_VUfvd7zScw78irFREDJ-54" value="" style="endArrow=classic;startArrow=classic;html=1;rounded=1;sketch=0;fontSize=24;fontColor=#000000;startSize=2;endSize=2;strokeWidth=4;strokeColor=#3700CC;fillColor=#6a00ff;dashed=1;" parent="bjSVrxCcCOhVVrhVAQgg-1" edge="1">
          <mxGeometry width="50" height="50" relative="1" as="geometry">
            <mxPoint x="530.5" y="269.5" as="sourcePoint" />
            <mxPoint x="530.5" y="219.5" as="targetPoint" />
          </mxGeometry>
        </mxCell>
        <mxCell id="_VUfvd7zScw78irFREDJ-55" value="" style="endArrow=classic;startArrow=classic;html=1;rounded=1;sketch=0;fontSize=24;fontColor=#000000;startSize=2;endSize=2;strokeWidth=4;strokeColor=#A50040;fillColor=#d80073;dashed=1;" parent="bjSVrxCcCOhVVrhVAQgg-1" edge="1">
          <mxGeometry width="50" height="50" relative="1" as="geometry">
            <mxPoint x="626" y="270" as="sourcePoint" />
            <mxPoint x="626" y="220" as="targetPoint" />
          </mxGeometry>
        </mxCell>
        <mxCell id="_VUfvd7zScw78irFREDJ-78" value="" style="group" parent="bjSVrxCcCOhVVrhVAQgg-1" vertex="1" connectable="0">
          <mxGeometry x="159" y="538.5" width="120" height="85.5" as="geometry" />
        </mxCell>
        <mxCell id="_VUfvd7zScw78irFREDJ-56" value="" style="rounded=1;whiteSpace=wrap;html=1;glass=0;fontSize=24;fontColor=#ffffff;fillColor=#647687;strokeColor=#314354;" parent="_VUfvd7zScw78irFREDJ-78" vertex="1">
          <mxGeometry width="120" height="80" as="geometry" />
        </mxCell>
        <mxCell id="bjSVrxCcCOhVVrhVAQgg-15" value="&lt;font style=&quot;font-size: 10px&quot;&gt;DISPLAY&lt;/font&gt;" style="rounded=1;whiteSpace=wrap;html=1;shadow=0;strokeColor=#BD7000;strokeWidth=2;fillColor=#f0a30a;fontColor=#000000;" parent="_VUfvd7zScw78irFREDJ-78" vertex="1">
          <mxGeometry x="7" y="9" width="56" height="21" as="geometry" />
        </mxCell>
        <mxCell id="_VUfvd7zScw78irFREDJ-57" value="&lt;font style=&quot;font-size: 14px&quot;&gt;environment&lt;/font&gt;" style="text;html=1;resizable=0;autosize=1;align=center;verticalAlign=middle;points=[];fillColor=none;strokeColor=none;rounded=0;glass=0;fontSize=24;fontColor=#000000;" parent="_VUfvd7zScw78irFREDJ-78" vertex="1">
          <mxGeometry x="15" y="45.5" width="90" height="40" as="geometry" />
        </mxCell>
        <mxCell id="_VUfvd7zScw78irFREDJ-58" value="&lt;font style=&quot;font-size: 10px&quot;&gt;PULSE_SERVER&lt;/font&gt;" style="rounded=1;whiteSpace=wrap;html=1;glass=0;fontSize=24;fontColor=#ffffff;fillColor=#76608a;strokeColor=#432D57;" parent="_VUfvd7zScw78irFREDJ-78" vertex="1">
          <mxGeometry x="5.5" y="36" width="107.5" height="24" as="geometry" />
        </mxCell>
        <mxCell id="_VUfvd7zScw78irFREDJ-59" value="&lt;font style=&quot;font-size: 10px&quot; color=&quot;#000000&quot;&gt;IM&lt;/font&gt;" style="rounded=1;whiteSpace=wrap;html=1;shadow=0;strokeColor=#6D1F00;strokeWidth=2;fillColor=#a0522d;fontColor=#ffffff;" parent="_VUfvd7zScw78irFREDJ-78" vertex="1">
          <mxGeometry x="66" y="9" width="46" height="21" as="geometry" />
        </mxCell>
        <mxCell id="_VUfvd7zScw78irFREDJ-80" value="" style="group" parent="bjSVrxCcCOhVVrhVAQgg-1" vertex="1" connectable="0">
          <mxGeometry x="345" y="538.5" width="120" height="80" as="geometry" />
        </mxCell>
        <mxCell id="_VUfvd7zScw78irFREDJ-61" value="" style="rounded=1;whiteSpace=wrap;html=1;glass=0;fontSize=24;fontColor=#ffffff;fillColor=#76608a;strokeColor=#432D57;" parent="_VUfvd7zScw78irFREDJ-80" vertex="1">
          <mxGeometry width="120" height="80" as="geometry" />
        </mxCell>
        <mxCell id="_VUfvd7zScw78irFREDJ-64" value="&lt;font style=&quot;font-size: 10px&quot; color=&quot;#000000&quot;&gt;dri&lt;/font&gt;" style="rounded=1;whiteSpace=wrap;html=1;shadow=0;strokeColor=#6D1F00;strokeWidth=2;fillColor=#a0522d;fontColor=#ffffff;" parent="_VUfvd7zScw78irFREDJ-80" vertex="1">
          <mxGeometry x="66.5" y="5.5" width="46" height="21" as="geometry" />
        </mxCell>
        <mxCell id="_VUfvd7zScw78irFREDJ-65" value="&lt;span style=&quot;font-size: 10px&quot;&gt;snd&lt;/span&gt;" style="rounded=1;whiteSpace=wrap;html=1;shadow=0;strokeColor=#A50040;strokeWidth=2;fillColor=#d80073;fontColor=#ffffff;" parent="_VUfvd7zScw78irFREDJ-80" vertex="1">
          <mxGeometry x="6" y="5.5" width="56" height="21" as="geometry" />
        </mxCell>
        <mxCell id="_VUfvd7zScw78irFREDJ-66" value="&lt;font style=&quot;font-size: 10px&quot;&gt;video0&lt;/font&gt;" style="rounded=1;whiteSpace=wrap;html=1;glass=0;fontSize=24;fontColor=#000000;fillColor=#fa6800;strokeColor=#C73500;" parent="_VUfvd7zScw78irFREDJ-80" vertex="1">
          <mxGeometry x="3" y="32" width="60" height="24" as="geometry" />
        </mxCell>
        <mxCell id="_VUfvd7zScw78irFREDJ-67" value="&lt;font style=&quot;font-size: 14px&quot;&gt;devices&lt;/font&gt;" style="text;html=1;resizable=0;autosize=1;align=center;verticalAlign=middle;points=[];fillColor=none;strokeColor=none;rounded=0;glass=0;fontSize=10;fontColor=#000000;" parent="_VUfvd7zScw78irFREDJ-80" vertex="1">
          <mxGeometry x="28.75" y="59" width="60" height="20" as="geometry" />
        </mxCell>
        <mxCell id="_VUfvd7zScw78irFREDJ-68" value="&lt;font style=&quot;font-size: 10px&quot;&gt;video0&lt;/font&gt;" style="rounded=1;whiteSpace=wrap;html=1;glass=0;fontSize=24;fontColor=#000000;fillColor=#fa6800;strokeColor=#C73500;" parent="_VUfvd7zScw78irFREDJ-80" vertex="1">
          <mxGeometry x="3" y="32" width="60" height="24" as="geometry" />
        </mxCell>
        <mxCell id="_VUfvd7zScw78irFREDJ-69" value="&lt;font style=&quot;font-size: 10px&quot;&gt;shm&lt;/font&gt;" style="rounded=1;whiteSpace=wrap;html=1;glass=0;fontSize=24;fontColor=#000000;fillColor=#e3c800;strokeColor=#B09500;" parent="_VUfvd7zScw78irFREDJ-80" vertex="1">
          <mxGeometry x="66.5" y="32" width="46.5" height="24" as="geometry" />
        </mxCell>
        <mxCell id="_VUfvd7zScw78irFREDJ-81" value="" style="group" parent="bjSVrxCcCOhVVrhVAQgg-1" vertex="1" connectable="0">
          <mxGeometry x="526.7" y="538.5" width="120" height="85.5" as="geometry" />
        </mxCell>
        <mxCell id="_VUfvd7zScw78irFREDJ-70" value="" style="rounded=1;whiteSpace=wrap;html=1;glass=0;fontSize=24;fontColor=#ffffff;fillColor=#647687;strokeColor=#314354;" parent="_VUfvd7zScw78irFREDJ-81" vertex="1">
          <mxGeometry width="120" height="80" as="geometry" />
        </mxCell>
        <mxCell id="_VUfvd7zScw78irFREDJ-71" value="&lt;font style=&quot;font-size: 10px&quot;&gt;HOME&lt;/font&gt;" style="rounded=1;whiteSpace=wrap;html=1;shadow=0;strokeColor=#BD7000;strokeWidth=2;fillColor=#f0a30a;fontColor=#000000;" parent="_VUfvd7zScw78irFREDJ-81" vertex="1">
          <mxGeometry x="7" y="9" width="56" height="21" as="geometry" />
        </mxCell>
        <mxCell id="_VUfvd7zScw78irFREDJ-72" value="&lt;font style=&quot;font-size: 14px&quot;&gt;volumes&lt;/font&gt;" style="text;html=1;resizable=0;autosize=1;align=center;verticalAlign=middle;points=[];fillColor=none;strokeColor=none;rounded=0;glass=0;fontSize=24;fontColor=#000000;" parent="_VUfvd7zScw78irFREDJ-81" vertex="1">
          <mxGeometry x="25" y="45.5" width="70" height="40" as="geometry" />
        </mxCell>
        <mxCell id="_VUfvd7zScw78irFREDJ-74" value="&lt;font style=&quot;font-size: 10px&quot; color=&quot;#000000&quot;&gt;/&lt;/font&gt;" style="rounded=1;whiteSpace=wrap;html=1;shadow=0;strokeColor=#6D1F00;strokeWidth=2;fillColor=#a0522d;fontColor=#ffffff;" parent="_VUfvd7zScw78irFREDJ-81" vertex="1">
          <mxGeometry x="66" y="9" width="46" height="21" as="geometry" />
        </mxCell>
        <mxCell id="_VUfvd7zScw78irFREDJ-76" value="&lt;font style=&quot;font-size: 10px&quot; color=&quot;#000000&quot;&gt;Cups&lt;/font&gt;" style="rounded=1;whiteSpace=wrap;html=1;shadow=0;strokeColor=#005700;strokeWidth=2;fillColor=#008a00;fontColor=#ffffff;" parent="_VUfvd7zScw78irFREDJ-81" vertex="1">
          <mxGeometry x="66" y="37.38000000000011" width="46" height="21" as="geometry" />
        </mxCell>
        <mxCell id="_VUfvd7zScw78irFREDJ-77" value="&lt;font style=&quot;font-size: 10px&quot;&gt;X11&lt;/font&gt;" style="rounded=1;whiteSpace=wrap;html=1;shadow=0;strokeColor=#3700CC;strokeWidth=2;fillColor=#6a00ff;fontColor=#ffffff;" parent="_VUfvd7zScw78irFREDJ-81" vertex="1">
          <mxGeometry x="7" y="37.38000000000011" width="56" height="21" as="geometry" />
        </mxCell>
        <mxCell id="_VUfvd7zScw78irFREDJ-85" value="" style="endArrow=classic;startArrow=classic;html=1;rounded=1;sketch=0;fontSize=14;fontColor=#000000;startSize=2;endSize=2;strokeColor=#001DBC;strokeWidth=4;fillColor=#0050ef;" parent="bjSVrxCcCOhVVrhVAQgg-1" edge="1">
          <mxGeometry width="50" height="50" relative="1" as="geometry">
            <mxPoint x="220" y="538.5" as="sourcePoint" />
            <mxPoint x="420" y="220" as="targetPoint" />
            <Array as="points">
              <mxPoint x="220" y="500" />
              <mxPoint x="420" y="500" />
            </Array>
          </mxGeometry>
        </mxCell>
        <mxCell id="_VUfvd7zScw78irFREDJ-86" value="" style="endArrow=classic;startArrow=classic;html=1;rounded=1;sketch=0;fontSize=14;fontColor=#000000;startSize=2;endSize=2;strokeColor=#A50040;strokeWidth=4;fillColor=#d80073;" parent="bjSVrxCcCOhVVrhVAQgg-1" edge="1">
          <mxGeometry width="50" height="50" relative="1" as="geometry">
            <mxPoint x="420" y="540" as="sourcePoint" />
            <mxPoint x="420" y="220" as="targetPoint" />
            <Array as="points">
              <mxPoint x="420" y="520" />
              <mxPoint x="420" y="510" />
            </Array>
          </mxGeometry>
        </mxCell>
        <mxCell id="_VUfvd7zScw78irFREDJ-87" value="" style="endArrow=classic;startArrow=classic;html=1;rounded=1;sketch=0;fontSize=14;fontColor=#000000;startSize=2;endSize=2;strokeColor=#6F0000;strokeWidth=4;fillColor=#a20025;exitX=0.25;exitY=0;exitDx=0;exitDy=0;" parent="bjSVrxCcCOhVVrhVAQgg-1" source="_VUfvd7zScw78irFREDJ-70" edge="1">
          <mxGeometry width="50" height="50" relative="1" as="geometry">
            <mxPoint x="230" y="548.5" as="sourcePoint" />
            <mxPoint x="420" y="220" as="targetPoint" />
            <Array as="points">
              <mxPoint x="557" y="500" />
              <mxPoint x="420" y="500" />
            </Array>
          </mxGeometry>
        </mxCell>
        <mxCell id="_VUfvd7zScw78irFREDJ-89" value="" style="endArrow=classic;html=1;rounded=1;sketch=0;fontSize=14;fontColor=#000000;startSize=2;endSize=2;strokeColor=#B09500;strokeWidth=4;exitX=0.5;exitY=1;exitDx=0;exitDy=0;fillColor=#e3c800;" parent="bjSVrxCcCOhVVrhVAQgg-1" source="bjSVrxCcCOhVVrhVAQgg-6" edge="1">
          <mxGeometry width="50" height="50" relative="1" as="geometry">
            <mxPoint x="200" y="300" as="sourcePoint" />
            <mxPoint x="219" y="360" as="targetPoint" />
          </mxGeometry>
        </mxCell>
        <mxCell id="_VUfvd7zScw78irFREDJ-90" value="" style="endArrow=classic;html=1;rounded=1;sketch=0;fontSize=14;fontColor=#000000;startSize=2;endSize=2;strokeColor=#6D1F00;strokeWidth=4;exitX=-0.008;exitY=0.6;exitDx=0;exitDy=0;exitPerimeter=0;dashed=1;fillColor=#FFCCCC;" parent="bjSVrxCcCOhVVrhVAQgg-1" source="bjSVrxCcCOhVVrhVAQgg-18" edge="1">
          <mxGeometry width="50" height="50" relative="1" as="geometry">
            <mxPoint x="530" y="497.5" as="sourcePoint" />
            <mxPoint x="420" y="474" as="targetPoint" />
          </mxGeometry>
        </mxCell>
      </root>
    </mxGraphModel>
  </diagram>
</mxfile>
